<svg xmlns="http://www.w3.org/2000/svg" width="13.446" height="13.444" viewBox="0 0 13.446 13.444">
  <g id="icon-sidebar-dashboard-white" transform="translate(-2.506 -2.471)">
    <path id="Path_68" data-name="Path 68" d="M3.023,5.4c0-1.81.019-2.413,2.413-2.413s2.413.6,2.413,2.413.008,2.413-2.413,2.413S3.023,7.211,3.023,5.4Z" fill="rgba(99,116,123,0)" stroke="#63747b" stroke-linecap="round" stroke-linejoin="round" stroke-width="1.034" fill-rule="evenodd"/>
    <path id="Path_69" data-name="Path 69" d="M10.609,5.4c0-1.81.019-2.413,2.413-2.413s2.413.6,2.413,2.413.008,2.413-2.413,2.413S10.609,7.211,10.609,5.4Z" fill="rgba(99,116,123,0)" stroke="#63747b" stroke-linecap="round" stroke-linejoin="round" stroke-width="1.034" fill-rule="evenodd"/>
    <path id="Path_70" data-name="Path 70" d="M3.023,12.985c0-1.81.019-2.413,2.413-2.413s2.413.6,2.413,2.413S7.857,15.4,5.436,15.4,3.023,14.8,3.023,12.985Z" fill="rgba(99,116,123,0)" stroke="#63747b" stroke-linecap="round" stroke-linejoin="round" stroke-width="1.034" fill-rule="evenodd"/>
    <path id="Path_71" data-name="Path 71" d="M10.609,12.985c0-1.81.019-2.413,2.413-2.413s2.413.6,2.413,2.413.008,2.413-2.413,2.413S10.609,14.8,10.609,12.985Z" fill="rgba(99,116,123,0)" stroke="#63747b" stroke-linecap="round" stroke-linejoin="round" stroke-width="1.034" fill-rule="evenodd"/>
  </g>
</svg>
