<svg width="17" height="15" viewBox="0 0 17 15" fill="none" xmlns="http://www.w3.org/2000/svg">
<path d="M5.54473 14.4129H3.41219L10.6047 0.997336H12.7566L5.54473 14.4129ZM6.97935 4.21553C6.97935 5.15902 6.63685 5.97326 5.95185 6.65826C5.27978 7.33033 4.472 7.66637 3.52851 7.66637C2.5721 7.66637 1.75786 7.33033 1.08579 6.65826C0.413716 5.98618 0.0776794 5.17194 0.0776794 4.21553C0.0776794 3.25912 0.413716 2.44488 1.08579 1.77281C1.75786 1.10073 2.5721 0.764697 3.52851 0.764697C4.48493 0.764697 5.29917 1.10073 5.97124 1.77281C6.64331 2.44488 6.97935 3.25912 6.97935 4.21553ZM1.97758 4.21553C1.97758 4.62911 2.12621 4.991 2.42347 5.30119C2.73366 5.59845 3.10201 5.74708 3.52851 5.74708C3.9421 5.74708 4.29752 5.59845 4.59478 5.30119C4.90497 4.991 5.06006 4.62911 5.06006 4.21553C5.06006 3.78902 4.90497 3.42714 4.59478 3.12987C4.29752 2.81969 3.9421 2.66459 3.52851 2.66459C3.10201 2.66459 2.73366 2.81969 2.42347 3.12987C2.12621 3.42714 1.97758 3.78902 1.97758 4.21553ZM15.1799 8.65509C15.8649 9.32716 16.2074 10.1414 16.2074 11.0978C16.2074 12.0542 15.8649 12.8685 15.1799 13.5405C14.5079 14.2126 13.7001 14.5486 12.7566 14.5486C11.8002 14.5486 10.9859 14.2126 10.3139 13.5405C9.64179 12.8685 9.30575 12.0542 9.30575 11.0978C9.30575 10.1414 9.64179 9.32716 10.3139 8.65509C10.9859 7.98302 11.8002 7.64698 12.7566 7.64698C13.7001 7.64698 14.5079 7.98302 15.1799 8.65509ZM11.225 11.0978C11.225 11.5114 11.3737 11.8733 11.6709 12.1835C11.9682 12.4807 12.3301 12.6294 12.7566 12.6294C13.1702 12.6294 13.5256 12.4807 13.8229 12.1835C14.133 11.8733 14.2881 11.5114 14.2881 11.0978C14.2881 10.6713 14.133 10.3094 13.8229 10.0122C13.5256 9.70197 13.1702 9.54688 12.7566 9.54688C12.3301 9.54688 11.9682 9.70197 11.6709 10.0122C11.3737 10.3094 11.225 10.6713 11.225 11.0978Z" fill="white"/>
</svg>
