<svg width="18" height="18" viewBox="0 0 18 18" fill="none" xmlns="http://www.w3.org/2000/svg">
<path fill-rule="evenodd" clip-rule="evenodd" d="M3.02344 5.40126C3.02344 3.59138 3.04282 2.98828 5.43642 2.98828C7.83002 2.98828 7.8494 3.59138 7.8494 5.40126C7.8494 7.21114 7.85703 7.81424 5.43642 7.81424C3.0158 7.81424 3.02344 7.21114 3.02344 5.40126Z" stroke="white" stroke-width="1.03413" stroke-linecap="round" stroke-linejoin="round"/>
<path fill-rule="evenodd" clip-rule="evenodd" d="M10.6094 5.40126C10.6094 3.59138 10.6288 2.98828 13.0224 2.98828C15.416 2.98828 15.4353 3.59138 15.4353 5.40126C15.4353 7.21114 15.443 7.81424 13.0224 7.81424C10.6017 7.81424 10.6094 7.21114 10.6094 5.40126Z" stroke="white" stroke-width="1.03413" stroke-linecap="round" stroke-linejoin="round"/>
<path fill-rule="evenodd" clip-rule="evenodd" d="M3.02344 12.9852C3.02344 11.1754 3.04282 10.5723 5.43642 10.5723C7.83002 10.5723 7.8494 11.1754 7.8494 12.9852C7.8494 14.7951 7.85703 15.3982 5.43642 15.3982C3.0158 15.3982 3.02344 14.7951 3.02344 12.9852Z" stroke="white" stroke-width="1.03413" stroke-linecap="round" stroke-linejoin="round"/>
<path fill-rule="evenodd" clip-rule="evenodd" d="M10.6094 12.9852C10.6094 11.1754 10.6288 10.5723 13.0224 10.5723C15.416 10.5723 15.4353 11.1754 15.4353 12.9852C15.4353 14.7951 15.443 15.3982 13.0224 15.3982C10.6017 15.3982 10.6094 14.7951 10.6094 12.9852Z" stroke="white" stroke-width="1.03413" stroke-linecap="round" stroke-linejoin="round"/>
</svg>
