<svg width="100" height="49" viewBox="0 0 100 49" fill="none" xmlns="http://www.w3.org/2000/svg">
<path d="M95.7254 0.679517C94.1517 1.93912 92.6249 3.2107 91.1693 4.50629C89.7129 5.80189 88.3035 7.10951 86.9652 8.42908C84.9448 10.3965 83.0191 12.3878 81.1638 14.3912C80.5999 14.8231 80.0367 15.2549 79.4493 15.6748C78.0164 16.7305 76.5131 17.7622 74.9871 18.7818C75.0105 18.7698 75.0105 18.7698 75.034 18.7578C75.0105 18.7698 74.9871 18.7938 74.9636 18.8058C74.9636 18.8178 74.9401 18.8178 74.9159 18.8298C74.9159 18.8298 74.9159 18.8178 74.9401 18.8178C70.7829 21.5529 66.2495 24.1681 61.2702 26.5194C61.2702 26.4954 61.2937 26.4594 61.2937 26.4354C61.3883 26.0156 61.4822 25.5957 61.576 25.1638C61.6933 24.732 61.8341 24.3121 62.1157 23.8922C62.2096 23.7483 62.0688 23.5803 61.8107 23.4963C61.576 23.4244 61.1763 23.4244 60.9886 23.5563C60.1665 24.0961 59.1568 24.54 58.147 24.9839C57.6534 25.1998 57.1607 25.4037 56.6671 25.6197C56.7141 25.4637 56.761 25.2958 56.8079 25.1398C56.8314 25.0079 56.8314 24.8759 56.7845 24.7559C56.761 24.672 56.7375 24.588 56.6906 24.504C56.6437 24.4201 56.5733 24.3481 56.5029 24.2641C56.3621 24.0842 55.7981 24.0242 55.4931 24.1321C53.8021 24.756 51.899 25.2118 50.1611 25.7996C50.1845 25.7276 50.1845 25.6557 50.1845 25.5957C50.208 25.4158 50.208 25.2478 50.1611 25.0679C50.1376 24.9599 50.0907 24.8519 50.0437 24.7439C49.9968 24.636 49.9029 24.54 49.8091 24.444C49.7152 24.3481 49.5033 24.2761 49.3155 24.2521C49.034 24.2161 48.7055 24.2521 48.517 24.3601C45.9804 25.6557 43.0684 26.7353 40.3441 27.923C40.4145 27.5151 40.4614 27.1072 40.5553 26.6993C40.6022 26.6153 40.6022 26.5314 40.5553 26.4474C40.4849 26.3275 40.3206 26.2195 40.1087 26.1595C39.7332 26.0515 39.2397 26.0755 38.9346 26.2315C36.7266 27.3351 34.6366 28.5108 32.1939 29.4825C31.0199 29.9382 29.7981 30.3341 28.4364 30.6342C27.9897 30.73 27.5439 30.802 27.0738 30.8739C28.3182 28.8946 29.4931 26.9153 30.7375 24.9359C30.8783 24.696 30.6436 24.432 30.2447 24.3121C29.8216 24.1801 29.2819 24.2281 28.9291 24.3961C25.9233 25.8716 23.1043 27.4431 20.2158 28.9786C18.2432 30.0221 16.2228 31.0421 14.0859 32.0137C15.8004 30.7061 17.4915 29.3985 19.1356 28.0549C21.4602 26.1475 23.6683 24.2041 25.4766 22.1648C27.2146 20.2094 28.6241 18.182 29.2819 16.0587C29.3288 15.9507 29.3288 15.8427 29.2819 15.7348C29.2349 15.6268 29.1168 15.5429 28.9761 15.4589C28.6006 15.2669 27.9897 15.2309 27.5204 15.3629C26.0406 15.7948 24.678 16.3466 23.4336 16.9464C22.5646 17.3663 21.7426 17.7981 20.9674 18.254C21.0613 18.122 21.1317 17.9901 21.2256 17.8461C22.5881 15.6628 23.4336 13.3955 23.7152 11.1042C22.5646 12.8917 21.2725 14.6551 19.9577 16.4066C19.2999 17.2703 18.6421 18.122 18.0077 18.9858C17.3742 19.8255 16.7164 20.6652 16.0351 21.493V21.481C16.0351 21.481 16.0351 21.493 16.0116 21.493C15.9882 21.529 15.9412 21.5769 15.9178 21.6129C15.9412 21.5889 15.9412 21.5769 15.9647 21.5529C15.8943 21.6369 15.8239 21.7089 15.7535 21.7929C14.4614 22.8006 13.2639 23.8442 12.136 24.8999C10.1164 26.7953 8.33152 28.7627 6.78127 30.778C6.12346 31.6537 5.51299 32.5294 4.97282 33.4291C4.59707 34.0531 4.26824 34.6768 4.03336 35.3008C3.49319 35.9963 2.97642 36.6923 2.48326 37.3998C1.56726 38.7078 0.768668 40.0273 0.0406269 41.3589C-0.10032 41.6226 0.134562 41.9106 0.604254 42.0544C0.886147 42.1383 1.21497 42.1623 1.52025 42.1143C1.80215 42.0784 2.10743 41.9705 2.24837 41.8267C4.52659 39.4632 7.27482 37.244 10.093 35.0487C10.8446 34.7846 11.5728 34.5209 12.301 34.2329C14.4614 33.3931 16.4809 32.4695 18.4309 31.5099C21.5306 29.9742 24.4434 28.3548 27.4258 26.7593C26.5099 28.3068 25.547 29.8423 24.6311 31.39C24.5138 31.5698 24.6311 31.7736 24.8892 31.9058C25.0073 31.9657 25.1716 32.0137 25.3358 32.0376C25.5236 32.0616 25.7113 32.0616 25.8763 32.0376C27.3319 31.9417 28.6945 31.7016 30.0093 31.3661C31.3484 31.0301 32.5693 30.5982 33.7207 30.1184C35.4352 29.4225 36.9855 28.6307 38.5122 27.827C38.488 28.1509 38.4411 28.4868 38.3707 28.8107C38.3707 28.8347 38.3472 28.8707 38.3472 28.8946C38.3003 28.9786 38.3003 29.0626 38.3472 29.1346C38.4176 29.2546 38.5592 29.3505 38.7704 29.4105C39.1223 29.5185 39.569 29.4825 39.8505 29.3385C42.5983 27.959 45.7692 26.8313 48.5639 25.4877C48.5404 25.8476 48.4465 26.2195 48.47 26.5794C48.47 26.7233 48.6108 26.8553 48.8462 26.9273C49.1747 27.0232 49.5275 26.9872 49.7856 26.8673C49.9029 26.8193 50.0203 26.7713 50.1376 26.7113C51.7582 26.0875 53.6136 25.6317 55.3046 25.0558C55.3046 25.1398 55.2811 25.2238 55.2577 25.3198C55.2107 25.5117 55.1403 25.7036 55.0934 25.9076C55.0465 26.1235 55.0699 26.3394 55.1638 26.5554C55.2577 26.8073 56.0093 26.9153 56.3386 26.7113C57.113 26.2675 58.0531 25.8836 58.9456 25.4997C59.3914 25.3078 59.8146 25.1158 60.2369 24.9239C60.0962 25.4757 60.0023 26.0275 59.8615 26.5794C59.7911 26.8313 59.7207 27.0712 59.5791 27.3231C59.5087 27.4671 59.6261 27.635 59.885 27.707C60.1666 27.791 60.4716 27.755 60.707 27.659C64.7227 25.8356 68.4575 23.8562 71.9335 21.7569C74.0234 20.4973 76.0203 19.2137 77.946 17.8821C74.0469 22.2727 70.3128 26.6993 66.4137 31.09C66.226 31.066 66.0383 31.0301 65.8506 30.9941C65.2866 30.8619 64.7461 30.6941 64.2534 30.5023C63.314 30.1184 62.4919 29.6624 61.7637 29.1826C61.1529 28.7627 60.5897 28.3308 60.0492 27.887C59.8615 27.731 59.6026 27.6231 59.2506 27.5751C58.7805 27.5031 58.3347 27.5871 57.9585 27.743C56.5029 28.3908 55.2811 29.1706 54.201 29.9862C53.0504 30.8499 52.1345 31.7979 51.3124 32.7575C49.551 34.8689 48.3996 37.1121 47.8122 39.3793C47.3898 40.9869 47.2021 42.6065 47.3664 44.2377C47.4368 44.9936 47.601 45.7494 47.8834 46.5053C48.118 47.1529 48.47 47.7889 48.8932 48.4125C49.0105 48.5923 49.2451 48.7245 49.6214 48.7845C50.0672 48.8444 50.5373 48.7485 50.7719 48.5444C52.2753 47.2727 53.7309 45.9891 55.1638 44.6935C56.5733 43.398 57.9585 42.0784 59.2741 40.7588C61.928 38.1077 64.4176 35.4086 66.8369 32.6976C66.8838 32.6373 66.9542 32.5774 67.0011 32.5174C67.4008 32.5414 67.7763 32.5414 68.1759 32.5294C70.0078 32.4695 71.6988 32.0856 73.2248 31.5818C74.9636 31.0061 76.5131 30.2742 77.9929 29.5305C79.7544 28.6427 81.4454 27.695 83.1834 26.7953C83.113 27.2512 83.0661 27.707 82.9487 28.1509C82.9018 28.3188 82.8314 28.4868 82.761 28.6547C82.6672 28.8827 82.761 29.1106 83.0895 29.2785C83.3954 29.4345 83.9116 29.5185 84.3113 29.4465C85.9789 29.1346 87.5518 28.7147 89.0317 28.1989C90.6054 27.659 92.0148 27.0113 93.2827 26.3155C95.8662 24.9239 97.957 23.3044 100 21.7089C96.5475 23.2684 93.3062 24.9599 89.666 26.3994C88.8439 26.7233 87.9984 27.0352 87.1294 27.3112C86.6124 27.4791 86.0962 27.635 85.5557 27.767C85.5792 27.635 85.6026 27.5151 85.6261 27.3831C85.72 26.8793 85.7669 26.3754 85.8842 25.8716C85.9554 25.6317 86.0493 25.3917 86.1666 25.1638C86.3308 24.8759 86.0727 24.576 85.5792 24.4201C85.0622 24.2641 84.4521 24.3241 84.0289 24.528C82.0328 25.4637 80.1775 26.4714 78.298 27.4671C76.6069 28.3668 74.8924 29.2785 72.9667 30.0461C72.0743 30.3941 71.1349 30.7061 70.1251 30.9342C69.5846 31.0421 69.0215 31.126 68.4575 31.1739C68.3637 31.1739 68.2698 31.1859 68.1525 31.1859C72.4974 26.2195 76.6312 21.2171 81.07 16.2746C81.6801 15.5908 82.3144 14.8951 82.9487 14.2113C88.3504 10.0366 93.0716 5.59798 96.876 0.99141L96.9472 0.907434C96.9707 0.847468 96.9707 0.775477 96.9472 0.715512C96.8995 0.631536 96.7822 0.54756 96.6179 0.49958C96.5006 0.463584 96.3833 0.451599 96.2659 0.451599C96.1017 0.49958 95.8662 0.559545 95.7254 0.679517ZM26.3222 17.2463C25.7348 18.4579 24.9362 19.6455 23.9968 20.7972C21.9303 23.2924 19.2529 25.6437 16.4105 27.923C13.7332 30.0824 10.8916 32.1934 8.12034 34.3408C7.74412 34.461 7.39214 34.5809 7.01592 34.7007C7.27482 34.3767 7.53293 34.0531 7.81451 33.7291C7.79104 33.7531 7.76758 33.7771 7.76758 33.801C9.97564 31.1379 12.3949 28.5348 14.7195 25.9076C15.7066 24.7919 16.6929 23.6763 17.6323 22.5606C18.6186 21.7809 19.6753 21.0131 20.7797 20.2814C22.3996 19.1777 24.2087 18.122 26.3222 17.2463ZM24.0437 20.7492C24.0437 20.7612 24.0202 20.7732 24.0202 20.7852C24.0202 20.7732 24.0202 20.7612 24.0437 20.7492ZM61.5526 25.1878C61.5526 25.1998 61.5525 25.2238 61.5291 25.2358C61.5525 25.2238 61.5526 25.2118 61.5526 25.1878ZM55.2811 25.2958C55.2811 25.3078 55.2811 25.3198 55.2577 25.3438C55.2811 25.3198 55.2811 25.3078 55.2811 25.2958ZM40.5318 26.7113C40.5318 26.7353 40.5318 26.7593 40.5083 26.7833C40.5083 26.7593 40.5318 26.7353 40.5318 26.7113ZM58.6867 29.3265C59.2272 29.7344 59.7911 30.1184 60.4247 30.5023C61.1998 30.9701 62.0688 31.378 63.0316 31.7496C63.7364 32.0137 64.535 32.2298 65.357 32.3736C65.2162 32.5414 65.052 32.7096 64.9112 32.8774C62.5623 35.4686 60.1196 38.0478 57.5361 40.579C55.3046 42.7623 52.9565 44.9217 50.373 47.0091C50.2549 46.6731 50.1611 46.3491 50.0672 46.0131C49.551 43.998 49.6683 41.9585 50.1845 39.955C50.7719 37.7597 51.8521 35.5884 53.5197 33.5494C54.5295 32.3616 55.7512 31.2099 57.278 30.1663C57.7004 29.8663 58.1705 29.5904 58.6867 29.3265ZM53.4493 33.6093C53.4493 33.6213 53.4258 33.6332 53.4258 33.6452C53.4258 33.6332 53.4258 33.6213 53.4493 33.6093ZM15.8943 21.5889C15.9178 21.565 15.9412 21.5409 15.9412 21.517C15.9178 21.5409 15.8943 21.565 15.8943 21.5889ZM74.9401 18.8298L74.9636 18.8178C74.9871 18.8058 74.9871 18.8058 74.9871 18.7938C74.9871 18.8058 74.9636 18.8178 74.9401 18.8298Z" fill="#0B2034"/>
</svg>
