<svg width="60" height="60" viewBox="0 0 60 60" fill="none" xmlns="http://www.w3.org/2000/svg">
<rect width="60" height="60" rx="12" fill="url(#paint0_linear_2569_13587)"/>
<g clip-path="url(#clip0_2569_13587)">
<path d="M34.2198 25.9241H35.875V29.8654H34.2198V25.9241ZM34.2198 32.131H35.875V36.0723H34.2198V32.131ZM23.875 21.7861H25.5302V25.7275H23.875V21.7861ZM23.875 28.0654H25.5302V31.9448H23.875V28.0654Z" fill="white"/>
<path d="M46.2207 26.2757H44.4827V38.0171L35.8758 40.7067V38.3378H34.2207V40.4067L25.531 35.9481V34.1998H23.8758V35.9792L15.5172 39.424V20.4723L23.8758 17.0274V19.4585H25.531V17.0378L31.3965 20.0378L32.431 18.2171L25.2931 14.5964C25.1569 14.5334 25.0087 14.5007 24.8586 14.5007C24.7085 14.5007 24.5603 14.5334 24.4241 14.5964L14.0896 18.8274C13.8991 18.9057 13.7363 19.0391 13.622 19.2105C13.5077 19.3819 13.4472 19.5835 13.4483 19.7895V40.9757C13.4491 41.1451 13.4915 41.3118 13.5719 41.461C13.6522 41.6101 13.7679 41.7373 13.9089 41.8313C14.0499 41.9253 14.2118 41.9832 14.3804 42C14.549 42.0167 14.7191 41.9918 14.8758 41.9274L24.8276 37.7895L34.7483 42.8792C34.8955 42.9546 35.0587 42.9936 35.2241 42.9929C35.3265 43.0136 35.432 43.0136 35.5345 42.9929L45.8793 39.7654C46.0973 39.6971 46.2865 39.5586 46.4175 39.3714C46.5485 39.1843 46.6139 38.9591 46.6034 38.7309V26.255L46.2207 26.2757Z" fill="white"/>
<path d="M39.1548 11.524L33.2376 21.7757C33.1103 21.9764 33.0398 22.2079 33.0336 22.4455C33.0275 22.6831 33.0859 22.9179 33.2027 23.125C33.3195 23.332 33.4902 23.5034 33.6968 23.6211C33.9033 23.7387 34.1379 23.7981 34.3755 23.7929H46.2204C46.4517 23.7935 46.6792 23.7329 46.8796 23.6174C47.0801 23.5018 47.2465 23.3353 47.362 23.1348C47.4775 22.9343 47.5379 22.7068 47.5373 22.4755C47.5366 22.2441 47.4749 22.0169 47.3583 21.8171L41.441 11.524C41.3243 11.3244 41.1574 11.1588 40.9569 11.0438C40.7563 10.9287 40.5291 10.8682 40.2979 10.8682C40.0667 10.8682 39.8395 10.9287 39.639 11.0438C39.4385 11.1588 39.2715 11.3244 39.1548 11.524Z" fill="white"/>
</g>
<defs>
<linearGradient id="paint0_linear_2569_13587" x1="55.9091" y1="-2.89002e-06" x2="6.13636" y2="54.5455" gradientUnits="userSpaceOnUse">
<stop stop-color="#4B93FF"/>
<stop offset="1" stop-color="#7FB2FF"/>
</linearGradient>
<clipPath id="clip0_2569_13587">
<rect width="37.2414" height="37.2414" fill="white" transform="translate(11.3789 10.3447)"/>
</clipPath>
</defs>
</svg>
