<svg width="32" height="32" viewBox="0 0 32 32" fill="none" xmlns="http://www.w3.org/2000/svg">
<path fill-rule="evenodd" clip-rule="evenodd" d="M5.33333 7C4.04467 7 3 8.04467 3 9.33333V18.6667C3 19.9553 4.04467 21 5.33333 21H7.01495C7.00505 21.1098 7 21.221 7 21.3333C7 23.3584 8.64162 25 10.6667 25C12.6917 25 14.3333 23.3584 14.3333 21.3333C14.3333 21.221 14.3283 21.1098 14.3184 21H18.6667C18.7859 21 18.903 20.9911 19.0174 20.9738C19.0059 21.0921 19 21.212 19 21.3333C19 23.3584 20.6416 25 22.6667 25C24.6917 25 26.3333 23.3584 26.3333 21.3333C26.3333 21.221 26.3283 21.1098 26.3184 21H28C28.5523 21 29 20.5523 29 20V16C29 15.6443 28.8111 15.3154 28.5039 15.1362L26.5034 13.9693L25.4906 11.6061C25.333 11.2384 24.9715 11 24.5714 11H21V9.33333C21 8.04467 19.9553 7 18.6667 7H5.33333ZM21 13V18.0665C21.5 17.8109 22.0665 17.6667 22.6667 17.6667C23.8053 17.6667 24.8227 18.1857 25.4952 19H27V16.5744L25.2104 15.5304C25.0252 15.4224 24.8796 15.2577 24.7951 15.0606L23.912 13H21ZM19 18.6667V12V9.33333C19 9.14924 18.8508 9 18.6667 9H5.33333C5.14924 9 5 9.14924 5 9.33333V18.6667C5 18.8508 5.14924 19 5.33333 19H7.83811C8.51064 18.1857 9.52805 17.6667 10.6667 17.6667C11.8053 17.6667 12.8227 18.1857 13.4952 19H18.6667C18.8508 19 19 18.8508 19 18.6667ZM9 21.3333C9 20.4129 9.74619 19.6667 10.6667 19.6667C11.5871 19.6667 12.3333 20.4129 12.3333 21.3333C12.3333 22.2538 11.5871 23 10.6667 23C9.74619 23 9 22.2538 9 21.3333ZM22.6667 19.6667C21.7462 19.6667 21 20.4129 21 21.3333C21 22.2538 21.7462 23 22.6667 23C23.5871 23 24.3333 22.2538 24.3333 21.3333C24.3333 20.4129 23.5871 19.6667 22.6667 19.6667Z" fill="white"/>
</svg>
