<svg width="60" height="60" viewBox="0 0 60 60" fill="none" xmlns="http://www.w3.org/2000/svg">
<rect width="60" height="60" rx="12" fill="url(#paint0_linear_2569_20392)"/>
<g clip-path="url(#clip0_2569_20392)">
<path d="M33.8409 26.5793H35.4961V30.5207H33.8409V26.5793ZM33.8409 32.7862H35.4961V36.7276H33.8409V32.7862ZM23.4961 22.4414H25.1513V26.3828H23.4961V22.4414ZM23.4961 28.7207H25.1513V32.6H23.4961V28.7207Z" fill="white"/>
<path d="M45.8418 26.931H44.1038V38.6724L35.4969 41.362V38.993H33.8418V41.062L25.1521 36.6034V34.8551H23.4969V36.6344L15.1383 40.0793V21.1275L23.4969 17.6827V20.1137H25.1521V17.693L31.0176 20.693L32.0521 18.8724L24.9142 15.2517C24.778 15.1886 24.6297 15.156 24.4797 15.156C24.3296 15.156 24.1814 15.1886 24.0452 15.2517L13.7107 19.4827C13.5202 19.561 13.3573 19.6944 13.2431 19.8658C13.1288 20.0372 13.0683 20.2388 13.0693 20.4448V41.631C13.0702 41.8004 13.1126 41.967 13.193 42.1162C13.2733 42.2654 13.389 42.3926 13.53 42.4866C13.671 42.5806 13.8329 42.6385 14.0015 42.6552C14.1701 42.672 14.3402 42.6471 14.4969 42.5827L24.4487 38.4448L34.3693 43.5344C34.5166 43.6099 34.6798 43.6489 34.8452 43.6482C34.9476 43.6688 35.0531 43.6688 35.1556 43.6482L45.5004 40.4206C45.7184 40.3523 45.9076 40.2138 46.0386 40.0267C46.1696 39.8396 46.235 39.6143 46.2245 39.3862V26.9103L45.8418 26.931Z" fill="white"/>
<path d="M38.7759 12.1793L32.8587 22.431C32.7314 22.6317 32.6609 22.8632 32.6547 23.1008C32.6486 23.3384 32.707 23.5732 32.8238 23.7802C32.9406 23.9872 33.1113 24.1587 33.3179 24.2763C33.5244 24.394 33.759 24.4534 33.9966 24.4482H45.8414C46.0728 24.4488 46.3003 24.3882 46.5007 24.2726C46.7012 24.1571 46.8676 23.9906 46.9831 23.7901C47.0986 23.5896 47.159 23.3621 47.1584 23.1307C47.1577 22.8993 47.096 22.6722 46.9794 22.4724L41.0621 12.1793C40.9454 11.9797 40.7785 11.8141 40.578 11.699C40.3774 11.584 40.1502 11.5234 39.919 11.5234C39.6878 11.5234 39.4606 11.584 39.2601 11.699C39.0595 11.8141 38.8926 11.9797 38.7759 12.1793Z" fill="white"/>
</g>
<defs>
<linearGradient id="paint0_linear_2569_20392" x1="55.9091" y1="-2.89002e-06" x2="6.13636" y2="54.5455" gradientUnits="userSpaceOnUse">
<stop stop-color="#DA45FF"/>
<stop offset="1" stop-color="#E579FF"/>
</linearGradient>
<clipPath id="clip0_2569_20392">
<rect width="37.2414" height="37.2414" fill="white" transform="translate(11 11)"/>
</clipPath>
</defs>
</svg>
