<svg width="32" height="32" viewBox="0 0 32 32" fill="none" xmlns="http://www.w3.org/2000/svg">
<path fill-rule="evenodd" clip-rule="evenodd" d="M19.0442 4.79884C17.7254 2.39731 14.2751 2.39731 12.9563 4.79884C12.6007 5.44626 11.8206 5.73019 11.1321 5.46277C8.57817 4.47082 5.93507 6.68864 6.46846 9.37604C6.61226 10.1005 6.19718 10.8195 5.49785 11.0572C2.9038 11.939 2.30466 15.3369 4.44069 17.0527C5.01654 17.5152 5.16069 18.3328 4.77778 18.9644C3.3574 21.3073 5.08257 24.2954 7.82176 24.2367C8.56021 24.2209 9.19616 24.7545 9.30882 25.4845C9.72674 28.1923 12.969 29.3724 15.0296 27.5667C15.5852 27.08 16.4153 27.08 16.9709 27.5667C19.0315 29.3724 22.2738 28.1923 22.6917 25.4845C22.8043 24.7545 23.4403 24.2209 24.1787 24.2367C26.9179 24.2954 28.6431 21.3073 27.2227 18.9644C26.8398 18.3328 26.984 17.5152 27.5598 17.0527C29.6959 15.3369 29.0967 11.939 26.5027 11.0572C25.8033 10.8195 25.3882 10.1005 25.532 9.37604C26.0654 6.68864 23.4223 4.47082 20.8684 5.46277C20.1799 5.73019 19.3998 5.44626 19.0442 4.79884ZM14.7093 5.76154C15.2686 4.74307 16.7319 4.74307 17.2912 5.76154C18.1295 7.28815 19.969 7.95766 21.5925 7.32709C22.6756 6.90641 23.7965 7.84697 23.5703 8.98668C23.2312 10.695 24.21 12.3903 25.859 12.9508C26.9591 13.3247 27.2132 14.7658 26.3073 15.4934C24.9495 16.5841 24.6096 18.5119 25.5125 20.0012C26.1148 20.9948 25.3832 22.2621 24.2215 22.2372C22.4803 22.1999 20.9807 23.4582 20.7151 25.1795C20.5379 26.3278 19.1628 26.8283 18.2889 26.0625C16.979 24.9147 15.0215 24.9147 13.7116 26.0625C12.8377 26.8283 11.4627 26.3278 11.2854 25.1795C11.0198 23.4582 9.52022 22.1999 7.77896 22.2372C6.61729 22.2621 5.88566 20.9948 6.48803 20.0012C7.39094 18.5119 7.05102 16.5841 5.69318 15.4934C4.78731 14.7658 5.0414 13.3247 6.14152 12.9508C7.79051 12.3903 8.76927 10.695 8.4302 8.98668C8.20399 7.84697 9.32491 6.90641 10.408 7.32709C12.0315 7.95766 13.871 7.28815 14.7093 5.76154ZM18.1316 10.3249C17.3094 8.48045 14.6914 8.48046 13.8692 10.3249L13.19 11.8485C13.1416 11.9572 13.0389 12.0318 12.9206 12.0443L11.2617 12.2194C9.2534 12.4314 8.44438 14.9213 9.94451 16.2732L11.1837 17.3899C11.2721 17.4696 11.3113 17.5903 11.2866 17.7067L10.9405 19.3385C10.5215 21.314 12.6395 22.8528 14.3888 21.8439L15.8338 21.0105C15.9369 20.951 16.0639 20.951 16.1669 21.0105L17.6119 21.8439C19.3612 22.8528 21.4793 21.314 21.0603 19.3385L20.7142 17.7067C20.6895 17.5903 20.7287 17.4696 20.8171 17.3899L22.0563 16.2732C23.5564 14.9213 22.7474 12.4314 20.7391 12.2194L19.0802 12.0443C18.9619 12.0318 18.8592 11.9572 18.8107 11.8485L18.1316 10.3249ZM15.6959 11.1392C15.8134 10.8757 16.1874 10.8757 16.3048 11.1392L16.984 12.6628C17.3231 13.4235 18.042 13.9459 18.8703 14.0333L20.5292 14.2084C20.8161 14.2386 20.9317 14.5943 20.7173 14.7875L19.4782 15.9042C18.8595 16.4618 18.5849 17.3069 18.7577 18.1217L19.1038 19.7535C19.1637 20.0357 18.8611 20.2555 18.6112 20.1114L17.1662 19.278C16.4447 18.8618 15.5561 18.8618 14.8346 19.278L13.3896 20.1114C13.1397 20.2555 12.8371 20.0357 12.897 19.7535L13.2431 18.1217C13.4159 17.3069 13.1413 16.4618 12.5226 15.9042L11.2834 14.7875C11.0691 14.5943 11.1847 14.2386 11.4716 14.2084L13.1305 14.0333C13.9588 13.9459 14.6777 13.4235 15.0168 12.6628L15.6959 11.1392Z" fill="white"/>
</svg>
