<svg width="60" height="60" viewBox="0 0 60 60" fill="none" xmlns="http://www.w3.org/2000/svg">
<rect width="60" height="60" rx="12" fill="url(#paint0_linear_2569_10786)"/>
<path fill-rule="evenodd" clip-rule="evenodd" d="M13.9229 17.5646C13.9229 14.8032 16.1614 12.5646 18.9229 12.5646H38.9609C41.7224 12.5646 43.9609 14.8032 43.9609 17.5646V41.8885C43.9609 43.9673 41.4476 45.0083 39.9777 43.5384L39.522 43.0827C39.4096 42.9703 39.2336 42.9529 39.1014 43.041L35.6632 45.3332C34.7378 45.9501 33.5055 45.8281 32.719 45.0416L29.1776 41.5002C29.0474 41.37 28.8364 41.37 28.7062 41.5002L25.1648 45.0416C24.3783 45.8281 23.146 45.9501 22.2206 45.3332L18.7824 43.041C18.6502 42.9529 18.4742 42.9703 18.3618 43.0827L17.9061 43.5384C16.4362 45.0083 13.9229 43.9673 13.9229 41.8885V17.5646ZM18.9229 14.5646C17.266 14.5646 15.9229 15.9077 15.9229 17.5646V41.8885C15.9229 42.1855 16.2819 42.3342 16.4919 42.1242L16.9476 41.6685C17.7341 40.882 18.9664 40.76 19.8918 41.3769L23.33 43.6691C23.4622 43.7572 23.6382 43.7398 23.7506 43.6274L27.292 40.086C28.2032 39.1748 29.6806 39.1748 30.5918 40.086L34.1332 43.6274C34.2456 43.7398 34.4216 43.7572 34.5538 43.6691L37.992 41.3769C38.9174 40.76 40.1497 40.882 40.9362 41.6685L41.3919 42.1242C41.6019 42.3342 41.9609 42.1855 41.9609 41.8885V17.5646C41.9609 15.9077 40.6178 14.5646 38.9609 14.5646H18.9229ZM26.1894 20.5741C26.1894 20.0218 26.6371 19.5741 27.1894 19.5741H35.9513C36.5036 19.5741 36.9513 20.0218 36.9513 20.5741C36.9513 21.1264 36.5036 21.5741 35.9513 21.5741H27.1894C26.6371 21.5741 26.1894 21.1264 26.1894 20.5741ZM27.1894 26.5836C26.6371 26.5836 26.1894 27.0313 26.1894 27.5836C26.1894 28.1359 26.6371 28.5836 27.1894 28.5836H35.9513C36.5036 28.5836 36.9513 28.1359 36.9513 27.5836C36.9513 27.0313 36.5036 26.5836 35.9513 26.5836H27.1894ZM26.1894 34.5931C26.1894 34.0409 26.6371 33.5931 27.1894 33.5931H35.9513C36.5036 33.5931 36.9513 34.0409 36.9513 34.5931C36.9513 35.1454 36.5036 35.5931 35.9513 35.5931H27.1894C26.6371 35.5931 26.1894 35.1454 26.1894 34.5931ZM21.9324 18.8217C22.9002 18.8217 23.6848 19.6063 23.6848 20.5741C23.6848 21.5419 22.9002 22.3265 21.9324 22.3265C20.9646 22.3265 20.18 21.5419 20.18 20.5741C20.18 19.6063 20.9646 18.8217 21.9324 18.8217ZM23.6848 27.5836C23.6848 26.6158 22.9002 25.8312 21.9324 25.8312C20.9646 25.8312 20.18 26.6158 20.18 27.5836C20.18 28.5514 20.9646 29.336 21.9324 29.336C22.9002 29.336 23.6848 28.5514 23.6848 27.5836ZM21.9324 32.8408C22.9002 32.8408 23.6848 33.6253 23.6848 34.5932C23.6848 35.561 22.9002 36.3455 21.9324 36.3455C20.9646 36.3455 20.18 35.561 20.18 34.5932C20.18 33.6253 20.9646 32.8408 21.9324 32.8408Z" fill="white"/>
<defs>
<linearGradient id="paint0_linear_2569_10786" x1="55.9091" y1="-2.89002e-06" x2="6.13636" y2="54.5455" gradientUnits="userSpaceOnUse">
<stop stop-color="#FF447C"/>
<stop offset="1" stop-color="#FF77A0"/>
</linearGradient>
</defs>
</svg>
