<svg width="32" height="32" viewBox="0 0 32 32" fill="none" xmlns="http://www.w3.org/2000/svg">
<path fill-rule="evenodd" clip-rule="evenodd" d="M12.9996 9.33334C12.9996 7.67648 14.3427 6.33334 15.9996 6.33334C17.6564 6.33334 18.9996 7.67648 18.9996 9.33334C18.9996 10.9902 17.6564 12.3333 15.9996 12.3333C14.3427 12.3333 12.9996 10.9902 12.9996 9.33334ZM15.9996 4.33334C13.2382 4.33334 10.9996 6.57191 10.9996 9.33334C10.9996 12.0948 13.2382 14.3333 15.9996 14.3333C18.761 14.3333 20.9996 12.0948 20.9996 9.33334C20.9996 6.57191 18.761 4.33334 15.9996 4.33334ZM6.40753 25.4595C7.00096 20.6909 11.07 17 15.9997 17C20.9293 17 24.9984 20.6909 25.5918 25.4595C25.5974 25.5043 25.5865 25.5422 25.5481 25.5822C25.5044 25.6275 25.4291 25.6667 25.333 25.6667H6.66632C6.57023 25.6667 6.49492 25.6275 6.45126 25.5822C6.41283 25.5422 6.40196 25.5043 6.40753 25.4595ZM15.9997 15C10.0485 15 5.13932 19.455 4.42284 25.2125C4.2473 26.6231 5.41568 27.6667 6.66632 27.6667H25.333C26.5836 27.6667 27.752 26.6231 27.5765 25.2125C26.86 19.455 21.9508 15 15.9997 15Z" fill="white"/>
</svg>
