<svg width="32" height="32" viewBox="0 0 32 32" fill="none" xmlns="http://www.w3.org/2000/svg">
<g clip-path="url(#clip0_1666_15837)">
<path fill-rule="evenodd" clip-rule="evenodd" d="M4.33301 8C4.33301 5.23858 6.57158 3 9.33301 3H22.6663C25.4278 3 27.6663 5.23858 27.6663 8V25.1847C27.6663 27.1146 25.3331 28.081 23.9685 26.7164C23.9126 26.6604 23.8248 26.6517 23.7589 26.6957L21.4639 28.2257C20.5384 28.8427 19.3061 28.7207 18.5196 27.9342L16.2354 25.6499C16.1052 25.5197 15.8941 25.5197 15.764 25.6499L13.4797 27.9342C12.6932 28.7207 11.4609 28.8427 10.5355 28.2257L8.2404 26.6957C8.17452 26.6517 8.08679 26.6604 8.0308 26.7164C6.66622 28.081 4.33301 27.1146 4.33301 25.1848V8ZM9.33301 5C7.67615 5 6.33301 6.34315 6.33301 8V25.1848C6.33301 25.2358 6.34635 25.2624 6.35817 25.2791C6.3732 25.3005 6.3991 25.3231 6.43555 25.3382C6.472 25.3533 6.50635 25.3556 6.53204 25.3512C6.55227 25.3477 6.58047 25.3383 6.61658 25.3022C7.3467 24.5721 8.49067 24.4588 9.3498 25.0316L11.6449 26.5616C11.7771 26.6498 11.9531 26.6323 12.0655 26.52L14.3498 24.2357C15.261 23.3245 16.7384 23.3245 17.6496 24.2357L19.9339 26.52C20.0462 26.6323 20.2223 26.6498 20.3545 26.5616L22.6495 25.0316C23.5087 24.4588 24.6526 24.5721 25.3828 25.3022C25.4189 25.3383 25.4471 25.3477 25.4673 25.3512C25.493 25.3556 25.5273 25.3533 25.5638 25.3382C25.6002 25.3231 25.6262 25.3005 25.6412 25.2791C25.653 25.2624 25.6663 25.2358 25.6663 25.1847V8C25.6663 6.34315 24.3232 5 22.6663 5H9.33301ZM13.6662 9.33334C13.6662 8.78105 14.1139 8.33334 14.6662 8.33334H21.3329C21.8852 8.33334 22.3329 8.78105 22.3329 9.33334C22.3329 9.88562 21.8852 10.3333 21.3329 10.3333H14.6662C14.1139 10.3333 13.6662 9.88562 13.6662 9.33334ZM14.6662 13.6667C14.1139 13.6667 13.6662 14.1144 13.6662 14.6667C13.6662 15.2189 14.1139 15.6667 14.6662 15.6667H21.3329C21.8852 15.6667 22.3329 15.2189 22.3329 14.6667C22.3329 14.1144 21.8852 13.6667 21.3329 13.6667H14.6662ZM13.6662 20C13.6662 19.4477 14.1139 19 14.6662 19H21.3329C21.8852 19 22.3329 19.4477 22.3329 20C22.3329 20.5523 21.8852 21 21.3329 21H14.6662C14.1139 21 13.6662 20.5523 13.6662 20ZM10.6663 8C11.4027 8 11.9997 8.59695 11.9997 9.33333C11.9997 10.0697 11.4027 10.6667 10.6663 10.6667C9.92996 10.6667 9.33301 10.0697 9.33301 9.33333C9.33301 8.59695 9.92996 8 10.6663 8ZM11.9997 14.6667C11.9997 13.9303 11.4027 13.3333 10.6663 13.3333C9.92996 13.3333 9.33301 13.9303 9.33301 14.6667C9.33301 15.403 9.92996 16 10.6663 16C11.4027 16 11.9997 15.403 11.9997 14.6667ZM10.6663 18.6667C11.4027 18.6667 11.9997 19.2636 11.9997 20C11.9997 20.7364 11.4027 21.3333 10.6663 21.3333C9.92996 21.3333 9.33301 20.7364 9.33301 20C9.33301 19.2636 9.92996 18.6667 10.6663 18.6667Z" fill="white"/>
</g>
<defs>
<clipPath id="clip0_1666_15837">
<rect width="32" height="32" fill="white"/>
</clipPath>
</defs>
</svg>
