<svg width="60" height="60" viewBox="0 0 60 60" fill="none" xmlns="http://www.w3.org/2000/svg">
<rect width="60" height="60" rx="12" fill="url(#paint0_linear_2569_19182)"/>
<g clip-path="url(#clip0_2569_19182)">
<path d="M34.2198 23.8552H35.875V27.7966H34.2198V23.8552ZM34.2198 30.0621H35.875V34.0035H34.2198V30.0621ZM23.875 19.7173H25.5302V23.6587H23.875V19.7173ZM23.875 25.9966H25.5302V29.8759H23.875V25.9966Z" fill="white"/>
<path d="M46.2207 24.2069H44.4827V35.9482L35.8758 38.6379V36.2689H34.2207V38.3379L25.531 33.8793V32.131H23.8758V33.9103L15.5172 37.3551V18.4034L23.8758 14.9586V17.3896H25.531V14.9689L31.3965 17.9689L32.431 16.1482L25.2931 12.5275C25.1569 12.4645 25.0087 12.4319 24.8586 12.4319C24.7085 12.4319 24.5603 12.4645 24.4241 12.5275L14.0896 16.7586C13.8991 16.8369 13.7363 16.9702 13.622 17.1416C13.5077 17.313 13.4472 17.5147 13.4483 17.7207V38.9069C13.4491 39.0763 13.4915 39.2429 13.5719 39.3921C13.6522 39.5413 13.7679 39.6685 13.9089 39.7624C14.0499 39.8564 14.2118 39.9144 14.3804 39.9311C14.549 39.9479 14.7191 39.923 14.8758 39.8586L24.8276 35.7207L34.7483 40.8103C34.8955 40.8857 35.0587 40.9248 35.2241 40.9241C35.3265 40.9447 35.432 40.9447 35.5345 40.9241L45.8793 37.6965C46.0973 37.6282 46.2865 37.4897 46.4175 37.3026C46.5485 37.1154 46.6139 36.8902 46.6034 36.662V24.1862L46.2207 24.2069Z" fill="white"/>
<path d="M39.1548 9.45513L33.2376 19.7069C33.1103 19.9076 33.0398 20.1391 33.0336 20.3767C33.0275 20.6143 33.0859 20.8491 33.2027 21.0561C33.3195 21.2631 33.4902 21.4346 33.6968 21.5522C33.9033 21.6699 34.1379 21.7293 34.3755 21.7241H46.2204C46.4517 21.7247 46.6792 21.6641 46.8796 21.5485C47.0801 21.433 47.2465 21.2665 47.362 21.066C47.4775 20.8655 47.5379 20.638 47.5373 20.4066C47.5366 20.1752 47.4749 19.9481 47.3583 19.7482L41.441 9.45513C41.3243 9.25553 41.1574 9.08997 40.9569 8.97491C40.7563 8.85986 40.5291 8.79932 40.2979 8.79932C40.0667 8.79932 39.8395 8.85986 39.639 8.97491C39.4385 9.08997 39.2715 9.25553 39.1548 9.45513Z" fill="white"/>
</g>
<defs>
<linearGradient id="paint0_linear_2569_19182" x1="55.9091" y1="-2.89002e-06" x2="6.13636" y2="54.5455" gradientUnits="userSpaceOnUse">
<stop stop-color="#844AFF"/>
<stop offset="1" stop-color="#A57BFF"/>
</linearGradient>
<clipPath id="clip0_2569_19182">
<rect width="37.2414" height="37.2414" fill="white" transform="translate(11.3789 8.27588)"/>
</clipPath>
</defs>
</svg>
