<svg width="243" height="45" viewBox="0 0 243 45" fill="none" xmlns="http://www.w3.org/2000/svg">
<g clip-path="url(#clip0_2480_24509)">
<path d="M81.0837 20.4924C81.7814 21.5835 82.1302 22.8267 82.1302 24.222C82.1302 24.7676 82.0483 25.3014 81.8845 25.8247C81.7208 26.3479 81.4868 26.8116 81.1816 27.2146C80.8753 27.6188 80.4999 27.9453 80.0532 28.1962C79.6055 28.4472 79.0886 28.5834 78.4995 28.6057H78.3687C77.8018 28.628 77.2126 28.4908 76.6022 28.1962C75.9918 27.9017 75.326 27.4709 74.6071 26.9041L73.7563 26.2501C73.6255 26.6212 73.4011 27.0902 73.0853 27.6571C72.7694 28.2239 72.3706 28.7748 71.891 29.3086C71.4113 29.8436 70.8658 30.3009 70.2553 30.6827C69.6449 31.0645 69.0015 31.2548 68.3251 31.2548C67.7583 31.2548 67.2074 31.1517 66.6735 30.9443C66.1386 30.7369 65.6643 30.5083 65.2506 30.2573C64.8358 30.0074 64.4923 29.767 64.22 29.5373C63.9467 29.3086 63.7893 29.1725 63.7457 29.1279L65.676 26.0852C65.7632 26.1724 65.9046 26.2873 66.1014 26.4287C66.2981 26.5712 66.5268 26.7127 66.7884 26.8541C67.05 26.9966 67.3169 27.1211 67.5902 27.2306C67.8625 27.3401 68.1081 27.3944 68.3262 27.3944C68.457 27.3944 68.6048 27.3678 68.7675 27.3125C68.9313 27.2582 69.0887 27.171 69.2418 27.0509C69.3939 26.9318 69.5247 26.7733 69.6343 26.5766C69.7427 26.3798 69.798 26.1299 69.798 25.8236C69.798 24.122 69.312 22.8469 68.3421 21.9961C67.3712 21.1453 66.1343 20.6444 64.6295 20.4913H62.1431V17.3838H83.1129V20.4913H81.0848L81.0837 20.4924ZM71.5315 20.4924C71.8367 21.0815 72.109 21.7473 72.3493 22.4875C73.5702 22.597 75.0314 23.284 76.733 24.5485C77.2999 24.9845 77.7582 25.2025 78.107 25.2025C78.6303 25.2025 78.8919 24.6899 78.8919 23.6647C78.8919 23.1628 78.777 22.7161 78.5484 22.3237C78.3197 21.9313 78.0305 21.5984 77.6816 21.3261C77.3328 21.0539 76.967 20.8465 76.5863 20.7051C76.2045 20.5636 75.8503 20.4924 75.5228 20.4924H71.5315Z" fill="#DF2327"/>
<path d="M80.7559 27.5911V29.75C82.8499 29.9903 84.3654 30.6114 85.3034 31.6143V20.4913H82.4575V17.3838H90.5049V20.4913H88.4109V41.5919H85.3034V35.8342C85.1067 35.4418 84.845 35.06 84.5186 34.6888C84.191 34.3187 83.8092 33.9912 83.3732 33.7072C82.9372 33.4243 82.4575 33.1946 81.9332 33.0202C81.41 32.8458 80.8538 32.7586 80.2646 32.7586C79.3054 32.7586 78.5205 32.8734 77.909 33.1021C77.2986 33.3307 76.8125 33.6147 76.4531 33.9529C76.0936 34.2911 75.8426 34.6558 75.7001 35.0493C75.5587 35.4418 75.4874 35.8129 75.4874 36.1617C75.4874 36.2713 75.5034 36.4457 75.5364 36.685C75.5693 36.9253 75.6565 37.1752 75.798 37.4379C75.9405 37.6995 76.1574 37.9399 76.452 38.1579C76.7466 38.3759 77.1443 38.528 77.6463 38.6163C77.6463 37.7006 77.9356 36.9423 78.5131 36.3425C79.0916 35.7427 79.7946 35.4428 80.623 35.4428C81.0378 35.4428 81.4249 35.5247 81.7843 35.6885C82.1438 35.8523 82.4554 36.0703 82.717 36.3425C82.9786 36.6159 83.186 36.9423 83.3381 37.3241C83.4902 37.7059 83.5667 38.1037 83.5667 38.5184C83.5667 39.6308 83.1743 40.454 82.3895 40.9878C81.6046 41.5217 80.5252 41.7897 79.1511 41.7897H78.8236C77.9292 41.7897 77.0784 41.6589 76.2723 41.3973C75.4662 41.1357 74.7621 40.7592 74.1623 40.2689C73.5625 39.7787 73.0829 39.1735 72.7224 38.4536C72.3619 37.7336 72.1821 36.9158 72.1821 36.0001C72.1821 32.9692 74.0039 30.9624 77.6452 29.9808V27.5922H80.7528L80.7559 27.5911Z" fill="#DF2327"/>
<path d="M89.8511 17.3848H97.1466V20.4923H95.0526V37.7324H91.9451V20.4923H89.8511V17.3848Z" fill="#DF2327"/>
<path d="M115.989 20.4923H101.726V34.9196C102.664 34.9196 103.689 34.8217 104.801 34.625C105.914 34.4282 106.95 34.0964 107.909 33.6274C108.868 33.1584 109.67 32.5427 110.314 31.7791C110.957 31.0155 111.278 30.0775 111.278 28.9651C111.278 28.4855 111.202 28.0707 111.049 27.7219C110.896 27.3731 110.701 27.0838 110.46 26.8552C110.22 26.6265 109.948 26.4574 109.642 26.3479C109.337 26.2394 109.032 26.1841 108.727 26.1841C108.531 26.1841 108.35 26.2064 108.187 26.25C108.023 26.2936 107.854 26.3479 107.679 26.4138C108.138 26.6542 108.508 26.9753 108.792 27.3784C109.075 27.7825 109.217 28.2451 109.217 28.7684C109.217 29.1608 109.135 29.516 108.971 29.8319C108.808 30.1488 108.595 30.4157 108.333 30.6337C108.072 30.8517 107.772 31.0208 107.434 31.141C107.095 31.2612 106.752 31.3207 106.403 31.3207C105.923 31.3207 105.498 31.2176 105.127 31.0102C104.756 30.8028 104.44 30.5359 104.178 30.2083C103.917 29.8808 103.72 29.5213 103.589 29.1289C103.458 28.7365 103.392 28.344 103.392 27.9516C103.392 27.188 103.551 26.501 103.867 25.8906C104.183 25.2801 104.603 24.7675 105.126 24.3528C105.649 23.9391 106.249 23.6222 106.925 23.4042C107.601 23.1861 108.299 23.0766 109.019 23.0766C109.739 23.0766 110.453 23.2297 111.096 23.535C111.74 23.8402 112.306 24.2603 112.798 24.7941C113.288 25.3291 113.675 25.9555 113.959 26.6754C114.242 27.3954 114.385 28.1696 114.385 28.9981C114.385 30.5253 114.019 31.8557 113.288 32.9893C112.557 34.1241 111.576 35.0621 110.344 35.8023C109.112 36.5435 107.694 37.0997 106.091 37.4709C104.489 37.841 102.815 38.0271 101.07 38.0271C100.459 38.0271 100.121 38.0154 100.055 37.9941L98.5833 37.8963V20.4923H96.4893V17.3848H111.407C111.407 16.8839 111.346 16.4086 111.227 15.9619C111.107 15.5152 110.905 15.1164 110.622 14.7676C110.338 14.4188 109.956 14.1465 109.477 13.9498C108.997 13.753 108.408 13.6552 107.71 13.6552C106.816 13.6552 106.031 13.753 105.354 13.9498C104.678 14.1465 104.111 14.3699 103.653 14.6208C103.195 14.8718 102.84 15.1111 102.589 15.3408C102.338 15.5695 102.202 15.7067 102.18 15.7503L99.8244 13.6892C99.8456 13.6456 100.037 13.4553 100.397 13.1171C100.756 12.7789 101.263 12.4194 101.917 12.0376C102.571 11.6558 103.384 11.307 104.355 10.9912C105.325 10.6753 106.453 10.5168 107.741 10.5168C108.723 10.5168 109.578 10.637 110.309 10.8763C111.04 11.1167 111.656 11.4272 112.158 11.809C112.658 12.1908 113.068 12.6268 113.385 13.1171C113.701 13.6073 113.941 14.1093 114.105 14.6219C114.269 15.1345 114.383 15.6311 114.448 16.1108C114.514 16.5904 114.546 17.0158 114.546 17.387H115.986V20.4945L115.989 20.4923Z" fill="#DF2327"/>
<path d="M110.166 16.0757L108.039 13.8179L114.614 7.79858L116.708 10.0883L110.166 16.0746V16.0757Z" fill="#DF2327"/>
<path d="M127.537 8.42071C128.539 7.91981 129.859 7.66882 131.495 7.66882C132.323 7.66882 133.196 7.74008 134.112 7.88152C135.028 8.02403 136.015 8.25799 137.073 8.58448C138.13 8.91204 139.265 9.34807 140.475 9.89257C141.685 10.4381 143.01 11.1145 144.45 11.9206L143.763 15.0941C142.236 14.2433 140.879 13.5297 139.69 12.9512C138.501 12.3737 137.438 11.9153 136.501 11.5771C135.563 11.2389 134.723 10.9997 133.981 10.8572C133.24 10.7157 132.564 10.6445 131.953 10.6445C130.862 10.6445 129.958 10.8135 129.238 11.1517C128.518 11.4899 127.941 11.8824 127.505 12.329C127.069 12.7767 126.753 13.2287 126.556 13.6871C126.359 14.1454 126.228 14.4943 126.164 14.7336L127.44 17.3838H130.122V20.4913H128.028V37.7314H124.952V20.4923H122.858V17.3848H123.971L122.663 14.9314C122.729 14.6697 122.832 14.272 122.973 13.7371C123.116 13.2032 123.36 12.614 123.709 11.9706C124.058 11.3272 124.538 10.6891 125.149 10.0563C125.759 9.42357 126.556 8.87907 127.538 8.42071H127.537Z" fill="#0A9748"/>
<path d="M129.467 17.3849H150.306V20.4924H148.212V37.7325H145.071V31.9089C144.918 31.4728 144.679 31.0368 144.351 30.6008C144.024 30.1648 143.626 29.7776 143.157 29.4395C142.688 29.1013 142.159 28.8237 141.57 28.6057C140.981 28.3877 140.36 28.2781 139.706 28.2781C139.553 28.2781 139.4 28.2834 139.248 28.2941C139.094 28.3058 138.942 28.3217 138.789 28.343C137.764 28.5174 136.979 28.7524 136.434 29.046C135.888 29.3405 135.485 29.6511 135.223 29.9786C134.962 30.3062 134.809 30.622 134.765 30.9273C134.721 31.2325 134.699 31.4835 134.699 31.6802C134.699 32.2694 134.863 32.7756 135.189 33.201C135.516 33.6264 136.007 33.9369 136.661 34.1337C136.574 33.8944 136.53 33.6211 136.53 33.3159C136.53 32.9022 136.612 32.5034 136.776 32.1216C136.94 31.7398 137.157 31.4133 137.43 31.14C137.702 30.8677 138.03 30.6497 138.412 30.4859C138.793 30.3221 139.202 30.2403 139.639 30.2403C140.119 30.2403 140.555 30.3445 140.947 30.5508C141.339 30.7582 141.672 31.0304 141.945 31.3686C142.217 31.7068 142.424 32.0886 142.566 32.514C142.707 32.9394 142.778 33.3807 142.778 33.8391C142.778 34.5378 142.636 35.1259 142.353 35.6055C142.069 36.0852 141.692 36.4723 141.225 36.7669C140.756 37.0615 140.227 37.2741 139.638 37.405C139.049 37.5358 138.449 37.6017 137.838 37.6017C136.9 37.6017 136.044 37.4432 135.27 37.1274C134.496 36.8115 133.835 36.3808 133.291 35.8353C132.745 35.2907 132.32 34.658 132.015 33.938C131.708 33.218 131.556 32.4661 131.556 31.6802C131.578 31.2006 131.665 30.6284 131.818 29.9627C131.97 29.298 132.281 28.6429 132.751 27.9995C133.22 27.3561 133.89 26.768 134.763 26.233C135.635 25.6992 136.812 25.3227 138.296 25.1047C138.186 24.2762 137.936 23.5839 137.543 23.0277C137.149 22.4715 136.725 22.0195 136.267 21.6696C135.808 21.3208 135.362 21.0539 134.926 20.8678C134.489 20.6827 134.173 20.5572 133.977 20.4913H129.462V17.3838L129.467 17.3849ZM145.071 26.8063V20.4924H139.542C140.61 21.6484 141.244 23.1968 141.439 25.1377C142.813 25.4429 144.024 25.9991 145.07 26.8063H145.071Z" fill="#0A9748"/>
<path d="M167.252 12.8044C168.08 14.2008 168.495 15.5854 168.495 16.9595V17.3849H171.407V20.4924H161.396V26.4468C162.247 26.0544 163.048 25.4929 163.801 24.7622C164.553 24.0316 165.18 23.3287 165.682 22.6523L169.411 22.9798C169.52 23.5467 169.612 24.2231 169.689 25.0079C169.766 25.7928 169.804 26.6872 169.804 27.69C169.804 28.6929 169.673 29.8159 169.411 30.9283C169.15 32.0407 168.702 33.0606 168.07 33.9869C167.438 34.9143 166.576 35.6715 165.486 36.2606C164.395 36.8498 163.033 37.1444 161.397 37.1444C159.849 37.1444 158.447 36.8339 157.193 36.2117C155.938 35.5907 154.87 34.7122 153.987 33.5785C153.103 32.4449 152.421 31.0921 151.942 29.5224C151.462 27.9516 151.222 26.2299 151.222 24.3539C151.222 24.2231 151.227 24.0923 151.238 23.9614C151.248 23.8306 151.254 23.6892 151.254 23.536L154.361 23.6669C154.361 23.82 154.356 23.9668 154.345 24.1082C154.333 24.2507 154.329 24.3975 154.329 24.5496C154.329 25.9459 154.488 27.2274 154.803 28.393C155.119 29.5596 155.578 30.5582 156.177 31.3867C156.777 32.2162 157.508 32.8649 158.369 33.3329C159.231 33.8019 160.206 34.0358 161.297 34.0358C162.388 34.0358 163.211 33.8667 163.898 33.5286C164.585 33.1904 165.136 32.7161 165.55 32.1056C165.964 31.4952 166.258 30.7699 166.434 29.9297C166.608 29.0906 166.695 28.1686 166.695 27.1657C166.695 27.0136 166.69 26.8658 166.679 26.7244C166.668 26.5829 166.663 26.4351 166.663 26.283C166.271 26.7191 165.83 27.1551 165.338 27.5911C164.848 28.0271 164.318 28.4143 163.752 28.7524C163.185 29.0906 162.596 29.3629 161.985 29.5703C161.375 29.7776 160.763 29.8808 160.153 29.8808H158.32V20.4913H149.651V17.3838H165.419C165.419 16.9254 165.37 16.4628 165.272 15.9938C165.175 15.5248 164.999 15.0941 164.749 14.7017C164.498 14.3093 164.16 13.9934 163.735 13.7531C163.309 13.5138 162.758 13.3936 162.082 13.3936C161.122 13.3936 160.288 13.4978 159.58 13.7041C158.87 13.9115 158.276 14.1402 157.797 14.3911C157.318 14.6421 156.952 14.8772 156.702 15.0941C156.451 15.3121 156.315 15.4429 156.292 15.4865L153.937 13.4255C153.958 13.4042 154.144 13.2288 154.493 12.9023C154.842 12.5747 155.344 12.2206 155.998 11.8388C156.652 11.457 157.454 11.1082 158.402 10.7923C159.351 10.4765 160.458 10.318 161.722 10.318C162.486 10.318 163.167 10.3946 163.768 10.5466C164.367 10.6998 164.885 10.8901 165.321 11.1188C165.757 11.3474 166.134 11.6154 166.45 11.9207C166.766 12.2259 167.032 12.5205 167.252 12.8044Z" fill="#0A9748"/>
<path d="M177.491 33.9709C177.557 33.2956 177.845 32.7223 178.358 32.2533C178.87 31.7844 179.475 31.5504 180.173 31.5504C181.024 31.5504 181.688 31.8503 182.168 32.4501C182.648 33.0499 182.888 33.7422 182.888 34.5271C182.888 35.0939 182.762 35.5799 182.512 35.983C182.261 36.3871 181.945 36.7189 181.563 36.9805C181.181 37.2422 180.761 37.4336 180.304 37.5527C179.845 37.6729 179.409 37.7324 178.996 37.7324C177.818 37.7324 176.804 37.4272 175.953 36.8168C175.102 36.2063 174.405 35.4427 173.859 34.5271C173.313 33.6114 172.916 32.6192 172.665 31.5504C172.414 30.4816 172.288 29.501 172.288 28.6056C172.288 27.2975 172.485 26.0107 172.877 24.7451C173.27 23.4807 173.749 22.3895 174.317 21.4739L175.004 20.4923H170.751V17.3848H182.561V20.4923H179.257C179.017 20.689 178.679 21.0155 178.243 21.4739C177.807 21.9322 177.381 22.5097 176.966 23.2073C176.552 23.9061 176.192 24.7239 175.887 25.6608C175.582 26.5988 175.429 27.6346 175.429 28.7683C175.429 30.7528 175.952 32.3459 176.999 33.5444C177.217 33.7848 177.381 33.9262 177.49 33.9698L177.491 33.9709Z" fill="#0A9748"/>
<path d="M201.404 20.4923H187.14V34.9196C188.078 34.9196 189.104 34.8217 190.216 34.625C191.328 34.4282 192.364 34.0964 193.324 33.6274C194.283 33.1584 195.085 32.5427 195.728 31.7791C196.371 31.0155 196.693 30.0775 196.693 28.9651C196.693 28.4855 196.616 28.0707 196.464 27.7219C196.311 27.3731 196.115 27.0838 195.875 26.8552C195.634 26.6265 195.362 26.4574 195.057 26.3479C194.752 26.2394 194.447 26.1841 194.141 26.1841C193.946 26.1841 193.765 26.2064 193.601 26.25C193.437 26.2936 193.268 26.3479 193.094 26.4138C193.552 26.6542 193.922 26.9753 194.206 27.3784C194.489 27.7825 194.632 28.2451 194.632 28.7684C194.632 29.1608 194.55 29.516 194.386 29.8319C194.222 30.1488 194.009 30.4157 193.748 30.6337C193.486 30.8517 193.186 31.0208 192.848 31.141C192.51 31.2612 192.166 31.3207 191.818 31.3207C191.338 31.3207 190.913 31.2176 190.541 31.0102C190.17 30.8028 189.854 30.5359 189.593 30.2083C189.331 29.8808 189.134 29.5213 189.004 29.1289C188.873 28.7365 188.807 28.344 188.807 27.9516C188.807 27.188 188.965 26.501 189.281 25.8906C189.597 25.2801 190.017 24.7675 190.54 24.3528C191.064 23.9391 191.663 23.6222 192.34 23.4042C193.015 23.1861 193.714 23.0766 194.434 23.0766C195.154 23.0766 195.867 23.2297 196.511 23.535C197.154 23.8402 197.721 24.2603 198.212 24.7941C198.703 25.3291 199.09 25.9555 199.374 26.6754C199.657 27.3954 199.799 28.1696 199.799 28.9981C199.799 30.5253 199.433 31.8557 198.703 32.9893C197.972 34.1241 196.99 35.0621 195.759 35.8023C194.526 36.5435 193.109 37.0997 191.506 37.4709C189.903 37.841 188.229 38.0271 186.484 38.0271C185.874 38.0271 185.536 38.0154 185.47 37.9941L183.998 37.8963V20.4923H181.904V17.3848H196.821C196.821 16.8839 196.761 16.4086 196.642 15.9619C196.521 15.5152 196.319 15.1164 196.036 14.7676C195.753 14.4188 195.371 14.1465 194.891 13.9498C194.411 13.753 193.822 13.6552 193.125 13.6552C192.23 13.6552 191.445 13.753 190.769 13.9498C190.093 14.1465 189.526 14.3699 189.067 14.6208C188.609 14.8718 188.255 15.1111 188.004 15.3408C187.753 15.5695 187.617 15.7067 187.595 15.7503L185.239 13.6892C185.26 13.6456 185.452 13.4553 185.811 13.1171C186.171 12.7789 186.678 12.4194 187.332 12.0376C187.986 11.6558 188.798 11.307 189.769 10.9912C190.739 10.6753 191.868 10.5168 193.155 10.5168C194.137 10.5168 194.992 10.637 195.724 10.8763C196.454 11.1167 197.07 11.4272 197.572 11.809C198.073 12.1908 198.482 12.6268 198.799 13.1171C199.115 13.6073 199.356 14.1093 199.519 14.6219C199.683 15.1345 199.798 15.6311 199.863 16.1108C199.929 16.5904 199.961 17.0158 199.961 17.387H201.401V20.4945L201.404 20.4923Z" fill="#0A9748"/>
<path d="M218.383 17.3849H223.617V20.4924H221.523V37.7325H218.383V24.5485C218.383 23.7849 218.247 23.1479 217.974 22.6342C217.7 22.1216 217.357 21.7133 216.943 21.407C216.528 21.1017 216.076 20.8837 215.585 20.7529C215.094 20.6221 214.619 20.5562 214.162 20.5562C213.922 20.5562 213.639 20.6051 213.311 20.7029C212.984 20.8008 212.678 20.9763 212.396 21.2262C212.112 21.4772 211.872 21.8153 211.676 22.2407C211.479 22.6661 211.381 23.2053 211.381 23.8604C211.381 24.5155 211.5 25.0707 211.74 25.5939C211.806 24.9186 212.072 24.356 212.542 23.9094C213.011 23.4627 213.573 23.2383 214.227 23.2383C214.685 23.2383 215.072 23.3308 215.388 23.5159C215.704 23.7009 215.971 23.9413 216.19 24.2358C216.408 24.5304 216.567 24.8739 216.664 25.2664C216.762 25.6588 216.811 26.0512 216.811 26.4436C216.811 27.5996 216.501 28.477 215.878 29.0768C215.257 29.6766 214.368 29.9765 213.212 29.9765C212.252 29.9765 211.413 29.7149 210.693 29.1917C210.671 29.1917 210.611 29.1481 210.513 29.0609C210.415 28.9737 210.311 28.8811 210.203 28.7833C210.093 28.6855 209.995 28.5929 209.908 28.5057C209.821 28.4185 209.788 28.3749 209.81 28.3749C208.85 29.4437 207.727 29.9776 206.441 29.9776C205.918 29.9776 205.411 29.8904 204.92 29.716C204.43 29.5416 203.993 29.2959 203.612 28.98C203.23 28.6642 202.925 28.2771 202.697 27.8187C202.468 27.3604 202.353 26.8488 202.353 26.2809C202.353 25.713 202.44 25.2621 202.615 24.9229C202.789 24.5847 202.876 24.4273 202.876 24.4485C203.356 23.6424 204.064 23.2383 205.003 23.2383C205.701 23.2383 206.301 23.484 206.803 23.9742C207.305 24.4645 207.556 25.0707 207.556 25.7896C207.556 25.9427 207.523 26.1278 207.458 26.3458C208.002 25.7354 208.276 24.9058 208.276 23.8594C208.276 22.747 208.079 21.9079 207.686 21.34C207.294 20.7731 206.902 20.4892 206.509 20.4892H200.751V17.3817H206.509C207.883 17.3817 209.039 18.1123 209.977 19.5735C210.675 18.7451 211.362 18.1782 212.038 17.8719C212.714 17.5667 213.434 17.4136 214.197 17.4136C215.68 17.4136 217.076 17.9698 218.385 19.0822V17.3806L218.383 17.3849Z" fill="#0A9748"/>
<path d="M222.962 17.3849H242.165V20.4924H240.071V37.7325H236.996V29.717C236.996 29.1066 236.832 28.5451 236.505 28.0325C236.178 27.5199 235.758 27.0732 235.246 26.6914C234.734 26.3096 234.167 26.0097 233.545 25.7917C232.924 25.5737 232.329 25.4641 231.762 25.4641C230.519 25.4641 229.521 25.8406 228.769 26.5925C228.016 27.3444 227.64 28.343 227.64 29.5862C227.64 30.1754 227.792 30.7805 228.099 31.4016C228.404 32.0227 228.873 32.4651 229.506 32.7267C229.549 31.9854 229.827 31.3644 230.339 30.8624C230.852 30.3604 231.468 30.1094 232.188 30.1094C232.994 30.1094 233.654 30.404 234.167 30.9932C234.679 31.5824 234.936 32.28 234.936 33.0872C234.936 33.5668 234.838 34.0029 234.641 34.3953C234.444 34.7877 234.177 35.1259 233.839 35.4099C233.501 35.6938 233.119 35.9118 232.694 36.0639C232.268 36.217 231.827 36.2926 231.369 36.2926C230.344 36.2926 229.416 36.1075 228.588 35.7363C227.758 35.3663 227.045 34.8749 226.445 34.2645C225.845 33.654 225.381 32.9447 225.055 32.1375C224.727 31.3314 224.565 30.4806 224.565 29.5862C224.565 28.5397 224.744 27.5688 225.105 26.6744C225.464 25.78 225.966 25.0175 226.61 24.3847C227.253 23.7519 228.01 23.2564 228.883 22.8958C229.755 22.5364 230.716 22.3556 231.762 22.3556C233.572 22.3556 235.316 22.9118 236.997 24.0242V20.4913H222.962V17.3838V17.3849Z" fill="#0A9748"/>
<path d="M36.4988 40.7145C36.3659 41.3143 35.8331 41.7641 35.1929 41.7641H26.4244C25.7842 41.7641 25.2514 41.3143 25.1185 40.7145H0C0 42.6171 1.54205 44.1602 3.44569 44.1602H58.1737C60.0763 44.1602 61.6194 42.6181 61.6194 40.7145H36.4999H36.4988Z" fill="#DF2327"/>
<path d="M50.2968 12.3364H11.2541C10.23 12.3364 9.39941 13.167 9.39941 14.1911V37.1752C9.39941 38.1993 10.23 39.0299 11.2541 39.0299H50.2968C51.3209 39.0299 52.1515 38.1993 52.1515 37.1752V14.1911C52.1515 13.167 51.3209 12.3364 50.2968 12.3364ZM49.9182 35.8618C49.9182 36.3776 49.4992 36.7966 48.9834 36.7966H12.5675C12.0517 36.7966 11.6327 36.3776 11.6327 35.8618V15.5045C11.6327 14.9888 12.0517 14.5697 12.5675 14.5697H48.9834C49.4992 14.5697 49.9182 14.9888 49.9182 15.5045V35.8618Z" fill="#DF2327"/>
<path d="M19.1052 25.0877C19.302 24.2699 18.7986 23.4475 17.9808 23.2507C17.1631 23.0539 16.3407 23.5573 16.1439 24.3751C15.9471 25.1928 16.4505 26.0152 17.2682 26.212C18.086 26.4088 18.9084 25.9054 19.1052 25.0877Z" fill="url(#paint0_linear_2480_24509)"/>
<path d="M44.9508 25.8098C45.5455 25.215 45.5455 24.2508 44.9508 23.6561C44.3561 23.0613 43.3918 23.0613 42.7971 23.6561C42.2023 24.2508 42.2023 25.215 42.7971 25.8098C43.3918 26.4045 44.3561 26.4045 44.9508 25.8098Z" fill="url(#paint1_linear_2480_24509)"/>
<path d="M17.6255 1.68243V30.6082C17.6255 31.5376 18.3784 32.2906 19.3079 32.2906H42.192C43.1215 32.2906 43.8744 31.5376 43.8744 30.6082V7.13279L36.7406 0H19.3079C18.3784 0 17.6255 0.752947 17.6255 1.68243Z" fill="#0A9748"/>
<path d="M38.4122 4.97175C38.6642 4.97175 38.8684 5.177 38.8684 5.42798V23.5285L22.6301 23.6465V5.42798C22.6301 5.17593 22.8353 4.97175 23.0863 4.97175H38.4122ZM38.4122 4.54529H23.0863C22.5982 4.54529 22.2036 4.9409 22.2036 5.42798V24.0773L39.2959 23.9528V5.42798C39.2959 4.93984 38.9003 4.54529 38.4133 4.54529H38.4122Z" fill="white"/>
<path d="M38.8067 20.4093H22.6928C22.4226 20.4093 22.2036 20.6283 22.2036 20.8985V27.256C22.2036 27.5262 22.4226 27.7452 22.6928 27.7452H38.8067C39.0769 27.7452 39.2959 27.5262 39.2959 27.256V20.8985C39.2959 20.6283 39.0769 20.4093 38.8067 20.4093Z" fill="white"/>
<path d="M28.5559 23.3926C28.5559 24.2211 27.8902 24.8868 27.0309 24.8868H26.3769V26.2566H25.3804V21.8984H27.0298C27.8891 21.8984 28.5549 22.5642 28.5549 23.3926H28.5559ZM27.5595 23.3926C27.5595 23.0747 27.3351 22.8322 27.0298 22.8322H26.3758V23.9531H27.0298C27.3351 23.9531 27.5595 23.7106 27.5595 23.3926Z" fill="#0A9748"/>
<path d="M32.9131 24.0772C32.9131 25.3097 31.9974 26.2562 30.7968 26.2562H29.0537V21.8981H30.7968C31.9985 21.8981 32.9131 22.8446 32.9131 24.0772ZM31.9549 24.0772C31.9549 23.3306 31.4816 22.8573 30.7968 22.8573H30.0502V25.298H30.7968C31.4816 25.298 31.9549 24.8248 31.9549 24.0782V24.0772Z" fill="#0A9748"/>
<path d="M34.4701 22.8563V23.6965H36.0887V24.6547H34.4701V26.2542H33.4736V21.896H36.1196V22.8542H34.4701V22.8563Z" fill="#0A9748"/>
<path d="M26.3799 17.3082C26.0364 17.3082 25.7184 17.1508 25.5461 16.8647C25.2845 16.4276 25.3738 15.7119 26.4054 15.0143L26.4682 14.9717C26.8659 14.7016 26.9999 14.6112 27.6954 14.3358C28.1485 14.156 28.6813 13.9742 29.2715 13.8242C29.464 13.5009 29.6437 13.15 29.7926 12.7746C28.9684 11.6101 28.5026 10.3796 28.5026 9.34377C28.5026 9.02791 28.5856 8.711 28.7366 8.45044C28.9131 8.14629 29.1609 7.95699 29.4342 7.9187C29.7416 7.8751 30.3127 7.99102 30.6711 9.24912C31.0241 10.487 30.9018 11.6483 30.5605 12.664C30.5817 12.6916 30.603 12.7193 30.6253 12.7469C30.8348 13.0128 31.0571 13.2638 31.2879 13.4977C31.976 13.4531 32.6981 13.4765 33.4329 13.6041C34.8995 13.8583 35.8502 14.3624 36.0427 14.9845C36.1267 15.2557 36.0566 15.5247 35.8524 15.7226C35.4429 16.1203 34.5698 16.1554 33.5744 15.8151C32.7161 15.5216 31.8313 14.9558 31.0337 14.2028C30.569 14.2475 30.1234 14.3251 29.7033 14.4208C29.2268 15.1632 28.7047 15.7428 28.342 16.1043C27.9985 16.4479 27.6061 16.8137 26.9318 17.1668C26.7521 17.2614 26.5618 17.3061 26.3778 17.3061L26.3799 17.3082ZM28.6632 14.7122C28.4069 14.7963 28.1676 14.8835 27.9475 14.9707C27.3221 15.2185 27.2318 15.2791 26.8521 15.5364L26.7883 15.579C26.3586 15.8704 25.9949 16.2841 26.1321 16.5127C26.1991 16.6244 26.4022 16.6754 26.616 16.5627C27.2052 16.2532 27.5402 15.9416 27.8603 15.6215C28.0804 15.4014 28.3665 15.0919 28.6632 14.7112V14.7122ZM32.0249 14.1614C32.6024 14.6208 33.2075 14.9685 33.7956 15.1695C34.6825 15.4726 35.2366 15.3695 35.377 15.2334C35.3983 15.2131 35.3972 15.2089 35.3897 15.1866C35.3174 14.9537 34.7059 14.5198 33.3159 14.2783C32.8799 14.2028 32.4471 14.1667 32.0249 14.1614ZM30.2712 13.3935C30.234 13.4754 30.1946 13.5552 30.1553 13.6339C30.2489 13.6179 30.3435 13.602 30.4392 13.5881C30.3829 13.5243 30.3265 13.4595 30.2712 13.3935ZM29.5331 8.59508C29.5331 8.59508 29.5299 8.59508 29.5289 8.59508C29.4087 8.61209 29.1864 8.93114 29.1864 9.34271C29.1864 10.1159 29.497 11.0283 30.0574 11.9365C30.2404 11.1645 30.2659 10.319 30.0138 9.43629C29.8118 8.72908 29.5906 8.59508 29.5331 8.59508Z" fill="white"/>
<path d="M36.7402 0L43.873 7.13279H38.3663C37.4687 7.13279 36.7402 6.40431 36.7402 5.50673V0Z" fill="#DFEDF5"/>
<path d="M43.8744 26.2564H17.6254C16.7842 26.2564 16.1025 25.5747 16.1025 24.7335V32.7969C16.1025 33.6381 16.7842 34.3198 17.6254 34.3198H43.8744C44.7156 34.3198 45.3973 33.6381 45.3973 32.7969V24.7335C45.3973 25.5747 44.7156 26.2564 43.8744 26.2564Z" fill="url(#paint2_linear_2480_24509)"/>
<path d="M32.4769 30.2816V27.9143H29.0227V30.2816H27.52L30.7498 33.0158L33.9796 30.2816H32.4769Z" fill="white"/>
</g>
<defs>
<linearGradient id="paint0_linear_2480_24509" x1="19.2026" y1="24.7322" x2="16.06" y2="24.7322" gradientUnits="userSpaceOnUse">
<stop stop-color="#00CF00"/>
<stop offset="1" stop-color="#008000"/>
</linearGradient>
<linearGradient id="paint1_linear_2480_24509" x1="42.2365" y1="24.7324" x2="45.4088" y2="24.7324" gradientUnits="userSpaceOnUse">
<stop stop-color="#00CF00"/>
<stop offset="1" stop-color="#009800"/>
</linearGradient>
<linearGradient id="paint2_linear_2480_24509" x1="30.7499" y1="24.4304" x2="30.7499" y2="34.0592" gradientUnits="userSpaceOnUse">
<stop stop-color="#00CF00"/>
<stop offset="1" stop-color="#009800"/>
</linearGradient>
<clipPath id="clip0_2480_24509">
<rect width="242.165" height="44.1602" fill="white"/>
</clipPath>
</defs>
</svg>
