<svg width="135" height="42" viewBox="0 0 135 42" fill="none" xmlns="http://www.w3.org/2000/svg">
<path d="M20.61 41.22C31.9926 41.22 41.22 31.9926 41.22 20.61C41.22 9.2274 31.9926 0 20.61 0C9.2274 0 0 9.2274 0 20.61C0 31.9926 9.2274 41.22 20.61 41.22Z" fill="url(#paint0_linear_2505_10647)"/>
<path d="M48.5998 21.4199H43.6348C43.3348 21.4199 43.0648 21.2849 42.8398 21.0149C42.6148 20.7449 42.5098 20.4299 42.5098 20.0549H47.4598C47.6248 20.0549 47.7598 20.0849 47.8948 20.1599C48.0298 20.2349 48.1498 20.3249 48.2548 20.4599C48.3598 20.5799 48.4348 20.7299 48.4948 20.8949C48.5698 21.0599 48.5998 21.2399 48.5998 21.4199Z" fill="#0A9748"/>
<path d="M61.3209 27.9599V24.33C61.1859 23.22 60.9609 22.26 60.6759 21.42C60.3759 20.58 60.0159 19.89 59.5959 19.32C59.1759 18.765 58.7259 18.33 58.2309 18.045C57.7359 17.76 57.2409 17.61 56.7309 17.61H56.4309C56.0859 17.61 55.7409 17.64 55.3659 17.7C55.0059 17.76 54.6309 17.88 54.2559 18.075C53.8809 18.27 53.5209 18.54 53.1759 18.915C52.8309 19.29 52.5309 19.785 52.2609 20.415C52.1709 20.79 52.1259 21.12 52.1259 21.405C52.1259 21.66 52.1409 21.96 52.1859 22.305C52.2309 22.65 52.3359 23.01 52.5309 23.37C52.7109 23.73 53.0109 24.075 53.4309 24.42C53.8359 24.765 54.4059 25.035 55.1109 25.26C55.2759 25.305 55.4409 25.3349 55.5759 25.3499C55.7259 25.365 55.8609 25.365 55.9959 25.395C56.2209 25.395 56.4459 25.35 56.6859 25.275C56.9259 25.2 57.1509 25.0949 57.3459 24.9599C57.5559 24.825 57.7209 24.6449 57.8559 24.4349C57.9909 24.2249 58.0809 23.985 58.1109 23.7C58.1109 23.31 57.9909 22.965 57.7659 22.68C57.5409 22.395 57.1509 22.215 56.6109 22.17C56.0859 22.125 55.6359 21.9 55.2759 21.525C54.9159 21.135 54.7359 20.685 54.7359 20.16C55.3509 19.92 56.0409 19.8 56.8059 19.8C56.8359 19.8 56.9259 19.785 57.0459 19.755C57.1809 19.725 57.3459 19.755 57.5559 19.815C57.7659 19.89 58.0359 20.025 58.3359 20.265C58.6359 20.49 58.9809 20.865 59.3559 21.375C59.7009 22.005 59.8659 22.605 59.8659 23.19C59.8659 23.73 59.7609 24.24 59.5359 24.6899C59.3109 25.1399 59.0109 25.53 58.6059 25.8599C58.2009 26.1899 57.7359 26.4449 57.1959 26.6249C56.6559 26.8049 56.0709 26.8949 55.4409 26.8949H55.3659C54.7359 26.8499 54.1209 26.6549 53.5209 26.3099C52.9209 25.9649 52.3809 25.53 51.9159 24.99C51.4509 24.45 51.0759 23.85 50.7759 23.16C50.4909 22.485 50.3409 21.765 50.3409 21.015L50.3709 20.475C50.4609 19.8 50.6559 19.14 50.9559 18.525C51.2559 17.91 51.6759 17.355 52.1859 16.86C52.6959 16.38 53.3109 15.99 54.0159 15.705C54.7209 15.42 55.5159 15.27 56.3859 15.27C58.4859 15.27 60.1209 15.945 61.3209 17.295V13.485H49.3359V12.21H65.4459V13.485H64.1409V25.11C64.1409 25.4999 64.0659 25.8749 63.9159 26.2049C63.7659 26.5499 63.5559 26.8499 63.3009 27.1049C63.0459 27.3599 62.7459 27.5699 62.4009 27.7199C62.0859 27.8849 61.7109 27.9599 61.3209 27.9599Z" fill="#0A9748"/>
<path d="M69.1352 12.2251H70.4402V13.5001H69.1352V25.7551C69.1352 26.4151 68.8952 26.9851 68.4302 27.4351C67.9652 27.9001 67.3952 28.1251 66.7352 28.1251H66.2552V13.4851H64.9502V12.2101H66.3602C66.4952 11.7601 66.7652 11.4301 67.1552 11.2051C67.5452 10.9801 68.0102 10.8601 68.5352 10.8601C68.6402 10.8601 68.7452 10.8601 68.8352 10.8751C68.9402 10.8901 69.0452 10.8901 69.1352 10.9201V12.2251Z" fill="#0A9748"/>
<path d="M75.9757 28.08C75.3457 28.005 74.7307 27.795 74.1307 27.435C73.5307 27.075 72.9907 26.625 72.5257 26.1C72.0607 25.56 71.6857 24.945 71.3857 24.255C71.1007 23.565 70.9507 22.86 70.9507 22.125L70.9807 21.645C71.1907 20.13 71.8957 18.84 73.0957 17.79C72.0157 16.455 71.4307 15.03 71.3107 13.5H69.9307V12.225H86.0706V13.5H84.7657V25.125C84.7657 25.515 84.6907 25.89 84.5407 26.22C84.3907 26.565 84.1806 26.865 83.9256 27.12C83.6707 27.375 83.3707 27.585 83.0257 27.735C82.6807 27.885 82.3207 27.96 81.9307 27.96V25.485C81.7957 24.39 81.5707 23.43 81.2707 22.605C80.9707 21.765 80.5957 21.075 80.1907 20.505C79.7707 19.95 79.3207 19.515 78.8407 19.23C78.3607 18.945 77.8507 18.78 77.3407 18.765H77.0407C76.6957 18.765 76.3357 18.795 75.9607 18.855C75.5707 18.915 75.1957 19.035 74.8357 19.23C74.4757 19.425 74.1157 19.695 73.7707 20.07C73.4257 20.445 73.1257 20.94 72.8707 21.57C72.7957 21.72 72.7657 21.885 72.7357 22.065C72.7207 22.245 72.7057 22.425 72.7057 22.59C72.7057 22.845 72.7207 23.145 72.7657 23.49C72.8107 23.835 72.9307 24.18 73.1407 24.54C73.3507 24.9 73.6507 25.245 74.0407 25.59C74.4457 25.935 75.0007 26.205 75.7207 26.43C76.0507 26.535 76.3507 26.58 76.6357 26.58C76.8457 26.58 77.0707 26.535 77.3107 26.46C77.5507 26.385 77.7757 26.265 77.9857 26.115C78.1957 25.965 78.3607 25.77 78.4957 25.56C78.6307 25.335 78.7057 25.08 78.7057 24.795C78.7057 24.435 78.5857 24.12 78.3607 23.835C78.1357 23.55 77.7457 23.385 77.2207 23.34C76.6957 23.295 76.2457 23.07 75.8857 22.695C75.5257 22.305 75.3457 21.855 75.3457 21.33C75.8857 21.105 76.5307 21 77.2657 21C77.3107 21 77.4157 20.985 77.5507 20.955C77.6857 20.925 77.8657 20.94 78.1057 21C78.3307 21.075 78.6007 21.21 78.9157 21.45C79.2307 21.675 79.5757 22.065 79.9507 22.59C80.3107 23.205 80.4907 23.805 80.4907 24.405C80.4907 25.05 80.1907 25.83 79.5757 26.76C78.9907 27.63 77.7907 28.08 75.9757 28.08ZM81.9307 18.45V13.5H73.7257C73.7557 14.43 74.4457 15.45 75.7957 16.545C76.1407 16.47 76.5457 16.44 77.0257 16.44C78.0457 16.44 78.9757 16.62 79.8157 16.965C80.6407 17.31 81.3607 17.805 81.9307 18.45Z" fill="#0A9748"/>
<path d="M105.271 29.385C105.061 29.385 104.596 29.31 103.861 29.16C103.711 29.145 103.516 29.04 103.306 28.845C103.081 28.65 102.886 28.38 102.691 28.035C102.496 27.69 102.346 27.27 102.211 26.775C102.076 26.28 102.001 25.725 102.001 25.11C102.001 24.585 102.076 24.015 102.241 23.385C102.406 22.77 102.616 22.155 102.886 21.54C103.156 20.94 103.441 20.355 103.771 19.815C104.101 19.275 104.416 18.825 104.716 18.465L105.271 17.805L97.6359 15.015L96.4809 18.39L100.996 16.965L102.601 19.26C102.556 20.52 102.346 21.675 101.971 22.725C101.611 23.775 101.086 24.675 100.411 25.425C99.7359 26.175 98.9109 26.76 97.9209 27.18C96.9309 27.6 95.7909 27.81 94.4709 27.81C91.7859 27.81 89.9109 27.3 88.8759 26.28C88.2309 25.665 87.6759 24.93 87.2109 24.09C86.7459 23.235 86.5209 22.38 86.5209 21.54C86.5209 21.51 86.5359 21.375 86.5509 21.15C86.5659 20.925 86.6109 20.67 86.6859 20.355C86.7609 20.055 86.8809 19.71 87.0609 19.365C87.2259 19.005 87.4659 18.675 87.7809 18.375C88.0809 18.075 88.4709 17.82 88.9359 17.625C89.4009 17.43 89.9559 17.325 90.6159 17.325C90.3909 18.045 90.2859 18.765 90.2859 19.5C90.2859 19.785 90.3009 20.13 90.3309 20.505C90.3609 20.895 90.4659 21.3 90.6159 21.72C90.7659 22.14 91.0059 22.56 91.3209 22.965C91.6359 23.37 92.0709 23.73 92.6409 24.045C93.1359 24.315 93.7359 24.45 94.4559 24.45C94.8459 24.45 95.2809 24.405 95.7759 24.315C96.2559 24.225 96.7809 24.075 97.3209 23.865C97.8009 23.7 98.1909 23.49 98.5209 23.235C98.8509 22.995 99.1059 22.71 99.3159 22.41C99.5259 22.11 99.6759 21.765 99.7959 21.39C99.9009 21.015 100.006 20.61 100.096 20.19L92.6859 22.08L95.3859 13.545H85.5459V12.27H108.916V13.545H99.1209L107.146 16.425L107.941 18.72C105.961 19.935 104.971 21.525 104.971 23.49C104.971 23.835 105.016 24.21 105.106 24.63C105.196 25.05 105.346 25.455 105.586 25.845C105.826 26.235 106.156 26.595 106.576 26.925C106.996 27.255 107.551 27.495 108.241 27.66C107.281 28.8 106.306 29.385 105.271 29.385Z" fill="#0A9748"/>
<path d="M112.606 12.225H113.911V13.5H112.606V25.755C112.606 26.415 112.366 26.985 111.901 27.435C111.436 27.9 110.866 28.125 110.206 28.125H109.726V13.485H108.421V12.21H109.831C109.966 11.76 110.236 11.43 110.626 11.205C111.016 10.98 111.481 10.86 112.006 10.86C112.111 10.86 112.216 10.86 112.306 10.875C112.411 10.89 112.516 10.89 112.606 10.92V12.225Z" fill="#0A9748"/>
<path d="M114.706 28.005V13.5H113.401V12.225H114.631C114.601 11.955 114.571 11.685 114.541 11.43C114.511 11.175 114.496 10.92 114.496 10.665C114.496 9.93001 114.586 9.15001 114.751 8.31001C114.916 7.47001 115.216 6.64501 115.651 5.82001C116.086 4.99501 116.671 4.20001 117.391 3.43501C118.111 2.67001 119.041 1.98001 120.151 1.36501C121.771 0.465014 123.751 0.0150146 126.091 0.0150146C127.576 0.0150146 128.821 0.180015 129.871 0.525014C130.921 0.870014 131.761 1.29001 132.406 1.81501C133.051 2.34001 133.516 2.91001 133.816 3.54001C134.101 4.17001 134.251 4.77001 134.251 5.32501C134.251 5.43001 134.236 5.61001 134.221 5.88001C134.206 6.15001 134.131 6.42001 134.026 6.72001C133.906 7.02001 133.711 7.29001 133.426 7.54501C133.156 7.80001 132.751 7.96501 132.256 8.05501V7.98001C132.256 7.42501 132.061 6.85501 131.686 6.28501C131.296 5.71501 130.771 5.20501 130.096 4.75501C129.421 4.30501 128.626 3.94501 127.726 3.66001C126.811 3.37501 125.836 3.24001 124.801 3.24001C123.796 3.24001 122.806 3.40501 121.846 3.75001C120.886 4.09501 120.031 4.62001 119.281 5.34001C118.531 6.06001 117.931 6.97501 117.481 8.10001C117.031 9.22501 116.806 10.56 116.806 12.105V12.24H118.801V13.515H117.496V25.185C117.496 25.575 117.421 25.95 117.286 26.28C117.136 26.625 116.941 26.925 116.701 27.18C116.461 27.435 116.161 27.645 115.816 27.795C115.456 27.93 115.096 28.005 114.706 28.005Z" fill="#0A9748"/>
<path d="M126.225 28.14C125.61 28.14 124.995 28.065 124.35 27.93C123.72 27.78 123.105 27.54 122.52 27.21C121.935 26.88 121.395 26.43 120.9 25.875C120.405 25.32 120 24.63 119.67 23.805C119.415 23.19 119.295 22.53 119.295 21.81C119.295 20.685 119.595 19.695 120.18 18.825C120.765 17.955 121.695 17.175 122.97 16.47C123.885 15.975 124.845 15.585 125.85 15.285C126.84 14.985 127.905 14.775 129.03 14.655V13.5H118.275V12.225H133.17V13.5H131.865V25.86H131.82C131.67 26.205 131.415 26.505 131.07 26.79C130.725 27.075 130.305 27.315 129.81 27.51C129.315 27.705 128.775 27.855 128.16 27.975C127.56 28.08 126.915 28.14 126.225 28.14ZM125.835 24.795H126.27C126.54 24.795 126.915 24.765 127.365 24.705C127.83 24.645 128.385 24.495 129.03 24.225V16.785C126.87 17.085 125.115 17.625 123.795 18.39C122.46 19.155 121.695 20.085 121.47 21.18L121.44 21.57C121.44 22.05 121.545 22.485 121.77 22.875C121.995 23.265 122.295 23.61 122.685 23.88C123.075 24.165 123.54 24.375 124.08 24.54C124.62 24.705 125.205 24.795 125.835 24.795ZM124.65 31.425H124.545C123.855 31.425 123.165 31.125 122.505 30.51L123.585 28.575C123.81 28.905 124.2 29.055 124.785 29.055C125.25 29.055 125.85 28.92 126.6 28.665V31.065C126.03 31.29 125.385 31.41 124.65 31.425Z" fill="#0A9748"/>
<path d="M74.6258 32.5649H69.1808L68.7158 32.0999H74.1458L74.6258 32.5649ZM73.9508 34.5899C73.9508 34.8599 73.9058 35.1149 73.8158 35.3549C73.7258 35.5949 73.5908 35.8199 73.4258 35.9999C73.2608 36.1799 73.0658 36.3298 72.8258 36.4348C72.5858 36.5398 72.3308 36.5998 72.0608 36.5998C71.7758 36.5998 71.5058 36.5399 71.2658 36.4199C71.0258 36.2999 70.8158 36.1498 70.6358 35.9548C70.4558 35.7598 70.2908 35.5349 70.1408 35.2949C69.9908 35.0399 69.8708 34.7849 69.7658 34.5149C69.6608 34.2449 69.5558 33.9749 69.4808 33.7199C69.3908 33.4499 69.3158 33.2099 69.2558 32.9849L69.5558 33.0749C69.6458 33.3749 69.7508 33.6899 69.9008 34.0049C70.0508 34.3349 70.2308 34.6199 70.4408 34.8899C70.6508 35.1599 70.9058 35.3699 71.1908 35.5499C71.4758 35.7149 71.8058 35.8048 72.1658 35.8048C72.3158 35.8048 72.4658 35.7748 72.6158 35.6998C72.7658 35.6398 72.9008 35.5498 73.0358 35.4298C73.1558 35.3248 73.2608 35.1899 73.3358 35.0399C73.4108 34.8899 73.4558 34.7399 73.4558 34.5899C73.4558 34.5599 73.4558 34.4999 73.4408 34.4249C73.4258 34.3499 73.4108 34.2749 73.3958 34.1999C73.3808 34.1249 73.3508 34.0649 73.3208 34.0049C73.2908 33.9449 73.2458 33.9149 73.2008 33.9149C73.1558 33.9599 73.1108 34.0049 73.0658 34.0499C73.0208 34.0949 72.9758 34.1549 72.9458 34.1999C72.8858 34.2749 72.7958 34.3499 72.7058 34.4099C72.6008 34.4699 72.5108 34.5149 72.3908 34.5449C72.2858 34.5749 72.1658 34.6049 72.0608 34.6199C71.9408 34.6349 71.8358 34.6499 71.7458 34.6499C71.5958 34.6499 71.4608 34.6349 71.3408 34.5899C71.2208 34.5449 71.1008 34.4849 71.0108 34.4099C70.9058 34.3349 70.8308 34.2299 70.7708 34.1099C70.7108 33.9899 70.6808 33.8549 70.6808 33.7049C70.6808 33.4799 70.7408 33.2999 70.8758 33.1799C71.0108 33.0449 71.1908 32.9849 71.4008 32.9849C71.5658 32.9849 71.7158 33.0299 71.8358 33.1349C71.9558 33.2399 72.0158 33.3749 72.0158 33.5549C72.0158 33.6449 72.0008 33.7199 71.9558 33.7949C71.9108 33.8699 71.8658 33.9449 71.8208 34.0199L71.8358 34.0349C71.9258 34.0349 72.0158 34.0049 72.1208 33.9299C72.2258 33.8549 72.3308 33.7649 72.4358 33.6599C72.5408 33.5549 72.6308 33.4499 72.7058 33.3299C72.7808 33.2249 72.8408 33.1199 72.8708 33.0449L72.9008 33.0299C73.0958 33.1349 73.2608 33.2549 73.3958 33.3899C73.5308 33.5249 73.6508 33.6749 73.7258 33.8099C73.8158 33.9599 73.8758 34.0949 73.9058 34.2299C73.9358 34.3949 73.9508 34.4999 73.9508 34.5899Z" fill="#303030"/>
<path d="M73.6809 38.3248C73.5759 38.3998 73.4559 38.4748 73.3209 38.5198C73.1859 38.5648 73.0509 38.5948 72.9309 38.5948C72.8259 38.5948 72.7059 38.5798 72.6009 38.5498C72.4959 38.5198 72.4059 38.4598 72.3159 38.3998C72.2409 38.3398 72.1659 38.2498 72.1209 38.1598C72.0759 38.0698 72.0459 37.9648 72.0459 37.8448C72.0459 37.7248 72.0759 37.6048 72.1209 37.5148C72.1809 37.4098 72.2409 37.3348 72.3309 37.2598C72.4209 37.1848 72.5109 37.1398 72.6309 37.0948C72.7359 37.0498 72.8559 37.0348 72.9609 37.0348C73.0509 37.0348 73.1409 37.0498 73.2459 37.0798L73.2759 36.5248C73.3959 36.6148 73.4859 36.7198 73.5309 36.8548C73.5759 36.9898 73.6059 37.1248 73.6059 37.2748C73.6059 37.2898 73.6059 37.3198 73.5909 37.3648C73.5909 37.3948 73.5609 37.4098 73.5309 37.4098C73.4559 37.3798 73.3659 37.3498 73.2609 37.3498C73.1709 37.3498 73.0809 37.3648 72.9909 37.3798C72.9009 37.4098 72.8109 37.4398 72.7209 37.4848C72.6459 37.5298 72.5709 37.5898 72.5109 37.6648C72.4509 37.7398 72.4359 37.8148 72.4359 37.9198C72.4359 37.9648 72.4509 37.9948 72.4809 38.0248C72.5109 38.0548 72.5409 38.0698 72.5859 38.0848C72.6309 38.0998 72.6609 38.1148 72.7059 38.1148C72.7509 38.1148 72.7959 38.1298 72.8259 38.1298C72.9609 38.1298 73.0959 38.0998 73.2309 38.0548C73.3659 38.0098 73.5009 37.9498 73.6059 37.8898L74.9109 38.9998C74.9109 39.0598 74.9259 39.1048 74.9259 39.1348C74.9259 39.1648 74.9409 39.1948 74.9409 39.2398C74.9409 39.2698 74.9409 39.2998 74.9559 39.3448C74.9559 39.3748 74.9559 39.4348 74.9709 39.4948L73.6809 38.3248Z" fill="#303030"/>
<path d="M74.9111 31.6648C74.9111 31.6798 74.9261 31.6948 74.9411 31.7398C74.9561 31.7848 74.9711 31.8298 75.0011 31.8748C75.0161 31.9198 75.0461 31.9648 75.0611 32.0098C75.0761 32.0548 75.0911 32.0848 75.0911 32.0998H75.9611L76.4261 32.5648H75.2411V37.3048C75.1511 37.2148 75.0761 37.1398 75.0011 37.0798C74.9411 37.0198 74.8961 36.9748 74.8361 36.9148C74.7911 36.8698 74.7611 36.8398 74.7761 36.8398V32.5648H74.0861L73.6211 32.0998H74.8211C74.7761 32.0548 74.7311 32.0098 74.6711 31.9498C74.6111 31.9048 74.5661 31.8448 74.5211 31.7998C74.4761 31.7398 74.4311 31.6798 74.4011 31.6198C74.3711 31.5598 74.3561 31.4998 74.3561 31.4398C74.3561 31.2448 74.4161 31.0498 74.5361 30.8698C74.6561 30.6898 74.8061 30.5248 74.9861 30.3898C75.1661 30.2548 75.3611 30.1348 75.5711 30.0598C75.7811 29.9848 75.9761 29.9398 76.1561 29.9398C76.4261 29.9398 76.6811 29.9698 76.9361 30.0448C77.1911 30.1198 77.4311 30.2098 77.6711 30.3298C77.9111 30.4498 78.1211 30.5998 78.3311 30.7648C78.5411 30.9298 78.7361 31.1098 78.9161 31.2898L79.0211 31.5898C78.6311 31.2748 78.2711 31.0198 77.9561 30.8548C77.6261 30.6898 77.3411 30.5698 77.0711 30.4948C76.8011 30.4348 76.5761 30.4198 76.3661 30.4498C76.1561 30.4798 75.9761 30.5398 75.8111 30.6148C75.6611 30.6898 75.5261 30.7948 75.4061 30.8998C75.3011 31.0048 75.2111 31.1248 75.1361 31.2298C75.0611 31.3348 75.0161 31.4398 74.9861 31.5148C74.9411 31.5898 74.9111 31.6348 74.9111 31.6648Z" fill="#303030"/>
<path d="M80.6412 32.5648H79.6212V37.3498C79.6212 37.3498 79.6062 37.3348 79.5762 37.3198C79.5612 37.3048 79.5312 37.2748 79.5012 37.2448C79.4712 37.2148 79.4412 37.1848 79.3962 37.1398C79.3812 37.0498 79.3512 36.9448 79.3212 36.8398C79.2912 36.7348 79.2612 36.6298 79.2162 36.5248C79.1712 36.4198 79.1262 36.3298 79.0662 36.2248C79.0062 36.1348 78.9462 36.0598 78.8712 35.9848C78.8262 35.9548 78.7812 35.9098 78.7212 35.8498C78.6612 35.7898 78.6012 35.7448 78.5262 35.6848C78.4662 35.6248 78.3912 35.5798 78.3312 35.5348C78.2562 35.4898 78.1962 35.4598 78.1512 35.4448L78.1662 35.4598C78.0762 35.5948 77.9562 35.6998 77.8062 35.7748C77.6562 35.8498 77.5062 35.8948 77.3562 35.8948C77.1762 35.8948 77.0262 35.8498 76.9062 35.7748C76.7862 35.6998 76.6962 35.5948 76.6362 35.4748C76.5762 35.3548 76.5462 35.2348 76.5612 35.0998C76.5612 34.9648 76.6062 34.8448 76.6812 34.7248C76.7562 34.6048 76.8612 34.5148 76.9962 34.4248C77.1312 34.3498 77.3112 34.3048 77.5212 34.3048C77.5362 34.3048 77.5662 34.3048 77.6112 34.3048C77.6562 34.3048 77.6862 34.3048 77.7162 34.3198C77.7462 34.3198 77.7912 34.3348 77.8212 34.3498C77.8512 34.3648 77.8662 34.3798 77.8812 34.3948C77.8812 34.1848 77.8362 34.0048 77.7612 33.8548C77.6862 33.7048 77.5962 33.5998 77.4912 33.5098C77.3862 33.4198 77.2662 33.3598 77.1462 33.3148C77.0262 33.2698 76.9062 33.2248 76.7862 33.1948C76.6662 33.1648 76.5612 33.1348 76.4712 33.1048C76.3812 33.0748 76.3212 33.0448 76.2912 32.9998C76.1862 32.9398 76.1262 32.8648 76.0812 32.7748C76.0512 32.6998 75.9912 32.6098 75.9162 32.5348C75.8562 32.4448 75.7812 32.3698 75.6912 32.2948C75.6012 32.2198 75.5262 32.1448 75.4512 32.0698H80.1612L80.6412 32.5648ZM79.1562 32.5648H76.9812C77.1012 32.6698 77.2212 32.7598 77.3562 32.8648C77.4912 32.9698 77.6112 33.0748 77.7312 33.1948C77.8512 33.3148 77.9562 33.4348 78.0462 33.5698C78.1362 33.7048 78.1962 33.8398 78.2412 33.9898C78.2712 34.1248 78.3162 34.2748 78.3462 34.4398C78.3762 34.6048 78.3912 34.7548 78.3762 34.8898C78.5262 35.0398 78.6612 35.1898 78.7962 35.3398C78.9312 35.4898 79.0512 35.6548 79.1862 35.8198V32.5648H79.1562Z" fill="#303030"/>
<path d="M87.4205 32.5648H86.4005V37.3498C86.4005 37.3498 86.3855 37.3348 86.3555 37.3198C86.3405 37.3048 86.3105 37.2748 86.2805 37.2448C86.2505 37.2148 86.2205 37.1848 86.1755 37.1398C86.1605 37.0498 86.1305 36.9448 86.1005 36.8398C86.0705 36.7348 86.0405 36.6298 85.9955 36.5248C85.9505 36.4198 85.9055 36.3298 85.8455 36.2248C85.7855 36.1348 85.7255 36.0598 85.6505 35.9848C85.6055 35.9548 85.5605 35.9098 85.5005 35.8498C85.4405 35.7898 85.3805 35.7448 85.3055 35.6848C85.2455 35.6248 85.1705 35.5798 85.1105 35.5348C85.0355 35.4898 84.9755 35.4598 84.9305 35.4448L84.9455 35.4598C84.8555 35.5948 84.7355 35.6998 84.5855 35.7748C84.4355 35.8498 84.2855 35.8948 84.1355 35.8948C83.9555 35.8948 83.8055 35.8498 83.6855 35.7748C83.5655 35.6998 83.4755 35.5948 83.4155 35.4748C83.3555 35.3548 83.3255 35.2348 83.3405 35.0998C83.3405 34.9648 83.3855 34.8448 83.4605 34.7248C83.5355 34.6048 83.6405 34.5148 83.7755 34.4248C83.9105 34.3498 84.0905 34.3048 84.3005 34.3048C84.3155 34.3048 84.3455 34.3048 84.3905 34.3048C84.4355 34.3048 84.4655 34.3048 84.4955 34.3198C84.5255 34.3198 84.5705 34.3348 84.6005 34.3498C84.6305 34.3648 84.6455 34.3798 84.6605 34.3948C84.6605 34.1848 84.6155 34.0048 84.5405 33.8548C84.4655 33.7048 84.3755 33.5998 84.2705 33.5098C84.1655 33.4198 84.0455 33.3598 83.9255 33.3148C83.8055 33.2698 83.6855 33.2248 83.5655 33.1948C83.4455 33.1648 83.3405 33.1348 83.2505 33.1048C83.1605 33.0748 83.1005 33.0448 83.0705 32.9998C82.9655 32.9398 82.9055 32.8648 82.8605 32.7748C82.8305 32.6998 82.7705 32.6098 82.6955 32.5348C82.6355 32.4448 82.5605 32.3698 82.4705 32.2948C82.3805 32.2198 82.3055 32.1448 82.2305 32.0698H86.9405L87.4205 32.5648ZM85.9355 32.5648H83.7605C83.8805 32.6698 84.0005 32.7598 84.1355 32.8648C84.2705 32.9698 84.3905 33.0748 84.5105 33.1948C84.6305 33.3148 84.7355 33.4348 84.8255 33.5698C84.9155 33.7048 84.9755 33.8398 85.0205 33.9898C85.0505 34.1248 85.0955 34.2748 85.1255 34.4398C85.1555 34.6048 85.1705 34.7548 85.1555 34.8898C85.3055 35.0398 85.4405 35.1898 85.5755 35.3398C85.7105 35.4898 85.8305 35.6548 85.9655 35.8198V32.5648H85.9355Z" fill="#303030"/>
<path d="M88.7559 33.4499C88.7409 33.4499 88.7109 33.4499 88.6809 33.4499C88.6509 33.4499 88.6059 33.4499 88.5759 33.4649C88.5459 33.4799 88.5159 33.4799 88.4859 33.4949C88.4559 33.5099 88.4409 33.5249 88.4409 33.5549C88.4409 33.5849 88.4709 33.6449 88.5159 33.7049C88.5609 33.7649 88.5909 33.8249 88.5909 33.8849C88.5909 34.0199 88.5309 34.1399 88.4259 34.2149C88.3209 34.3049 88.2009 34.3499 88.0659 34.3499C87.9159 34.3499 87.7809 34.3199 87.6909 34.2449C87.6009 34.1699 87.5259 34.0799 87.4959 33.9599C87.4509 33.8549 87.4509 33.7349 87.4659 33.5999C87.4809 33.4649 87.5259 33.3449 87.6009 33.2399C87.6759 33.1349 87.7809 33.0299 87.9159 32.9699C88.0509 32.8949 88.2159 32.8649 88.3959 32.8649C88.5759 32.8649 88.7259 32.8949 88.8609 32.9249C88.9959 32.9549 89.1159 33.0149 89.2359 33.0899C89.3409 33.1649 89.4459 33.2549 89.5359 33.3449C89.6259 33.4499 89.7159 33.5549 89.8209 33.6899V32.5649H86.7909L86.2959 32.0999H90.8259L91.2909 32.5649H90.2709V34.5149H89.8359C89.8509 34.3649 89.8209 34.2299 89.7459 34.0949C89.6709 33.9599 89.5659 33.8549 89.4459 33.7499C89.3259 33.6599 89.2059 33.5849 89.0709 33.5249C88.9509 33.4799 88.8459 33.4499 88.7559 33.4499Z" fill="#303030"/>
<path d="M90.3007 37.6948L90.1207 37.5298C90.0157 37.3198 89.9107 37.1548 89.7757 37.0498C89.6407 36.9448 89.4607 36.8698 89.2057 36.8698C89.0257 36.8698 88.8457 36.8998 88.6807 36.9448C88.5007 36.9898 88.3207 37.0198 88.1407 37.0198C87.9457 37.0198 87.7507 36.9898 87.5857 36.9148C87.4207 36.8548 87.2707 36.7498 87.1507 36.6298C87.0307 36.5098 86.9407 36.3598 86.8657 36.1948C86.7907 36.0298 86.7607 35.8348 86.7607 35.6398C86.7607 35.5798 86.7607 35.5048 86.7757 35.4148C86.7907 35.3398 86.8057 35.2498 86.8207 35.1598C86.8357 35.0698 86.8657 34.9948 86.8957 34.9198C86.9257 34.8448 86.9557 34.7698 86.9857 34.7248L87.1957 34.8898C87.1357 35.0848 87.1057 35.2648 87.1057 35.4448C87.1057 35.6098 87.1207 35.7598 87.1657 35.8648C87.2107 35.9698 87.2707 36.0598 87.3457 36.1348C87.4207 36.2098 87.5257 36.2398 87.6457 36.2698C87.7657 36.2998 87.9007 36.3148 88.0657 36.3148C88.2007 36.3148 88.3357 36.2998 88.4857 36.2848C88.6207 36.2698 88.7707 36.2548 88.9057 36.2548C89.0257 36.2548 89.1157 36.2548 89.2057 36.2698C89.2957 36.2848 89.3707 36.2998 89.4307 36.3448C89.4907 36.3898 89.5657 36.4198 89.6107 36.4798C89.6707 36.5398 89.7307 36.5998 89.8057 36.6898V34.7398C89.8057 34.6798 89.8057 34.6348 89.7907 34.5748C89.7907 34.5148 89.7757 34.4698 89.7607 34.4248C89.7457 34.3798 89.7157 34.3348 89.6857 34.3048C89.6557 34.2748 89.6107 34.2448 89.5507 34.2298C89.4607 34.2298 89.3707 34.2598 89.2807 34.3048C89.1907 34.3498 89.1157 34.4248 89.0407 34.4998C88.9657 34.5748 88.9057 34.6648 88.8607 34.7548C88.8157 34.8448 88.7707 34.9348 88.7557 35.0248C88.8307 34.9948 88.9057 34.9798 88.9657 34.9798C89.0707 34.9798 89.1607 35.0248 89.2357 35.0998C89.3107 35.1898 89.3407 35.2798 89.3407 35.3848C89.3407 35.4598 89.3257 35.5348 89.2807 35.5948C89.2507 35.6548 89.1907 35.7148 89.1307 35.7598C89.0707 35.8048 89.0107 35.8348 88.9357 35.8648C88.8607 35.8948 88.7857 35.8948 88.7257 35.8948C88.6207 35.8948 88.5157 35.8798 88.4257 35.8348C88.3357 35.7898 88.2757 35.7298 88.2157 35.6698C88.1557 35.5948 88.1257 35.5198 88.0957 35.4298C88.0657 35.3398 88.0507 35.2498 88.0507 35.1448C88.0507 34.9798 88.0957 34.8148 88.1857 34.6498C88.2757 34.4848 88.3957 34.3348 88.5307 34.1998C88.6657 34.0648 88.8307 33.9598 88.9957 33.8848C89.1607 33.8098 89.3407 33.7648 89.5057 33.7648C89.7007 33.7648 89.8657 33.8098 89.9557 33.8848C90.0607 33.9748 90.1357 34.0798 90.1807 34.1998C90.2257 34.3198 90.2557 34.4698 90.2557 34.6198C90.2557 34.7698 90.2557 34.9198 90.2557 35.0698V37.6948H90.3007Z" fill="#303030"/>
<path d="M92.4912 32.0698C92.7012 32.0698 92.8812 32.1298 93.0462 32.2348C93.2112 32.3398 93.3462 32.4748 93.4662 32.6248C93.5862 32.7898 93.6912 32.9548 93.7662 33.1498C93.8412 33.3448 93.9162 33.5098 93.9462 33.6748L93.8712 32.5798C93.8712 32.4748 93.8562 32.3698 93.8562 32.2348C93.8412 32.0998 93.8412 31.9798 93.8412 31.8448C93.8412 31.7248 93.8262 31.6048 93.8262 31.4998C93.8262 31.3948 93.8112 31.3198 93.8112 31.2748C93.9012 31.3798 93.9762 31.4548 94.0212 31.5298C94.0662 31.6048 94.0962 31.6648 94.1262 31.7098C94.1562 31.7698 94.2012 31.8148 94.2462 31.8748C94.2912 31.9348 94.3812 31.9948 94.5012 32.0848H94.8312L95.2962 32.5498H94.2462V37.2898C94.2612 37.2898 94.2312 37.2598 94.1862 37.2148C94.1412 37.1548 94.0812 37.0948 94.0212 37.0348C93.9462 36.9598 93.8562 36.8698 93.7662 36.7798L93.7812 34.1848C93.7812 34.0198 93.7512 33.8548 93.6912 33.6748C93.6312 33.4948 93.5412 33.3448 93.4362 33.2098C93.3312 33.0748 93.1962 32.9548 93.0462 32.8648C92.8962 32.7748 92.7312 32.7298 92.5512 32.7298C92.4462 32.7298 92.3262 32.7598 92.2212 32.8048C92.1162 32.8648 92.0262 32.9248 91.9362 32.9998C91.8612 33.0748 91.7862 33.1798 91.7412 33.2848C91.6962 33.3898 91.6662 33.5098 91.6662 33.6148C91.6662 33.6748 91.6812 33.7498 91.6962 33.8398C91.7112 33.9298 91.7412 34.0198 91.7712 34.0948C91.8012 34.1848 91.8612 34.2448 91.9062 34.3048C91.9662 34.3648 92.0262 34.3948 92.1012 34.3948C92.1012 34.3348 92.1012 34.2898 92.1012 34.2448C92.1012 34.1998 92.1012 34.1548 92.1012 34.0948C92.1012 33.9598 92.1462 33.8698 92.2212 33.8098C92.3112 33.7648 92.4162 33.7348 92.5362 33.7348C92.6862 33.7348 92.8212 33.7948 92.9262 33.9148C93.0312 34.0348 93.0912 34.1698 93.0912 34.3198C93.0912 34.4248 93.0612 34.5148 93.0162 34.5898C92.9712 34.6648 92.8962 34.7398 92.8212 34.7848C92.7462 34.8448 92.6562 34.8748 92.5512 34.9048C92.4462 34.9348 92.3562 34.9498 92.2662 34.9498C92.0712 34.9498 91.9062 34.9198 91.7412 34.8448C91.5912 34.7698 91.4562 34.6798 91.3362 34.5448C91.2312 34.4248 91.1412 34.2748 91.0812 34.1098C91.0212 33.9448 90.9912 33.7798 90.9912 33.5998C90.9912 33.3748 91.0212 33.1648 91.0962 32.9848C91.1562 32.7898 91.2612 32.6248 91.3812 32.4898C91.5012 32.3548 91.6662 32.2348 91.8462 32.1598C92.0562 32.1148 92.2662 32.0698 92.4912 32.0698Z" fill="#303030"/>
<path d="M97.1261 32.5648H95.9711V37.4698C95.9561 37.4698 95.9261 37.4398 95.8811 37.3948C95.8361 37.3498 95.7761 37.2898 95.7161 37.2298L95.5061 36.9898V33.4798C95.5061 33.3448 95.4911 33.2098 95.4761 33.0898C95.4461 32.9698 95.4161 32.8648 95.3561 32.7898C95.2961 32.6998 95.2211 32.6398 95.1311 32.6098C95.0411 32.5648 94.9211 32.5648 94.7861 32.5798L94.4111 32.1148C94.4861 32.1148 94.5461 32.1148 94.5761 32.1148C94.6211 32.1148 94.6661 32.1148 94.7111 32.1148C94.8461 32.1148 94.9511 32.1298 95.0561 32.1748C95.1461 32.2048 95.2361 32.2648 95.3111 32.3548C95.3861 32.4298 95.4461 32.5348 95.5061 32.6698C95.5661 32.8048 95.6261 32.9548 95.6861 33.1348C95.6861 33.0448 95.6861 32.9698 95.6711 32.8798C95.6561 32.7898 95.6411 32.6848 95.6261 32.5648C95.6111 32.4448 95.5811 32.2948 95.5511 32.1148C95.5211 31.9348 95.4911 31.7248 95.4761 31.4548L95.6711 31.6048C95.6861 31.6798 95.6861 31.7248 95.7011 31.7698C95.7161 31.8148 95.7311 31.8448 95.7461 31.8748C95.7611 31.9048 95.7911 31.9348 95.8211 31.9798C95.8511 32.0098 95.8961 32.0548 95.9411 32.1148H96.6461L97.1261 32.5648Z" fill="#303030"/>
<path d="M100.756 32.5648V37.3498C100.681 37.2748 100.621 37.2148 100.561 37.1548C100.501 37.0948 100.456 37.0498 100.411 37.0048C100.366 36.9598 100.321 36.9148 100.291 36.8998V34.3048C100.291 34.2298 100.276 34.1698 100.231 34.0948C100.201 34.0198 100.141 33.9598 100.096 33.8998C100.036 33.8398 99.9757 33.7948 99.9007 33.7648C99.8257 33.7348 99.7507 33.7048 99.6907 33.7048C99.5707 33.7048 99.4657 33.7498 99.4057 33.8248C99.3457 33.9148 99.3157 34.0198 99.3157 34.1398C99.3157 34.1998 99.3157 34.2448 99.3307 34.3048C99.3457 34.3648 99.3457 34.4098 99.3607 34.4698L99.1657 34.5448C99.1507 34.4248 99.1057 34.3198 99.0307 34.2298C98.9557 34.1398 98.8807 34.0498 98.7907 33.9748C98.7007 33.8998 98.5957 33.8398 98.4757 33.7948C98.3557 33.7498 98.2507 33.7198 98.1307 33.7048C97.8907 33.6748 97.6807 33.7198 97.5007 33.8248C97.3207 33.9298 97.2157 34.1098 97.1857 34.3198C97.1557 34.4998 97.1707 34.6348 97.2457 34.7548C97.3057 34.8748 97.4407 34.9498 97.6207 34.9798C97.5757 34.9198 97.5457 34.8748 97.5157 34.8148C97.4857 34.7548 97.4707 34.6948 97.4707 34.6198C97.4857 34.4698 97.5307 34.3498 97.6357 34.2448C97.7407 34.1548 97.8607 34.1098 98.0107 34.1098C98.1007 34.1098 98.1757 34.1398 98.2507 34.1848C98.3257 34.2298 98.3857 34.3048 98.4307 34.3798C98.4757 34.4548 98.5207 34.5448 98.5507 34.6348C98.5807 34.7248 98.5957 34.8148 98.5957 34.8898C98.5957 35.0098 98.5507 35.1148 98.4457 35.2048C98.3407 35.2948 98.2207 35.3548 98.0707 35.3998C97.9207 35.4448 97.7557 35.4598 97.5907 35.4298C97.4257 35.4148 97.2607 35.3548 97.1107 35.2498C96.9607 35.1448 96.8557 35.0098 96.7657 34.8148C96.6757 34.6198 96.6457 34.3798 96.6607 34.0948C96.6757 33.9448 96.7057 33.7948 96.7657 33.6598C96.8257 33.5248 96.9157 33.4048 97.0207 33.3148C97.1257 33.2248 97.2607 33.1348 97.3957 33.0748C97.5457 33.0148 97.6957 32.9848 97.8607 32.9848C98.0857 32.9848 98.2807 33.0448 98.4307 33.1498C98.5807 33.2548 98.7307 33.4048 98.8507 33.5698C98.8507 33.5098 98.8657 33.4648 98.9107 33.3898C98.9557 33.3298 99.0007 33.2698 99.0607 33.2098C99.1207 33.1498 99.1807 33.1048 99.2407 33.0748C99.3007 33.0448 99.3757 33.0148 99.4207 33.0148C99.5257 33.0148 99.6307 33.0448 99.7207 33.0898C99.8107 33.1348 99.8857 33.2098 99.9607 33.2848C100.036 33.3598 100.096 33.4498 100.141 33.5398C100.186 33.6298 100.231 33.7348 100.261 33.8248V32.5348H96.6307L96.4207 32.3248C96.3607 32.2648 96.3157 32.2198 96.2557 32.1598C96.2107 32.1148 96.1807 32.0848 96.1807 32.0848H101.281C101.281 32.0848 101.311 32.0998 101.356 32.1598C101.401 32.2048 101.461 32.2648 101.521 32.3248C101.596 32.3998 101.671 32.4748 101.761 32.5648H100.756Z" fill="#303030"/>
<path d="M105.841 32.5648H104.776V37.3798C104.671 37.3048 104.596 37.2148 104.536 37.0948C104.476 36.9748 104.431 36.8548 104.371 36.7498C104.161 36.3148 103.876 35.9848 103.501 35.7598C103.126 35.5348 102.706 35.4148 102.241 35.3848L101.611 34.5898C101.836 34.3648 102.061 34.1548 102.286 33.9598C102.511 33.7648 102.751 33.5698 102.991 33.3898C102.856 33.2548 102.721 33.1648 102.586 33.1198C102.451 33.0748 102.286 33.0448 102.091 33.0148C101.926 32.9998 101.776 32.9548 101.671 32.9098C101.566 32.8498 101.461 32.7898 101.371 32.7148C101.281 32.6398 101.191 32.5498 101.101 32.4448C101.011 32.3398 100.906 32.2348 100.801 32.1298H105.331L105.841 32.5648ZM103.021 36.9598C102.886 36.9598 102.766 36.9148 102.661 36.8098C102.556 36.7048 102.496 36.5848 102.496 36.4498C102.496 36.3148 102.541 36.1948 102.631 36.1048C102.721 36.0148 102.826 35.9698 102.961 35.9698C103.096 35.9698 103.216 36.0148 103.321 36.1198C103.426 36.2098 103.486 36.3298 103.486 36.4648C103.486 36.5998 103.441 36.7198 103.351 36.8098C103.261 36.9148 103.141 36.9598 103.021 36.9598ZM104.296 32.5648H102.601C102.841 32.7148 103.036 32.8798 103.201 33.0748C103.366 33.2548 103.546 33.4498 103.726 33.6598C103.546 33.8548 103.366 34.0498 103.171 34.2298C102.976 34.4098 102.796 34.5898 102.616 34.7998C102.976 34.9198 103.306 35.0998 103.591 35.3248C103.876 35.5648 104.116 35.8498 104.311 36.1648V32.5648H104.296Z" fill="#303030"/>
<path d="M133.17 34.9048H106.771V35.0548H133.17V34.9048Z" fill="#303030"/>
<path d="M67.1108 34.9048H43.5908V35.0548H67.1108V34.9048Z" fill="#303030"/>
<path d="M13.4359 17.7931H11.5167C11.6636 18.0763 11.7947 18.3962 11.91 18.7527C12.4973 18.8052 13.2 19.1355 14.018 19.7438C14.2907 19.9536 14.5109 20.0584 14.6787 20.0584C14.9304 20.0584 15.0563 19.812 15.0563 19.3191C15.0563 19.0779 14.9986 18.8629 14.8832 18.6741C14.7783 18.4853 14.642 18.328 14.4742 18.2021C14.3064 18.0658 14.1281 17.9662 13.9393 17.9033C13.7611 17.8298 13.5933 17.7931 13.4359 17.7931ZM19.6341 27.9398H18.1396V25.1711C18.0452 24.9823 17.9193 24.7988 17.762 24.6205C17.6047 24.4422 17.4212 24.2849 17.2114 24.1486C17.0017 24.0122 16.771 23.9021 16.5193 23.8182C16.2676 23.7343 16.0001 23.6923 15.717 23.6923C15.2555 23.6923 14.878 23.75 14.5843 23.8654C14.2907 23.9703 14.0547 24.1066 13.8764 24.2744C13.7086 24.4317 13.588 24.6048 13.5146 24.7935C13.4517 24.9823 13.4202 25.1606 13.4202 25.3284C13.4202 25.3808 13.4255 25.4647 13.4359 25.5801C13.4569 25.6955 13.4989 25.8161 13.5618 25.9419C13.6352 26.0678 13.7401 26.1831 13.8764 26.288C14.0232 26.3929 14.2173 26.4663 14.4585 26.5082C14.4585 26.0678 14.5948 25.7059 14.8675 25.4228C15.1506 25.1291 15.4915 24.9823 15.89 24.9823C16.0893 24.9823 16.2728 25.0243 16.4406 25.1082C16.6189 25.1816 16.771 25.2864 16.8968 25.4228C17.0227 25.5486 17.1223 25.7059 17.1957 25.8947C17.2691 26.073 17.3058 26.2618 17.3058 26.461C17.3058 26.9959 17.1171 27.3892 16.7395 27.6409C16.362 27.9031 15.8428 28.0342 15.1821 28.0342H15.0248C14.5948 28.0342 14.1858 27.9712 13.7978 27.8454C13.4097 27.7195 13.0689 27.536 12.7752 27.2948C12.4921 27.0641 12.2613 26.7757 12.0831 26.4296C11.9153 26.0835 11.8314 25.6902 11.8314 25.2497C11.8314 23.792 12.7071 22.8271 14.4585 22.3552V21.663C14.2382 21.6211 14.0075 21.5319 13.7663 21.3956C13.5251 21.2593 13.2681 21.0862 12.9955 20.8765L12.5865 20.5618C12.5235 20.7401 12.4134 20.9656 12.2561 21.2383C12.1093 21.511 11.9205 21.7784 11.6898 22.0406C11.4591 22.2923 11.1969 22.5125 10.9032 22.7013C10.6096 22.8796 10.3002 22.9687 9.97507 22.9687C9.7024 22.9687 9.43497 22.9215 9.17278 22.8271C8.92108 22.7223 8.6956 22.6121 8.49633 22.4968C8.29707 22.3709 8.12927 22.2556 7.99294 22.1507C7.86709 22.0353 7.79367 21.9672 7.7727 21.9462L8.70084 20.4832C8.74279 20.5251 8.81096 20.5828 8.90535 20.6562C8.99973 20.7191 9.10985 20.7873 9.2357 20.8607C9.36155 20.9237 9.4874 20.9813 9.61325 21.0338C9.74959 21.0862 9.8702 21.1124 9.97507 21.1124C10.038 21.1124 10.1062 21.1019 10.1796 21.081C10.2635 21.0495 10.3421 21.0076 10.4155 20.9551C10.489 20.8922 10.5519 20.8135 10.6043 20.7191C10.6568 20.6248 10.683 20.5042 10.683 20.3573C10.683 19.5393 10.447 18.9258 9.97507 18.5168C9.51362 18.1078 8.92108 17.8665 8.19744 17.7931H7.00187V16.2987H20.6408V17.7931H19.6341V27.9398ZM15.9529 21.1596V22.2451C16.9597 22.3604 17.6886 22.6593 18.1396 23.1418V17.7931H16.0159C16.4144 18.4643 16.6137 19.0621 16.6137 19.5865C16.6137 19.6599 16.5979 19.7648 16.5665 19.9011C16.5455 20.027 16.5035 20.1686 16.4406 20.3259C16.3882 20.4727 16.32 20.6248 16.2361 20.7821C16.1522 20.9289 16.0578 21.0547 15.9529 21.1596ZM20.3212 16.2987H23.8293V17.7931H22.8225V26.0835H21.328V17.7931H20.3212V16.2987ZM32.8924 17.7931H26.0336V24.7306C26.4846 24.7306 26.9775 24.6834 27.5123 24.589C28.0472 24.4946 28.5453 24.3373 29.0068 24.1171C29.4682 23.8864 29.851 23.5875 30.1552 23.2204C30.4698 22.8533 30.6271 22.4024 30.6271 21.8675C30.6271 21.6368 30.5904 21.4375 30.517 21.2697C30.4436 21.1019 30.3492 20.9656 30.2338 20.8607C30.1185 20.7454 29.9874 20.6615 29.8405 20.609C29.6937 20.5566 29.5469 20.5304 29.4001 20.5304C29.3057 20.5304 29.2165 20.5409 29.1326 20.5618C29.0592 20.5828 28.9806 20.609 28.8967 20.6405C29.1169 20.7559 29.2952 20.9132 29.4315 21.1124C29.5679 21.3012 29.636 21.5214 29.636 21.7731C29.636 21.9619 29.5941 22.135 29.5102 22.2923C29.4368 22.4391 29.3371 22.5649 29.2113 22.6698C29.0854 22.7747 28.9386 22.8586 28.7708 22.9215C28.6135 22.974 28.451 23.0002 28.2832 23.0002C28.0524 23.0002 27.8479 22.953 27.6696 22.8586C27.4914 22.7537 27.3393 22.6226 27.2134 22.4653C27.0876 22.308 26.9932 22.135 26.9303 21.9462C26.8673 21.7574 26.8359 21.5686 26.8359 21.3799C26.8359 21.0128 26.9093 20.6824 27.0561 20.3888C27.2134 20.0951 27.4179 19.8487 27.6696 19.6494C27.9213 19.4502 28.2097 19.2981 28.5349 19.1932C28.86 19.0883 29.1956 19.0359 29.5417 19.0359C29.8982 19.0359 30.2286 19.1093 30.5327 19.2561C30.8473 19.403 31.12 19.6075 31.3507 19.8697C31.592 20.1214 31.7807 20.4203 31.9171 20.7663C32.0534 21.1124 32.1216 21.4847 32.1216 21.8833C32.1216 22.6174 31.9433 23.2571 31.5867 23.8025C31.2406 24.3478 30.7687 24.7988 30.1709 25.1554C29.5836 25.5119 28.9019 25.7794 28.1258 25.9576C27.3603 26.1359 26.558 26.2251 25.719 26.2251C25.4253 26.2251 25.2628 26.2198 25.2313 26.2093L24.5234 26.1622V17.7931H23.5166V16.2987H30.69C30.69 16.0575 30.6586 15.832 30.5956 15.6222C30.5432 15.402 30.4488 15.208 30.3125 15.0402C30.1761 14.8724 29.9926 14.7413 29.7619 14.6469C29.5312 14.5525 29.248 14.5053 28.9124 14.5053C28.4824 14.5053 28.1049 14.5525 27.7798 14.6469C27.4546 14.7413 27.182 14.8514 26.9617 14.9772C26.7415 15.0926 26.5685 15.208 26.4426 15.3233C26.3272 15.4282 26.2643 15.4911 26.2538 15.5121L25.1212 14.521C25.1317 14.5001 25.2208 14.4109 25.3886 14.2536C25.5669 14.0858 25.8134 13.9128 26.128 13.7345C26.4426 13.5457 26.8306 13.3779 27.2921 13.2311C27.764 13.0738 28.3094 12.9951 28.9281 12.9951C29.4001 12.9951 29.8091 13.0528 30.1552 13.1682C30.5117 13.2835 30.8106 13.4356 31.0519 13.6244C31.2931 13.8026 31.4871 14.0124 31.6339 14.2536C31.7912 14.4843 31.9066 14.7255 31.98 14.9772C32.0639 15.2185 32.1216 15.4544 32.153 15.6851C32.1845 15.9159 32.2002 16.1204 32.2002 16.2987H32.8924V17.7931ZM29.1732 15.6694L28.1507 14.584L31.3126 11.6894L32.3194 12.7906L29.1732 15.6694Z" fill="white"/>
<defs>
<linearGradient id="paint0_linear_2505_10647" x1="-3.8652" y1="10.662" x2="39.9763" y2="28.4838" gradientUnits="userSpaceOnUse">
<stop stop-color="#ED1C24"/>
<stop offset="0.986" stop-color="#BE1E2D"/>
</linearGradient>
</defs>
</svg>
