<svg width="96" height="88" viewBox="0 0 96 88" fill="none" xmlns="http://www.w3.org/2000/svg">
<g clip-path="url(#clip0_1666_15498)">
<g opacity="0.4">
<path d="M15.7366 8.19973L16.1301 7.81189L16.5236 7.88943L16.9171 8.19967L16.6023 9.05289L17.0745 9.20803L17.4679 9.67342L17.9401 9.59587L17.8614 9.05289L17.4679 8.8202L17.9401 8.27721L18.8058 8.35475L19.1993 8.89774L19.514 9.28558L19.7502 9.67342L19.9076 9.44073H20.6159L20.7733 9.59587L21.2455 9.36318V9.90611L21.3242 10.8369L21.8751 11.2248L22.426 11.5351L22.5834 11.9229L22.5047 12.3883L22.3473 13.5518L22.5834 14.3275L22.7408 15.1807L23.3704 15.7237L24.0787 16.1891L24.6296 16.6544L24.3935 17.275L24.1574 17.818L23.9212 18.1282L23.4491 17.5853L22.662 18.2833L22.7407 19.1368L22.1111 18.5163L21.7177 19.2919L20.4585 18.9817L19.5927 19.2144L19.9075 19.99L19.514 20.4555L19.2779 20.8433L18.5696 20.7657L17.94 20.2227H17.5465V19.3695L16.9169 19.2144V17.3528L16.6022 16.9649L16.2874 16.4219L15.4217 16.1893L15.5004 15.8014L15.2643 15.6463V15.0258L15.1855 14.7931L15.5003 14.4053L15.2642 14.7931L15.7364 14.095L16.2086 13.8623V12.5437L16.4447 12.0783V11.768L16.366 10.6821L16.6021 10.2167L15.7364 9.28589V8.19991L15.7366 8.19973Z" fill="#FF6961" stroke="white" stroke-width="0.296754"/>
<path d="M7.15825 4.86428L7.00084 4.32136L6.84342 3.93352L7.2369 3.39059L7.55167 2.69246L7.8665 1.76164L8.4961 0.830811L8.65351 1.83918L8.73222 2.38217L9.36182 3.00269L9.99142 2.84761L10.1488 3.39059L10.7784 3.54568L10.8571 4.01106L11.4867 4.24375L11.5655 4.55399L12.1951 4.70913L12.5885 4.24375L12.8247 4.86428L13.1394 5.25212L13.6116 5.56235L13.769 5.87259L14.1625 5.7175L14.3986 5.95019L14.1625 6.49318L14.3986 6.72587L14.7134 6.95856V7.11365L15.343 7.0361V7.34634L15.5004 7.65657V8.04441L15.8939 8.35471L15.8152 9.05278L16.1299 9.59576L16.5234 10.1388L16.366 10.6817V11.4574V12.1555L16.1299 12.776L16.2873 13.5517L15.8938 14.0947L15.3429 14.8704L14.7133 14.7152L13.8476 14.6377L13.5328 14.0171L13.1394 13.7069L13.6115 12.8537L13.2968 12.2332L12.9033 11.7678L12.2737 11.5351L11.9589 11.2248L11.7228 10.7594L11.3293 10.9145C11.3293 10.9145 11.231 10.8369 11.0146 10.7594C10.7981 10.6819 10.4637 10.6043 10.4637 10.6043L10.0702 10.4491L9.67671 10.7594L9.04711 10.6043L8.49622 10.3716L8.02404 10.6819L7.94533 11.0697C7.94533 11.0697 7.68958 11.0309 7.39444 10.9146C7.0993 10.7982 6.76484 10.6043 6.76484 10.6043L6.60742 10.3716L7.15831 10.0614L7.47314 9.67356L7.23702 9.20817V8.1222L8.10274 8.04466L8.41751 7.73442L8.73228 7.26904L9.44059 7.03635L9.59801 6.49337L9.99148 7.1139L10.385 6.8812L10.6997 6.33822L10.385 5.95038L10.0702 5.485V4.94201L9.5193 4.47663L8.81099 4.63178L8.41751 4.01125L8.02404 4.32154L7.55185 4.244L7.15825 4.86428Z" fill="#FF6961" stroke="white" stroke-width="0.296754" stroke-linecap="round" stroke-linejoin="round"/>
<path d="M2.98732 19.6796L2.59384 18.9815L2.12166 18.361L2.43643 17.6628L1.64941 17.5077L1.88554 16.2667L2.43643 15.8789L2.35772 15.4135L2.67255 14.7929L3.61692 14.1724L3.93169 13.3192L3.22338 12.9314L3.61686 12.2332L3.77428 11.5351L4.63994 11.2249V10.4492L5.82043 10.6043L6.68615 10.3716L7.86664 11.1473L8.10277 10.5268L8.90613 10.3605L9.59809 10.6044L10.2277 10.5268L11.8017 10.9147L12.4313 11.6128L12.9822 11.8455L13.7692 12.7763L13.2183 13.552L13.3757 14.095L12.9823 14.4828L12.8249 15.1034H12.274L11.8805 14.4828L11.6444 14.9482H11.1722L10.9361 15.8015L11.2508 16.1117L10.8573 16.1893L10.3852 16.9649L10.2278 17.4303L9.99163 17.8957L10.3064 18.2835L9.83421 18.3611H9.51944V17.9733L8.49637 18.0508V18.6713H8.10289L8.02418 19.447L8.49637 19.6798L8.1816 19.99V20.6881L8.57507 20.9208L9.04726 21.3088L8.96855 21.8518L8.41766 21.9294L7.94547 21.464L7.552 21.2313V20.9208L7.00111 20.3778H6.52892L6.37151 19.8348L5.50578 19.3695L5.58449 18.9816L5.50578 18.7489L4.79748 18.9816L4.32529 19.3695L3.93181 18.9041L2.98732 19.6796Z" fill="#FF6961" stroke="white" stroke-width="0.296754"/>
<path d="M21.0888 8.43241L20.8526 7.81188L20.2231 8.27726L19.9083 7.81188L20.3805 7.42404L20.1443 7.0362L19.7509 6.95866L19.5147 7.19135L18.7277 6.80351L18.5703 6.10544L19.3573 4.94192L20.0656 4.70923V5.17461L20.3018 5.3297L21.0101 5.56239L21.4822 6.02777L22.5053 5.95023L22.7414 6.49321L22.2693 6.57076L22.6627 7.03614L22.2693 7.50152H23.2136L23.5284 8.04444L23.4497 8.27713H22.9775L22.5053 7.81175V8.50982L22.8988 8.97521L23.5284 9.67334L23.6071 10.1387L23.371 10.3714L24.0793 11.7676L25.3385 12.0003L25.9681 12.6208L26.0468 13.0862L25.732 13.2414L25.8107 13.3965L26.3616 13.4741L26.9912 13.7843L27.5421 14.4048L28.5652 14.6375L29.0374 13.7843L29.3522 13.8618L29.4309 14.2497L29.8244 14.4048L30.1392 14.7151L30.454 14.4824L30.2966 15.9561L30.9262 16.0337L31.7918 16.9645L31.9492 16.8869V17.3523H32.6575L32.7362 17.585L32.0282 18.5161L31.6347 18.5936L31.7134 19.5245L30.8478 20.145L30.6117 20.0674L30.533 19.3693L30.2968 19.4468L30.1394 19.8347L29.5098 19.7571L29.0376 19.602L28.9589 19.7571L27.3849 18.8263C27.3849 18.8263 27.7784 18.3609 27.3849 18.2833C26.9914 18.2058 26.5979 17.9731 26.5979 17.9731V17.4301L26.1257 17.5077L25.4174 16.9647L24.6304 16.6544L24.1582 16.1114L23.1489 15.7826L22.6629 15.0255L22.2694 13.2415L22.5055 12.078V11.6126L21.2463 10.8369L21.325 9.28563L21.9546 9.05293L21.5611 8.51001L21.0888 8.43241Z" fill="#FF6961" stroke="white" stroke-width="0.296754"/>
<path d="M13.376 13.9396L12.9826 14.3274L12.8252 14.9479L12.2743 15.1031L11.8021 14.405L11.6447 14.9479H11.0938L10.8576 15.8012L11.2511 16.0339V16.2665L10.7789 16.189L10.0706 17.7404L10.3068 18.1282L10.1493 18.3609L9.51974 18.4384L9.44103 17.973L9.20491 18.1281L8.33918 17.973L8.4966 18.7487L8.10312 18.5936L8.02441 19.2917L8.41789 19.5244L8.18177 20.0674L8.26048 20.6104L9.04743 21.2309V21.8517L9.36226 22.0844L9.28355 22.7825L8.96878 22.9376V23.5584L9.44097 23.8686H10.1493V24.4892L10.7002 24.877L10.9363 25.42L11.8807 25.4976L12.4316 25.3424L12.589 25.7304L13.2973 25.808V26.1183L14.3991 26.2734L14.7139 25.9632L15.1074 25.7303C15.1074 25.7303 16.0518 26.1183 15.8157 25.808C15.5796 25.4976 15.5795 24.9546 15.5795 24.9546L16.0517 25.42L16.5239 24.9546V25.7303L16.9174 25.8856L17.2322 26.5837L16.9174 27.3594L16.5239 27.5921L16.9961 27.8249L17.0748 28.4456L18.0979 29.4539L18.334 29.0661L18.5701 29.3764V29.6867L20.5376 29.8418L20.7738 30.1522L20.6951 30.6952L21.5608 31.1606L22.3478 31.0055L22.7413 31.6261L23.8431 31.4709L26.2042 32.014L26.8338 31.7036V31.1606L26.2042 30.4625L26.1255 29.7642L25.2598 29.0661L25.4172 28.7559L25.1811 28.6007H24.7876L24.7089 28.1353H24.0006L23.5284 27.5921L23.7645 27.4369L22.9775 26.9716L22.4266 24.7997L22.1119 24.024L20.9314 23.7913L20.3805 22.5502L19.2787 21.8522L19.1213 20.7661L18.2556 20.5335L17.9408 20.2232L17.4686 20.1456L17.7047 19.2923H16.9176L16.8389 17.4307L16.2093 16.3448L15.501 16.1896L15.2649 15.5691V14.871L13.927 14.6383L13.376 13.9396Z" fill="#FF6961" stroke="white" stroke-width="0.296754"/>
<path d="M26.2046 30.3838V29.7632L25.1815 29.0651L25.4176 28.6773L24.788 28.5221V28.2117L24.001 28.1341L23.3714 27.5911L23.7649 27.5136L22.7418 26.9706L22.1122 24.1006L20.853 23.7901L20.3021 22.5491L19.3577 22.0062L19.043 20.7652L19.8299 19.9895L19.5938 19.2136L20.4595 18.9811L21.7974 19.2136L22.0336 18.593L22.8205 19.2136L22.7418 18.2828L23.5288 17.5071L23.8436 18.1277L24.788 16.7314L25.9684 17.5071H26.5193V18.05L27.385 18.3603L27.6998 19.0585L28.959 19.8343L29.1164 19.524L30.0608 19.9895L30.2969 20.2222L30.2182 20.455L30.9265 20.6101L31.1627 20.9204L30.4543 21.2307L31.084 21.4634L31.3201 21.7738V22.3168L31.084 22.472V22.8598L31.5562 23.0925L31.6349 23.3252L31.3201 23.5579L30.6905 24.0235L30.9267 24.4114L30.5332 24.6441L30.2971 24.2562L29.8248 24.1011L29.7461 24.3338L29.1165 24.2562L28.8017 24.6441L29.5887 25.3422L29.51 25.8852L29.9822 26.1956L29.4313 26.8938L28.8804 26.9713L28.3295 27.5919L27.5425 29.0656V29.2208L27.7786 29.6086L27.3851 29.7637L28.2508 30.3843H26.2046V30.3838Z" fill="#FF6961" stroke="white" stroke-width="0.296754"/>
<path d="M31.2407 22.2393V21.6964L30.5324 21.0756L31.2407 20.9981L30.7685 20.5327H30.2176L29.9814 19.8345L30.5323 19.3691V19.9121L30.9258 20.2224L31.6341 19.6018L31.7128 18.5935L32.7359 17.7402L32.6572 17.43L31.9489 17.3525V16.8095L31.6341 17.0422L30.8471 15.9562H30.2176L30.4538 14.56H31.5555L31.713 14.8703L31.6342 15.2581L32.1064 15.7235L32.2638 15.4132L32.6573 15.2581V14.8703L32.2638 14.7927L32.1851 14.0946L33.0508 13.4741H33.7591V13.0862L33.523 12.9312L33.4443 12.3106L33.2082 12.3882L33.0507 12.6984L32.8933 12.9311L32.5785 12.776L32.8933 12.233L32.7359 11.9227L32.5785 11.6125V11.2247H32.8933L33.3655 10.6817L33.5229 10.2939L33.4442 9.82852L33.6803 9.59583H34.3886L34.8608 9.98366L34.546 10.294L34.4673 10.6818L34.3886 10.8369L34.6247 11.3023L34.9395 11.0696H35.8052L36.0413 11.7676L36.8283 13.0862L36.5135 13.2414V13.7068L36.9857 13.8619L37.3792 15.0254H38.1662L37.3792 15.7236L38.1662 15.9563L38.7171 16.189V16.4216L38.3237 16.8095L37.6154 17.4301L37.6941 18.2833L37.3006 18.8263L37.6154 19.3693L37.9302 19.9123L37.458 20.3776V20.8431L37.8515 20.9206L37.6941 21.5413L38.4024 22.0843V24.1011L38.0089 24.8767L37.9302 26.1178L37.7728 26.8159L37.5366 27.0486L37.4579 27.9019L37.0645 27.6692L36.5136 27.3589V27.8243L36.8284 28.057L36.1201 28.6002L35.8053 28.5226V28.2121L35.6479 28.3675L35.0183 28.2899V27.9019L35.3331 27.7468L35.0183 27.6692V27.2813L35.2544 26.6608L34.31 26.4281L34.8609 26.1953L34.5461 25.7298V25.4195L33.8378 24.7989H33.2869L33.1294 25.1868L32.8933 24.5663L31.9489 24.1008L31.6341 23.2474L31.2406 22.8596L31.2407 22.2393Z" fill="#FF6961" stroke="white" stroke-width="0.296754"/>
<path d="M24.788 31.6247L26.1259 32.0902L26.7555 31.7799L26.9129 31.2369L26.2833 30.3835L28.0934 30.461L27.3851 29.7629L27.9359 29.6854L27.5425 29.0648L28.6443 27.3584L29.0377 26.893L29.4312 27.0481L30.0608 26.1948L29.5099 25.8844L29.5886 25.1863L28.8803 24.6433L29.1164 24.2554L29.746 24.0228L30.3756 24.1779L30.4543 24.7984L31.084 24.4881L30.6905 23.9451L31.6349 23.402L32.2646 24.2554L32.8155 24.6433L33.1303 25.3414L33.3664 24.876H33.8386L34.4683 25.419V25.7293L34.8617 26.1171L34.0747 26.5051L35.2552 26.7378L35.0191 26.9706V27.6686L35.1765 27.8238L34.9404 27.9014V28.2892L35.57 28.3668L35.8848 28.0565V28.4443L36.1209 28.5996V29.8406L36.5144 30.6939L36.5931 31.237L36.0422 32.0127L35.6487 31.9351L35.0979 32.4006L35.0191 33.0987L34.4683 33.8745L33.996 34.4175V34.8053L34.2321 35.1932L34.547 35.2708L34.1535 35.5036L33.9961 35.9691L33.8387 35.6588L32.973 35.5812L32.2647 35.8139L32.1073 36.2018H31.7138L31.5564 35.8915L30.3759 35.6588L30.0611 35.2709L29.8249 35.1933L29.5888 35.5036L29.1953 35.2709L28.9592 35.1933L28.8018 35.5036L28.1722 35.4261L27.9361 34.6502H27.6212L27.3851 34.4175L26.5195 34.3399L26.2046 34.7278L25.7324 34.3399V34.1072L25.1028 33.254H24.8667L24.5519 32.866L24.3945 32.4781L24.788 31.6247Z" fill="#FF6961" stroke="white" stroke-width="0.296754"/>
</g>
<g opacity="0.4">
<path d="M20.6162 56.4461V55.9029L20.931 55.3599L21.3245 55.7478L22.8984 55.4375L23.6854 54.8168L23.8429 54.196L24.315 54.3514L25.0233 53.9633L25.4955 52.5673L25.9677 52.8001L26.0464 52.1795L26.676 51.5587L28.3287 51.9466L28.8796 52.1795V52.9553L29.1157 53.4207L29.6666 53.1104L30.1389 53.2656L29.824 53.4983V54.1191L30.1389 54.3518H30.8472L31.162 53.9638L31.4768 54.5069L31.0046 54.8949H31.3981V55.3603L30.9258 55.593L31.0832 56.136L31.7915 56.2138L32.8146 57.0671L33.5229 56.9896L34.546 57.8429L35.0969 58.6188L34.3099 58.7739V59.2395L33.9951 59.317L34.0738 60.0152L34.4673 60.4806L35.0969 60.3255L35.4117 61.2565H35.0969L34.4673 60.5583L34.7034 61.4894L35.6478 61.6444L36.3561 62.1099L35.6478 62.3426L35.2544 62.5755L34.3099 62.4979L33.3656 62.1099L32.2637 62.4202L31.5554 62.7306L29.6665 61.5669L29.3517 60.7912L28.4073 59.7826H28.0139L28.3286 60.5585L27.9352 61.0239L27.0695 60.8688L26.5186 60.0928L25.7316 59.2396L25.4166 59.0843H24.3149L23.8427 58.7741H22.977L22.5048 58.6965L21.8752 59.2396V58.8517L21.2456 58.6189L20.9309 57.9982L21.0883 56.9898L20.6162 56.4461Z" fill="#FFB480" stroke="white" stroke-width="0.296754"/>
<path d="M10.5425 42.7943L10.0703 42.4064L9.51939 42.2511L9.5981 41.9408L10.6999 42.1735L10.4638 41.7081H9.75546L9.04715 41.3979L9.44063 40.9324L8.73232 40.7773L8.41755 41.0876L7.78795 40.7773L7.94536 40.2343L8.57496 40.467L8.73238 40.1567L9.5981 40.2343L9.83423 39.924L10.4638 38.9155L9.67681 38.1398L9.44069 38.8379L8.9685 38.9155L9.12592 38.1398L8.65373 37.5966L8.18155 37.5192L7.94543 38.0622L7.001 37.9847L6.84358 38.6052H6.60746L6.52875 38.9155H7.07964V39.3033L6.76487 39.7688L6.60746 39.3033L6.21398 39.6912L6.05656 39.3033L5.58438 38.993L5.34826 39.4584L5.58438 38.6827L4.79737 38.1398L4.87607 37.6743L4.32518 37.5967L4.24647 37.8295H3.61675L2.98715 38.2174L2.90844 38.6052L3.30192 38.993L3.45933 40.0791L2.04272 41.0099L2.20013 41.6304L1.72795 41.5529L1.49183 41.7857L1.41312 42.4063L1.33441 42.9493L1.2557 43.3371L0.862227 43.2596L0.46875 43.4923L0.704873 43.725L1.09835 44.0354L1.01964 44.3457L1.88537 44.8887L1.80666 45.354L2.27884 45.8194L2.04272 46.5175L2.35755 47.1383L2.75103 47.6036H3.30192L3.7741 48.069L4.08887 48.4569L4.63976 48.3793L6.60727 48.9999H7.39429V48.612H7.31558L6.9221 47.9915V46.9055L6.52863 46.44V45.7419L7.47306 45.2765L8.10266 45.1989L8.96838 44.6559L8.88967 44.0352H10.5424L10.6998 43.88L10.3851 43.6473L10.0703 43.8025L9.51939 43.4922L10.5425 42.7943Z" fill="#FFB480" stroke="white" stroke-width="0.296754"/>
<path d="M19.9081 42.4066L19.8294 40.7778L19.5146 40.5451L20.1442 40.002H20.6164L20.8526 40.5451L20.9313 40.002H21.1674V40.4675L21.7183 39.7692L22.1118 40.1572L23.0562 39.3814L22.2692 38.6057L22.6626 38.7608L22.7414 37.5973L23.2135 37.8302L23.2922 38.2956L24.158 38.3732V38.6834H24.7876L24.7089 38.218L24.3154 37.9853V37.5197L24.7089 37.5972L25.181 36.3562L25.7319 36.6665L25.4958 36.2011H26.0467L25.6532 35.6581L26.4402 35.1925L26.519 34.6496L26.2041 34.572L26.519 34.2617L27.3846 34.4168L27.9355 34.7271L28.0929 35.4253L28.8012 35.5806L28.9586 35.1925L29.667 35.5806L29.9031 35.1149L30.5327 35.7357L31.4771 35.8908L31.8706 36.2786H32.1854L32.4215 35.7357L33.7594 35.5806L33.9955 35.9684L34.2316 36.046L33.9955 36.6665H34.3103L34.4678 37.2095L34.1529 37.675L34.4678 37.9078L34.3103 38.2956L34.6251 38.7611L34.7038 39.3041L34.3103 39.3816V40.0799L34.9399 40.7781H35.4908L35.7269 41.1659L35.5695 41.3986H34.4678L34.3103 41.6313V42.0969H34.1529V42.6398L33.3659 43.7258L32.815 43.1828L32.4215 43.4156L32.1068 43.1053V43.4931L31.7919 43.8034L31.7132 44.4241L32.028 44.5793L31.8706 44.9671L31.9494 45.1223L32.4215 45.0446L32.8938 45.4325L32.579 45.8204L33.1298 46.1306L32.815 46.5186H32.3428L32.2641 46.8289L31.7919 46.6738L31.4771 46.2083L31.3984 46.5962H30.9262L30.6901 46.2859L30.0604 46.5962L29.5095 46.6738L28.8799 46.2859L27.3059 46.3634V45.9755L26.9124 45.4325H26.6763L26.2041 44.9671L25.5745 44.8895L25.2596 45.1223L25.417 45.7428L25.3383 45.9755L24.4726 45.2774V44.9671L24.7874 44.7344L24.63 44.3465L24.1578 44.7344L23.9217 44.5016L23.5282 45.3549L22.9773 44.2689L23.3708 43.8034L23.2921 42.6399L22.8986 43.0277L22.1116 42.9502L22.1903 42.5623L21.482 41.3985L20.9311 42.019L20.695 41.7088L19.9081 42.4066Z" fill="#FFB480" stroke="white" stroke-width="0.296754"/>
<path d="M17.8618 56.291V55.903L18.6488 55.8254L18.4914 55.4376L17.4683 55.2824L17.7831 54.9721L17.4683 54.8171L17.9405 54.5843L17.6257 54.1189L18.8849 53.6533L18.4914 53.0328V52.5674L17.7044 52.6449L17.3896 51.8692L18.4127 51.1709L18.2553 48.6888L19.0423 48.1458L18.4914 47.6028H18.0192L18.7276 47.1373L19.5146 47.2925L19.8293 46.6718L19.7506 46.3615H20.3015L20.2228 46.7494L20.695 47.1373L21.3246 47.2149L21.8755 47.2924L22.5838 46.827L22.6625 45.9737H22.3477V45.2756L22.9773 44.4997L23.5282 45.4307L23.8431 44.6548L24.1578 44.81L24.63 44.3446L24.8661 44.6548L24.394 45.198L25.3383 45.8961L25.417 45.5859L25.1022 45.198L25.4957 44.81L26.204 44.9652L26.6762 45.3532L27.1484 45.741L27.3845 46.284L27.6206 46.5167L26.2827 48.3007L25.4957 49.2316L25.9679 49.4644L26.1253 49.9298L26.5188 50.1626L26.5975 51.6362L25.9678 52.2568V52.6447L25.5743 52.5671L24.866 53.9632L24.3151 54.2736H23.8429L23.6068 54.8166L22.8985 55.3595L21.4819 55.6698L21.1671 55.3595L20.931 55.2819L20.6162 55.8249V56.3681L19.6719 56.2906L18.8848 56.0577L18.5701 56.4456L17.8618 56.291Z" fill="#FFB480" stroke="white" stroke-width="0.296754"/>
<path d="M7.15844 49.0772L7.39456 48.5342L6.84367 47.8361L6.92238 46.8275L6.4502 46.2846L6.5289 45.664L8.10293 45.1986L9.0473 44.733L8.96859 44.1125L10.4639 44.19L10.7 43.9573L10.4639 43.5695L10.0704 43.8022L9.51955 43.4919L10.5426 42.949L11.7231 43.3368L11.8018 43.9573L12.274 44.1125L12.7462 43.5695L13.1397 43.8798L13.061 44.733L13.7693 45.0434L15.5007 44.1125L15.4219 43.9573L16.2877 44.2676L16.7599 44.6555L17.3895 44.5779L17.9403 45.121L18.5699 44.8882V45.664L18.6487 46.0519L19.2783 46.3622H19.6717V46.8275L19.5143 47.2154L18.6487 47.2932L18.1765 47.681H18.4912L18.9634 48.1464L18.2551 48.6894L18.3338 49.0772L18.4125 51.1716L17.6255 51.7145L17.4681 51.9474L17.8616 52.7231L18.4912 52.568L18.5699 53.0333L18.7273 53.4212L18.9634 53.654L17.9403 54.0419L17.6255 54.3522L18.019 54.6625L17.5468 54.8952L17.8616 55.1279L17.5468 55.3606L18.4125 55.5158L18.5699 55.8261L17.9403 55.9812L17.8616 56.2916H17.0747L15.973 55.8261L15.2647 55.2049L14.9499 55.0498L14.399 54.8946V54.5844L15.0286 54.4292L15.1073 52.8003L14.5564 51.6368L13.9268 51.5593L13.612 52.0248L12.4315 51.9473L11.7232 51.5593L11.1723 52.0248L10.464 51.6369L9.75573 50.9387L9.44096 51.0163L9.36226 50.6285L8.65395 50.4733L7.867 50.0855L7.15844 49.0772Z" fill="#FFB480" stroke="white" stroke-width="0.296754"/>
<path d="M26.5186 51.4042V50.2407L26.1251 49.9304V49.6202L25.5742 49.1545L27.6991 46.5949L27.5417 46.2846H28.9583L29.5092 46.75H30.0601L30.7684 46.3622L31.398 46.6725L31.5554 46.1295L31.8702 46.75L32.4211 46.9052V46.5173H32.8146L33.2081 46.2071L32.5784 45.8193L32.8932 45.509L32.3423 45.0435L31.8702 45.1211L31.7127 45.0435L32.1062 44.6555L31.7127 44.4228L31.9489 43.5695V43.0265L32.3423 43.4144L32.8146 43.2593L33.2868 43.7247L34.3098 42.6386L34.1524 42.1733L34.3098 41.3976L35.2543 41.4751L35.5691 41.863L35.8052 42.0957L35.9626 41.7854H36.1987L36.5922 42.1733L36.8283 42.2508L36.907 42.7164L36.4348 42.794L36.3561 43.0267L36.8284 43.4146V44.5781L36.671 45.1988H36.1988L36.5922 45.6642L36.671 46.2072L36.2775 46.4399L36.1988 46.9053L35.8839 46.8278L35.4905 47.2933L35.8839 47.8363V48.4569L35.333 48.8447L35.0969 49.2327L36.1988 50.3962L35.7265 50.8617L35.8052 51.1719L36.3561 51.5599L36.7496 52.1805L36.5922 54.4299L36.8284 54.7402L36.5922 54.9729V55.2832L36.8284 55.3608L37.1431 55.671V55.9038L37.3793 56.1366L37.3006 57.0675L36.7497 58.1535L35.7266 58.5415H35.1757L34.5461 57.7655L33.6017 57.0675H32.8934L31.8703 56.2142L31.0833 56.059L31.0046 55.671L31.3981 55.5159L31.4768 54.9729L31.162 54.8178L31.3981 54.6626V54.3523L31.0833 53.9645L30.8471 54.1196L30.1388 54.2748L29.9027 54.1196V53.5765L30.2175 53.4213C30.2175 53.4213 30.2175 52.9559 29.9027 52.9559C29.5879 52.9559 29.5092 52.9559 29.5092 52.9559L29.2731 53.3438H29.1157L28.9583 52.8783V52.2578L28.25 51.7924L27.6204 51.6373L26.5186 51.4042Z" fill="#FFB480" stroke="white" stroke-width="0.296754"/>
<path d="M19.9864 40.0797V39.5365L20.7734 39.4589L20.616 38.063L20.9307 37.9854L20.852 36.3565L20.3798 35.5808H20.2224L19.9076 35.9687L19.5142 36.0462L19.1207 35.3481V35.0377H19.4355L19.6717 33.7967H18.8059L19.2781 33.6415L18.8059 33.021L19.1207 32.633L18.4911 32.5554H18.1763L17.1533 31.9348L16.9171 32.4778L16.3662 32.8659H16.2088L15.8153 32.4003L15.4219 32.633L14.4775 32.09L13.9266 31.9348L13.7692 32.2451L12.2739 32.1675L11.8804 32.9435H11.4869V32.4778L11.2508 32.2451L11.0147 32.5554L10.6999 32.1675H10.2277L9.83424 31.8573L9.67682 32.1675L9.12593 32.4003L9.04722 33.021L9.67682 33.3313V33.564L9.12593 33.7967V34.8827L9.28335 35.1155L8.88987 35.038L8.81116 35.7361L9.20464 36.0464L8.88987 36.4342L8.49639 36.6669V37.1325L8.10292 37.2101V37.5204H8.65381L9.12599 37.9858L9.2047 38.839H9.44082V38.5287L9.51953 38.2185H9.8343L10.3852 38.7615V39.0717L9.8343 40.0027L9.44082 40.1579L8.81122 40.2355L8.73252 40.4682L8.02421 40.313L7.78809 40.7785L8.33898 41.0887L8.65375 40.9335H9.59818L9.28341 41.399L9.67689 41.5543L10.4639 41.6318L10.7 42.0973L10.3065 42.1748L9.91307 42.0197H9.5983L9.51959 42.2524L10.0705 42.4075L10.5427 42.6402L10.6214 42.873L11.0149 43.1057L11.8806 43.3384V43.8815L12.2741 44.0367L12.7462 43.416L13.1397 43.9591L13.061 44.8124L13.3758 45.1227L13.4545 44.9675H13.848L14.3201 44.7348L15.4219 43.9591H15.7367L15.8154 44.2694L16.3663 44.1918L16.7598 44.6572L16.9172 44.5021H17.4681L17.9403 45.0451L18.019 44.8899L18.4912 44.8124L18.7273 45.1227V45.8985L19.1208 46.2088L19.5142 46.2864L20.38 46.3639V46.8293L20.5374 46.9845H20.8522L20.9309 46.7517V47.062H21.4031L21.5605 47.5275L21.8753 47.1396L22.1114 47.2172L22.6623 46.7517V45.9759L22.4262 45.8209V45.2778L23.0558 44.347L23.2919 43.9591L23.2132 43.2608L23.3706 42.6402L22.9771 42.9505L22.1114 43.0281L22.1901 42.33L21.6392 41.399H21.4817L20.8521 42.0195L20.616 41.9419L19.9076 42.5625L19.8289 40.8561L19.5142 40.7009L19.9864 40.0797Z" fill="#FFB480" stroke="white" stroke-width="0.296754"/>
<path d="M20.7732 39.459L20.6945 38.0631L20.8519 37.9079L20.9306 36.2015L20.4584 35.7361H20.0649L19.9075 36.0463H19.5928L19.278 35.4258V35.0378L19.5141 34.9602L19.5928 33.7967L19.1206 33.7191L19.3568 33.564L19.042 32.9432L19.4355 32.5553L19.3568 32.0124L19.5142 30.9264L20.4586 30.616L20.7734 30.6938L21.4817 31.2367L22.3474 31.0816L22.7409 31.6245L23.8427 31.4694L24.7084 31.7797L24.3936 32.4003L24.7871 33.021L25.1806 33.3313L25.7315 34.1069L25.6528 34.3396L26.3611 34.805V35.1153L25.8889 35.5033L25.5741 35.6585L25.8889 36.1239L25.4167 36.279L25.5741 36.5893L25.1019 36.3566L24.7084 37.4426H24.3936V38.0633L24.6297 38.296L24.551 38.6063L24.1576 38.5287V38.296H23.2918L23.2131 37.753L22.6622 37.5202L22.5835 38.6062H22.3474L22.4261 38.9165L22.8983 39.2268V39.4595L22.19 39.925L21.9539 40.0802L21.5604 39.7697L21.1669 40.2354V39.925H20.7734V40.2354L20.616 40.0026H20.0651V39.5371L20.7732 39.459Z" fill="#FFB480" stroke="white" stroke-width="0.296754"/>
</g>
<g opacity="0.4">
<path d="M15.7369 72.58L16.6813 72.8128L17.1535 72.5025L17.4682 72.8904L18.0978 72.968L18.1766 72.1146L18.7274 72.1922L19.7505 71.5716L19.6718 71.1836L19.0422 70.7958L19.357 70.6407L19.5144 69.5547L19.2783 69.1666L18.8848 68.9339L19.357 68.7011L20.3014 69.089L20.3801 68.7011L20.0654 68.3131L19.9866 68.0804H20.4588L21.0884 66.9944L21.0097 65.7534L21.5606 65.5207L21.7967 64.9776H22.1902V64.6673L21.7967 64.2017L21.8754 63.8914L22.3476 64.1241V64.5122L22.8198 64.6673L22.8985 65.1328H23.2134L23.5281 64.6673L24.079 64.9001L24.4725 64.3569H25.1808L25.4169 63.8914L26.3614 64.5527L26.9909 64.6671L27.0697 64.9776L28.1715 65.9085L28.2502 66.374L28.0928 66.6068H27.8567L27.6993 66.917L27.9354 67.15L28.0141 67.4602L27.778 67.5378V68.0032L28.0927 68.1584L28.014 68.3135H27.6206L27.2271 68.9343L27.3058 69.7877L27.2271 70.641L26.9909 71.029L26.6761 71.3394L26.2826 71.2618L25.8105 72.1928L25.7318 72.7358L26.0465 72.8133L25.7318 73.0461V73.434L25.3382 73.822L25.0234 73.5116L24.866 73.7444L25.1022 74.365L24.5513 74.5979L23.2134 74.8306L22.8199 73.8996H22.1903L21.8755 73.2013L22.3477 72.891L21.5607 72.5807L21.2459 72.3479L21.0098 72.5807L21.482 73.2013H20.695L20.0654 73.5116L20.5375 73.9772L21.0097 74.2099L20.3801 74.2875L19.357 73.9772L19.1209 74.0548L19.5931 74.365L19.357 74.9081L19.1209 75.2961L19.0422 75.6838H17.7042L16.9172 75.2961V75.8392L16.1302 75.7616L15.9728 75.3737L15.3432 75.2961L14.9497 75.0634V74.6753L14.4775 74.365V73.9772L14.635 73.6668L15.2646 73.5118L15.1858 73.1239L15.7369 72.58Z" fill="#59ADF6" stroke="white" stroke-width="0.296754"/>
<path d="M26.1249 72.8903L25.7314 72.6574V72.2695L26.2823 71.3386L26.6758 71.4161L27.3054 70.6401V69.7094L27.2267 68.9336L27.4628 68.3127H28.0137L28.1711 68.0801L27.7777 68.0025V67.4595H28.0138V67.1492L27.699 66.8387L27.7777 66.5284L28.1711 66.6835L28.3285 66.3732L28.2498 65.9077L28.3285 65.675L29.3516 65.7527L29.509 66.1405L30.296 66.761L30.5321 67.5371L30.8469 67.9248V68.4678L31.1617 68.8557L31.4765 69.0108V69.3212H31.083L30.7682 69.5541L30.847 69.7869H32.0274L32.657 70.1748L32.8145 70.7178H33.0506V71.5713L33.6015 72.4247L33.7589 72.8901L33.0506 72.4247L32.7358 72.7349L33.1293 72.8901V73.8986H32.1849L31.7914 74.5968L31.3979 74.752L30.847 74.0538L30.5322 74.209L30.06 74.8295L29.7452 74.9848H29.5878L29.1943 74.5193L28.9582 74.5968L28.486 74.0538H28.4073L28.2498 74.209H27.8564L27.4629 73.8986L27.3842 73.4331L26.912 73.5106L26.1249 72.8903Z" fill="#59ADF6" stroke="white" stroke-width="0.296754"/>
<path d="M18.9633 75.5276L19.5929 74.4416L18.9633 73.8986H19.4355L20.2225 74.2865H21.0882L20.0651 73.5106L20.4586 73.2004L21.5603 73.2779L21.0095 72.6574L21.2456 72.2693L21.403 72.5796L22.3474 72.8901L21.9539 73.2004L22.19 73.821L22.8983 73.8986L23.2131 74.8294L24.1575 74.6743L25.1806 74.4416L24.8658 73.8209L24.9445 73.5106L25.338 73.8209L25.8102 73.4331L25.6528 72.9674L25.9675 72.8123L26.9906 73.5106L27.3841 73.4331L27.4628 73.8209L27.9351 74.2864L28.3285 74.364L28.5646 74.0536L28.9581 74.5967L29.6664 74.8294L29.4303 75.2174L29.8238 75.4502L29.5877 75.6829L29.6664 76.6138L29.4302 76.9243L29.5877 77.6225L28.8794 77.7001V77.9328L29.2728 78.0879L29.3515 78.3982L29.1154 78.4758L29.1941 79.0189L29.9024 78.5533H30.1386L30.0598 79.3292L30.5321 79.4844V79.6395H31.2404L31.3978 79.8722L31.2404 80.4153L31.7126 81.1911C31.7126 81.1911 32.1061 81.7342 31.7913 81.7342C31.4765 81.7342 31.319 81.7342 31.319 81.7342L30.7682 81.5791L30.532 81.3464L30.1386 80.4153L29.9024 80.1826L29.3515 80.5705L29.5089 81.1135L29.0367 81.8118L28.0136 82.2773L27.9349 82.6652L28.2497 83.053L28.171 84.0616L28.0923 84.3718L27.2266 83.984V83.5959L26.9118 83.5185L26.8331 83.7512L26.1248 84.3718L25.6526 84.2943L24.9443 84.6821H24.4721L23.9212 84.2943L23.8425 84.3718L23.5277 84.1391L23.449 83.7512L23.9212 83.6736L23.3703 82.9754L23.8425 83.0529L23.9212 82.8201L23.6064 82.2771L22.9768 81.8893L22.8981 82.3547H21.6783L21.1667 81.9668L20.7732 81.734L21.088 82.471L20.7732 82.7813L19.5927 82.6261L19.2779 82.2771L18.8844 82.5098H18.5696L18.8058 82.0444L17.8613 81.6566L18.0187 80.2604L18.4909 80.1052L18.2548 79.7174V79.3293L17.94 79.0967L18.5696 78.0881L19.3567 77.7778L19.2779 77.1572L20.065 76.6141L20.3797 76.8469L20.6159 76.3813L20.3011 76.2262L20.2224 75.8383L19.5141 76.3813L19.1206 76.1486L18.9633 75.5276Z" fill="#59ADF6" stroke="white" stroke-width="0.296754"/>
<path d="M29.6664 75.5277L29.273 74.9846L29.9026 74.907L30.5322 74.2862L30.7684 74.0536L31.2405 74.7519L31.7914 74.5191L32.1849 73.9761H33.0506L33.2867 74.5965H33.9163L33.9951 74.7519L33.4442 75.3725L33.6803 75.838H34.546L34.9395 76.3035V76.6138L34.7034 77.0016L34.9395 77.0792L35.4904 76.6913L36.12 76.7689L36.0413 77.3119L35.8051 77.8551L35.4903 78.4758H35.0968L34.4673 78.3205L35.4904 79.1739L35.8052 79.6394L36.12 80.4152L36.9857 80.9583V81.3463L36.7496 81.4239L36.0413 81.5789L34.2312 80.8807L33.6016 81.5789L32.5786 81.0358L32.2637 81.5013H32.0276L31.162 80.4928L31.4767 80.0274L31.2405 79.5619L30.4535 79.4843L30.06 79.0963L30.2174 78.4757L29.9026 78.3981L29.1943 79.0963L29.3517 78.4757L29.273 78.0102L28.8008 77.8551L29.6664 77.7L29.509 77.0016L29.8239 76.6913L29.6664 75.5277Z" fill="#59ADF6" stroke="white" stroke-width="0.296754"/>
<path d="M20.6159 81.6554L21.1668 82.3535L20.7733 82.8192L20.3011 82.5089L19.6715 82.5865L19.3567 82.276L18.6484 82.664L18.8059 83.2846L19.278 83.8277L19.5142 83.4398L19.8289 83.595L19.7502 83.9828L20.065 84.138L19.9863 84.6036L19.5141 85.069L19.8289 85.3794L19.5141 85.4569L19.4354 86.1551L18.9632 85.9224L19.1206 86.6205L19.7502 87.474L19.0419 88.7925L19.8289 89.3357L19.6715 89.8011L19.5141 90.4218L20.2224 90.965L20.065 91.6631L20.5372 92.4389L20.6159 93.2922L20.9307 93.5251L20.2223 93.7579L20.3011 94.2233L20.6158 94.456L20.3011 95.7746L21.088 95.8522L21.2454 96.4727L20.6158 96.3176V96.7054L21.088 97.2485L21.5602 97.3261V98.0244L22.1111 98.4899L22.1898 99.4983L22.8981 99.3431L22.3472 100.119H21.6389L21.5602 100.74L21.7963 101.515L22.5046 102.756L22.2685 102.911L22.1898 104.773L22.7407 105.471L22.8194 106.48L22.8981 107.023L23.8425 107.488L24.5508 107.178L25.023 108.109L24.8656 108.497L25.3378 108.962L25.023 109.661L24.3147 110.436L25.2591 110.824L26.2035 110.591L26.0461 110.204H26.597L26.6757 109.738L26.2822 109.506L26.597 109.04V107.489L26.2822 107.334L26.9513 106.791L27.4631 105.317L27.9354 104.851L27.6993 104.153L27.0697 102.99L26.4401 101.749L26.2039 101.205L26.7548 100.663H25.4169L26.2039 99.5766L26.5974 98.7232L26.9122 96.784L26.1252 95.543V95.1549L26.5974 94.7672L25.8103 94.2241L25.8891 92.7504L26.5974 92.3626L25.8891 91.0441L25.9678 89.2601L26.4399 88.7171L26.8334 89.4153L27.3056 88.7946L27.1483 88.4068L26.676 88.3292L26.3612 88.0184L26.676 87.3978L26.8334 87.708L27.2269 87.8633L27.3844 87.3202L27.7779 87.0874L27.6991 86.6995L26.9908 85.536L26.2038 85.1481L25.8103 84.4498L25.6529 84.2169L25.0234 84.6825L24.4725 84.76L24.0003 84.2945L23.7642 84.4498L23.4494 83.7515L23.9215 83.5964L23.2132 82.8981L23.8428 83.0533L23.5281 82.1223L23.0559 81.8121L22.9772 82.3551H21.718L20.6159 81.6554Z" fill="#59ADF6" stroke="white" stroke-width="0.296754"/>
<path d="M27.66 87.2014L27.3846 87.3177L27.2669 87.8996L26.8735 87.7056L26.716 87.2789L26.2832 87.9771L26.5981 88.3262L27.11 88.365L27.3067 88.8305L26.8345 89.4511L26.441 88.7917L25.9293 89.2572L25.89 90.9248L26.6376 92.3984L25.89 92.7862L25.8112 94.2211L26.5588 94.803L26.126 95.0744L26.0866 95.5012L26.913 96.8197L26.5588 98.681L25.457 100.659L26.7556 100.62L26.244 101.163L27.6213 104.072L27.936 104.848L28.4476 105.003L28.487 105.507L27.6606 105.663L27.031 106.71L27.3853 107.02L27.6215 107.719H27.9756L28.0936 108.339L28.3298 109.115L29.3139 109.193L29.9039 108.3L30.2188 108.107L30.5336 107.525L30.3764 107.175L30.1792 106.71L29.4317 106.244L30.0218 105.934L31.0842 104.848L31.1629 103.995L31.2023 103.025H31.5172L32.068 101.008L32.1077 99.4183L31.7532 97.9446L32.8157 96.8973L33.0518 96.3929L33.406 96.3153L33.8782 95.5396V94.5698L33.1699 92.5144L32.7764 92.3204V91.3895L32.2255 90.2259L32.0682 88.9075L32.3829 88.1703L33.0125 87.5497L33.406 86.1925L33.7208 85.9211L33.9963 86.115L34.5862 85.5329L34.8616 84.9899L34.7436 84.3694L34.5074 84.1367V83.6324L35.3338 83.5935L35.8454 83.1667L36.1602 81.538L34.3502 80.9173L33.5632 81.6156L32.6581 81.0725L32.2647 81.5769L31.8712 81.8096L30.9662 81.6932L30.612 81.4606L29.9824 80.2583L29.3921 80.491L29.5893 81.1116L28.999 81.81L28.0152 82.2755L27.8972 82.5857L28.212 82.9349L28.1333 84.4472L27.2286 84.0207L27.3073 83.6327L26.9532 83.4776L26.9138 83.749L26.2055 84.3698L25.6939 84.2922L26.2448 85.2232L27.0318 85.5723L27.622 86.5809L27.66 87.2014Z" fill="#59ADF6" stroke="white" stroke-width="0.296754"/>
<path d="M14.1631 54.9725H15.0287L15.8158 55.6707L16.9175 56.2913L17.7833 56.3688L18.649 56.5241L18.9638 55.981L19.5934 56.3689H20.6164L21.0886 57.2222L20.9312 57.9203L21.1673 58.6185L21.4821 58.6961L21.8756 58.7737V59.2391L22.5839 59.5494L22.82 60.1699L23.1348 59.7821L23.5283 60.0147L24.0004 60.5577L25.1022 60.4803L24.3152 59.7821L25.2596 59.5494L26.1253 60.1699L25.4957 60.4026L25.5744 60.8681L26.2827 61.4111L26.7549 61.7214L27.2271 61.6438L27.5419 61.799L27.4632 62.4971L27.3845 63.5831L26.8336 64.2037L26.991 64.5915H26.4401L25.4957 63.971L25.2596 63.8934L25.1022 64.3588H24.3939L24.0004 64.9018L23.5282 64.7467L22.8986 65.2897L22.8199 64.5915H22.3477L22.4264 64.1261L21.8755 63.971L21.7968 64.2812L22.1903 64.8242L21.6394 64.9794L21.5933 65.5044L21.0098 65.7552V64.7467L20.9311 64.0481L20.6163 63.6603L20.3015 63.893L19.9081 64.4359L19.5146 63.5051L18.885 63.35L19.2785 62.8845L18.5702 62.7293L18.0193 62.3415L18.334 62.0312V61.7209L17.8619 61.7985L17.5471 61.5658L18.098 61.2555L17.8619 60.6348L17.5471 60.247L16.9962 60.5572L16.7601 59.7816L16.5239 59.4713H16.2878V60.0919L15.4221 59.161L15.1073 58.7732L15.0286 58.3076L15.5795 58.1525L14.8712 57.7646L15.3434 57.5319L14.399 56.8338L14.1631 54.9725Z" fill="#59ADF6" stroke="white" stroke-width="0.296754"/>
<path d="M15.3434 59.2386L16.2878 60.2471L16.3665 59.4714L16.8387 59.9368V60.4022L17.0748 60.7125L17.547 60.2471L18.0979 61.1004L17.3896 61.5659L17.8618 61.9537L18.3339 61.7986L18.4914 62.1089L17.9405 62.3415V62.4967L17.8618 62.9621L17.4683 62.7294L17.1535 63.1948L17.2322 63.893L16.5239 63.9706L16.5436 65.4442L15.8943 66.1229L15.2844 66.2199L14.8712 66.5301L14.5565 66.4526L13.5334 67.3058L13.376 67.5385L12.2348 67.5967L12.3528 66.7628L11.8019 66.6077L11.6445 66.2974L12.038 66.0647L12.1954 65.5216L11.8019 65.3665L11.8807 64.5132L12.2741 64.1254L11.7232 63.3495L12.1167 63.5047L12.5889 63.0393V62.8842L12.3528 62.6515L12.4315 61.7982L12.2741 61.643L12.7463 61.4102L13.1397 61.5655V62.0309L13.4114 61.6887L13.8874 61.6623L14.7138 60.7897L15.2253 60.7315L15.4024 60.2661L15.2647 59.6262L15.3434 59.2386Z" fill="#59ADF6" stroke="white" stroke-width="0.296754"/>
<path d="M13.2188 67.5384L14.5567 66.53L14.9501 66.6076L15.2649 66.2197L15.9224 66.0779L16.4686 65.4346L16.5241 63.9703L17.149 63.8833L16.9963 63.1946L17.4685 62.8068L17.8619 63.1171L18.0241 62.4142L18.4128 62.8067L19.3207 62.8842L18.8063 63.3498L19.4359 63.5825L19.6029 63.9429L20.0655 64.5132L20.2229 64.1255L20.6164 63.7374L20.9312 64.1255L21.0195 65.8865L21.0099 66.9178L20.7738 67.7711L20.5706 68.041L20.0655 68.1591V68.3918L20.3803 68.6245L20.3016 69.0125L19.4359 68.8573L18.9637 69.0125L19.3322 69.1015L19.5933 69.6332L19.5146 70.7192L19.1211 70.8744L19.5795 71.134L19.7507 71.4948L18.9033 72.1475L18.1767 72.1747L18.098 72.891H17.5471L17.098 72.54L16.6027 72.7358H15.8944L15.6583 72.5031V71.5722L15.8944 70.8741L16.3666 71.0293L16.3061 70.5137L16.4914 70.053L16.2879 69.8476L15.8944 69.788L16.2371 70.1209L15.6583 70.5638L15.3435 70.2536L15.4223 69.9433L15.1487 69.6926L14.5527 69.3979L13.5335 68.6246L13.7696 68.0816L13.2188 67.5384Z" fill="#59ADF6" stroke="white" stroke-width="0.296754"/>
<path d="M36.0905 81.626L36.981 81.2966L36.8696 82.2842L37.76 82.6134L37.2039 83.162L37.3152 83.7106L38.0943 84.2592L39.096 83.93L39.7638 84.698L39.8751 86.2336L39.096 86.5628L38.6509 86.7823L38.5393 87.5502H39.6526L39.8752 87.7695V88.9764L40.3204 90.0732L39.9862 90.6219L40.4314 92.048L39.541 91.6092L38.8732 91.2801L38.6506 91.4994L39.8749 92.3768V92.7061H39.541L38.9845 93.3641V94.7903L38.3167 95.8872L38.0941 96.5451L37.9828 97.8614L38.6504 98.8487L38.8732 100.055L37.9828 101.262L38.3167 102.03L38.2054 103.456L38.6506 104.663V105.321H38.2054V105.979L36.6472 106.967L36.0908 106.528L34.7555 106.418L33.9764 106.638L35.4232 107.734L35.0891 108.392H33.8647L32.9744 108.173L33.5305 109.27L32.7514 109.489L31.861 109.16L32.1951 108.392L31.5274 107.405V106.527L31.416 105.65L31.6386 103.895L31.416 102.907L31.9723 101.372L32.0838 99.5068L31.6386 97.8614L32.9743 96.7645L33.7533 96.2159L33.976 94.4609L33.0855 92.7059L32.7514 92.3766V91.6087L32.1952 90.5117L31.9724 89.0857L32.9744 87.4403L33.4195 86.124H34.0873L34.8664 85.2464V84.4785L34.4212 84.1494V83.4912L35.6455 83.601L35.9795 82.7236L36.0905 81.626Z" fill="#59ADF6" stroke="white" stroke-width="0.296754"/>
</g>
<g opacity="0.4">
<path d="M39.1111 99.263L38.9538 98.0995L38.4815 97.4789L38.5602 96.3154L39.1898 95.2293L39.0324 94.531V93.445L39.5833 92.8245H39.8981L39.5046 92.4366L38.5602 90.9629L39.6619 91.5835L40.3702 92.2042L40.2915 91.506L39.9767 90.6526L40.3702 90.1095L39.9767 89.0235V87.86L39.6619 87.5497L38.5602 87.3943L38.4814 86.5411L39.7407 86.0756V84.757L39.662 84.4468L39.8197 84.214L39.8984 83.671L41.0789 83.8262L41.4723 83.2831H41.551L42.1019 83.9813L42.0232 84.757H42.4167L42.8889 85.4554H43.3611L43.5186 85.9209L44.699 86.1536L45.2499 86.3087L45.1712 86.6968L44.8564 86.7744V87.1622L44.3055 87.5501L44.1481 88.1706L43.2824 88.7137L43.7546 89.1794V89.7999L42.9676 89.9551V91.5064L44.2268 91.7391L44.3843 91.8942L44.2268 92.2821L43.4397 93.0579L42.9675 92.6699L42.5741 92.9027L42.1018 92.6699L42.1805 93.601L41.7083 94.2991L41.787 94.9197L42.2592 94.687L42.4166 95.6179L42.1805 96.0836L41.9444 97.1696L41.3935 98.1781L40.8426 98.2556L39.8982 99.2641H39.1112L39.1111 99.263Z" fill="#C780E8" stroke="white" stroke-width="0.296754"/>
<path d="M42.2588 94.6867L41.8654 94.997L41.708 94.3764L42.2589 93.6779L42.0228 92.5145L42.495 92.9798L43.0459 92.6696L43.3607 92.9798L44.3051 92.3593L44.3838 91.8937L43.1245 91.5058L43.0458 90.0323L43.8328 89.7995V89.2563L43.2819 88.6356L44.1476 88.1703L44.2263 87.5497L44.9346 87.1617L44.8559 86.9288L45.2494 86.7736L45.3281 86.3858L44.7772 86.0756L45.3281 85.61L45.6429 85.4548L45.8003 85.9205H46.2724L46.5873 85.7651L47.217 86.4634L46.9809 86.7736L46.9022 87.1617L47.0595 87.3945H47.5317L47.7678 87.7824L49.1057 88.0151L49.1844 88.3254L48.7909 88.403L48.5548 88.7907L49.4204 88.9459L49.4991 89.3341L48.7908 89.4892C48.7908 89.4892 48.9484 89.9546 48.6335 89.9546C48.3187 89.9546 48.0036 89.6444 48.0036 89.6444L47.7675 89.9546L47.2953 89.8771L47.0591 90.3425L46.9018 90.808L46.3509 91.0408L45.4852 91.5839L44.9343 91.9718L44.8556 92.5148L44.6982 93.4459L44.0686 93.8337L43.7538 94.5318L43.3603 94.9975L42.2588 94.6867Z" fill="#C780E8" stroke="white" stroke-width="0.296754"/>
<path d="M44.9354 91.8164L45.9584 91.2732L46.9815 90.8078L47.2963 89.9544H47.7685L47.9259 89.7217L48.8703 89.9544L49.0277 89.4113H49.5786L49.4999 88.9458L48.5555 88.7907L48.7917 88.3252L49.1851 88.4027L49.1064 88.0149L47.8471 87.8597L47.5324 87.4719L46.9027 87.3943L46.9815 86.9287L47.2962 86.696L46.5879 85.8426H46.037L45.7223 85.4547L44.6992 86.0753L43.44 85.8426L43.3613 85.5323H43.0464L42.5743 84.7564H42.0234L42.1021 83.9806L41.6299 83.36V82.429L42.3382 81.6532L42.4169 81.2652L43.1252 80.8771L43.2826 80.4894L43.9909 80.4118V79.4809L44.9353 79.5585L45.2501 79.0929L45.6435 79.2482L45.5648 81.1096L46.6666 81.5751L47.2962 81.4199L47.6897 81.1871L48.1622 81.4975L48.3983 80.9543L49.3427 80.4889L50.4445 80.7216L51.5464 81.3424L52.3334 82.0405L53.2778 82.4284L54.2222 82.8163L54.9305 83.437L55.4027 84.523L54.9305 85.0661L54.1435 85.4539L52.8056 86.385L52.0973 87.0832L52.0186 87.6263L51.0741 87.7816L51.625 88.6348L51.3889 89.2555L51.4676 89.9537L51.7824 90.4193L50.8379 90.4968L49.9723 90.9623V91.5053L49.8149 92.0486L49.264 91.8934L48.7918 91.8158L47.7687 91.3501L47.2178 91.6605L47.1391 92.0486L46.1947 92.4364L46.116 91.7381L44.9354 91.8164Z" fill="#C780E8" stroke="white" stroke-width="0.296754"/>
<path d="M52.7859 99.9452L53.7877 98.8483L54.678 97.5322L54.7894 95.5578L54.678 94.1317L54.2329 92.925L53.7877 91.718V90.5114L53.0086 89.8532L52.2295 88.976L52.3408 87.9884L53.0086 86.8917L54.0104 86.3429L54.4555 85.7943L56.0137 85.6846L56.3476 86.8914L57.0154 89.3048L58.1284 90.621L58.9075 91.6084L59.3527 92.2664L59.2414 93.4733L58.9073 93.8025V95.2285L58.4621 96.216L58.2393 96.9841L58.0166 97.9713V98.9588V99.7267L57.2375 100.276L56.7924 101.153L55.4568 101.592L55.3455 102.25L54.6777 102.579L53.7873 103.128C53.7873 103.128 53.4532 103.018 53.4532 102.579C53.4532 102.14 53.1191 101.591 53.1191 101.591L53.6755 100.824L52.7859 99.9452Z" fill="#C780E8" stroke="white" stroke-width="0.296754"/>
</g>
<g opacity="0.4">
<path d="M57.3702 65.6767L56.4257 65.2888V65.0561L55.6387 64.4355L55.8748 63.8149L56.5831 62.9614L56.6618 61.8754L57.2127 61.5651L57.4488 61.8754H58.1571L58.3933 61.6426L59.7311 61.7978V61.2546L60.2033 61.0995L60.5181 59.781L61.1477 59.6259L60.7542 58.9276L61.4625 57.9191L62.3282 57.5312L62.2495 57.2209L62.7218 56.7553L62.5643 55.9795L62.0921 55.902L61.62 55.0485L62.2496 54.2729L63.3514 54.428L63.7449 53.8074L65.0827 53.342L66.4206 53.7298L67.1289 54.1953L67.9945 52.9543L68.6241 53.1096V53.575L67.6011 54.2732L68.2306 54.6612V55.0492L67.4437 54.8164L67.365 55.7473L67.8372 56.0577L67.2863 56.2128L67.6798 57.4538L68.0733 57.9968V58.2296L67.7584 58.3847V59.0054V59.2382L66.8928 59.626L67.2075 60.4018L66.5779 60.557L66.1057 61.488L66.5779 62.0311L66.6566 62.419L66.2632 62.7293L66.1058 63.3501L66.4206 63.9706L65.9484 64.5912L65.6336 64.3585H65.0827L64.6892 64.6688L64.7679 65.5999L65.1614 65.7551L65.3975 65.4448L65.6336 65.5999V66.6085H65.3189L64.768 66.143L64.6104 66.3757L63.9809 65.7551V65.1345H63.6661L63.5873 64.8242L62.9577 64.669L63.3512 64.3585L62.4856 63.6603L61.2263 63.5827L60.6754 64.0482H59.731L59.3376 64.1259L59.495 64.7466L58.7867 64.9018L57.921 64.2811L57.4488 64.5915L57.5275 64.8242L57.7636 65.0569L57.3702 65.6767Z" fill="#9D94FF" stroke="white" stroke-width="0.296754"/>
<path d="M54.567 66.6251L54.4832 67.3653L54.9566 67.9686L55.0957 68.3252L55.4015 68.2702L55.8189 67.6392L56.292 66.8438L56.0693 66.2679L56.0971 65.61L55.6468 65.0803L55.1785 65.9665L54.4272 65.7742L54.3994 66.3501L54.567 66.6251Z" fill="#9D94FF" stroke="white" stroke-width="0.0741886"/>
<path d="M55.7348 68.435L56.4302 67.1735L56.6806 66.7895L56.3467 66.2411L56.458 65.3087L57.3484 65.6925L57.7379 65.1166L57.5431 64.7872L57.4875 64.5406L57.8493 64.3212L58.7675 64.9243L59.463 64.7321L59.3792 64.1562L59.7966 64.0465L60.7147 64.0737L61.2156 63.6075L62.4121 63.6898L62.2173 63.6349L62.9128 64.0187L63.3299 64.3752L62.9959 64.6495L63.5804 64.8416L63.6917 65.116H63.9976L63.9421 65.7192L64.5822 66.3223L64.7212 66.5968L64.6935 67.3098L64.8883 67.776L65.5284 68.434L65.5007 68.8728L65.8903 69.0099L65.6954 69.1745L65.7232 69.5037L66.5301 70.1346L66.9473 71.4785L67.3645 72.8224L67.4347 73.2844L67.3368 73.6176L67.3923 73.8919L67.9485 74.1935L67.7259 74.3856L67.6981 74.6322L67.8929 75.0437L68.0599 75.263L68.0043 75.5374L68.1157 77.6489L68.3938 78.0054L68.6998 78.6086L68.6162 79.2943L68.0039 79.6508L67.2248 79.2394L66.5571 79.2668L65.5553 79.1296L65.0544 78.8003L64.5535 78.7729L63.9691 79.1022L63.7743 78.9649H63.2178L62.4943 78.6084L62.1326 77.9777L62.1048 78.0325L61.6597 78.0052L61.3539 77.5664L61.8825 77.4293L62.2164 76.9631L62.161 76.0034L62.5227 75.4001L62.1054 75.0166L62.0219 74.4132L61.5208 73.8102L61.2981 73.3162L60.4634 72.7131L60.3522 72.1643L59.7677 71.7807L59.545 70.7112L58.4318 70.4096L57.6251 71.0953L57.3191 70.9031L57.0132 71.534H56.6791L55.9278 71.1226V70.6017H55.9002L55.5384 70.218L55.0098 69.6969L55.4549 69.4503L55.4271 68.9295L55.7348 68.435Z" fill="#9D94FF" stroke="white" stroke-width="0.296754"/>
<path d="M53.6711 80.5694L52.8841 79.251L52.5693 78.4752L52.9628 77.3891L53.5137 76.458L54.222 75.6822L54.4581 74.9063L54.1434 74.2857V73.7426L53.5925 73.4324L53.0416 73.2772V72.734L52.5694 72.5013L52.9629 71.7255L53.1202 70.9496L53.1989 70.329L53.986 70.0963L54.5368 69.8636L55.009 69.786L55.8747 70.5618L55.9534 71.1049L56.8191 71.4928L57.2125 70.9498L57.5274 71.2601L58.3143 70.2516L59.6522 70.6394L59.8096 71.648L60.5179 72.1136L60.5967 72.8117L61.3837 73.5099L62.092 74.4409L62.0133 74.984L62.6429 75.5271L62.1707 75.9926L62.2494 77.0011L62.0133 77.5441H61.4624L61.1476 77.6995L60.6754 77.3891L59.8097 77.4665L59.4162 76.846H59.0228L58.5506 77.0787L58.3144 77.8546L58.1571 78.3976L57.0552 78.7854H56.6618L55.8748 79.251H55.7174L55.4813 78.7854H55.2452L55.009 79.0958L54.9303 79.8717V80.2596L54.4581 80.8026L53.6711 80.5694Z" fill="#9D94FF" stroke="white" stroke-width="0.296754"/>
<path d="M54.3008 80.7244L54.5369 81.5002L55.56 81.8882L55.7174 82.5088L56.0322 83.1294L57.0552 83.9828L57.4487 85.4564L58.157 87.0853L58.4718 88.3263L59.8885 89.7223L60.3607 90.5757L61.4624 90.9636L62.7218 90.0325L62.4856 88.9465L61.62 87.5506L61.6987 87.0849L60.4394 85.2235L60.3607 83.9825L61.1477 83.5946L61.3839 82.6637V81.3452L60.5968 80.8021L59.6524 80.4142L59.5737 80.1038L60.2032 79.871L59.8885 79.3281L60.282 79.4056L61.069 77.6216L60.5968 77.3889H59.8098L59.4949 76.7683L58.6293 76.9235L58.1571 78.4747L56.8978 78.8626L56.7404 78.7074L55.7173 79.2505L55.4025 78.785H55.1664L54.9303 79.0178V80.4913L54.3008 80.7244Z" fill="#9D94FF" stroke="white" stroke-width="0.296754"/>
<path d="M60.5185 83.8272L61.1481 83.0514L61.4629 81.8104L60.8332 81.0347L59.7314 80.2589L59.8888 79.483L60.8332 77.7767L62.0926 78.2422L63.3518 79.3282L64.611 78.8628L65.398 79.018L67.1294 79.4834L67.2867 80.1043L67.1294 80.8799V81.5005L66.6572 82.8966L68.0737 82.7415H68.8607L68.2312 83.6724V84.4483L68.546 85.5344L67.6015 85.0689L66.6572 85.3792L64.9258 85.224L63.9813 84.6034L63.5091 85.224C63.5091 85.224 63.0369 85.6895 62.4073 85.3792C61.7776 85.0682 60.6759 83.9823 60.5185 83.8272Z" fill="#9D94FF" stroke="white" stroke-width="0.296754"/>
<path d="M62.0928 87.2401H63.8242L64.6112 88.171L65.2408 89.257L64.7686 90.188L63.6668 90.6534L62.8798 90.4982L62.7224 89.1023L62.0928 87.2401Z" fill="#9D94FF" stroke="white" stroke-width="0.296754"/>
<path d="M64.7676 86.3094L66.8138 86.4645L67.7582 87.2405L67.6008 88.1715L66.1841 87.5509L64.7676 86.3094Z" fill="#9D94FF" stroke="white" stroke-width="0.296754"/>
<path d="M68.5904 85.2458L68.1452 84.5878L68.2569 83.9295L68.9243 82.7229L68.1452 82.8326L67.1435 82.6134L66.8096 82.9427L67.0322 82.0651L66.9209 81.2973L67.1435 80.6391L66.8096 79.3229L68.0339 79.6522L68.7017 79.1035L69.3695 79.3229L69.8146 78.8842L69.4807 77.8969L69.2581 77.2387V76.5804L69.4807 75.7032L69.592 74.9351L70.5938 75.1544L71.2615 76.2512L71.9293 77.5673L72.152 78.5548V79.4322L72.9311 80.5291L72.8198 81.2972L73.7101 81.6265L72.4858 81.7363L72.5972 82.9431H71.7067L71.0389 83.3818L70.705 84.3693L69.9259 85.466V86.234L69.4807 86.0147V85.466L68.5904 85.2458Z" fill="#9D94FF" stroke="white" stroke-width="0.296754"/>
<path d="M67.8115 86.0138L68.8132 86.343L69.0359 87.1112L68.702 87.2209L67.8115 86.0138Z" fill="#9D94FF" stroke="white" stroke-width="0.296754"/>
<path d="M68.4795 88.2076L69.1472 89.4145L69.5924 90.0725V90.5112L69.3698 90.621L69.1471 91.718L69.4811 92.9246L70.4828 94.0216L71.1506 94.3509V95.0089L71.2619 95.2282H72.1523L72.7088 94.5702L72.9314 93.912V93.2539L72.7088 92.5958L70.928 89.6342L70.8166 88.9761L68.4795 88.2076Z" fill="#9D94FF" stroke="white" stroke-width="0.296754"/>
<path d="M78.0511 97.9707L77.3836 97.5322L77.1607 96.2159L77.0493 95.0091V94.5704L76.2702 93.3637L75.7139 91.8281L74.8235 91.0601L74.1559 90.0726L73.7107 89.1952V88.8659L73.2656 88.3172L72.7091 87.8786L71.0396 86.6717L71.3738 86.123L70.5947 85.3552L70.7061 84.697L71.04 83.3808L72.153 82.9421H72.5981L72.7095 81.8453H73.5999L74.379 82.0645L74.8241 81.5158L76.1594 81.1866L76.8272 81.5158L77.0499 82.1741L76.6048 82.9421L77.161 83.7102L77.7174 84.8069L78.2738 85.7944L78.719 86.5623V85.6849H79.6093L80.0544 86.0142V87.0015L80.8336 87.1113L81.0562 88.2082L81.1676 89.4149L81.5015 90.2924L81.3901 91.0604L82.1693 91.609L82.3922 91.0604L82.5035 90.5117L82.1693 90.073L82.2806 89.0857L83.1712 88.7564L84.0617 89.7437L84.8406 91.6086L85.0634 92.9248L84.2844 94.351L85.5087 95.2284L85.2859 96.1058L85.1747 96.6545L85.5087 97.9707L85.6201 98.5194V99.068L85.9542 99.6166L85.7315 100.275L85.9542 101.372L86.6219 102.688L86.2878 103.346L85.9539 103.785L86.2878 104.553L85.5087 104.772L84.8412 104.553L85.0639 103.895H84.062L83.3944 104.553L82.1701 104.772L81.5025 105.43L80.3892 106.088L80.1666 105.211L80.7229 104.443L79.8325 103.675V102.687L79.1648 101.81L78.942 100.274L78.3858 99.7256L78.0511 97.9707Z" fill="#9D94FF" stroke="white" stroke-width="0.296754"/>
<path d="M80.9805 87.7056L82.0822 86.3095V85.2234L82.5545 83.6723L84.7581 82.1212L84.1285 79.1734L85.7025 78.3976L85.3877 77.0015L84.6007 74.9851L84.9155 73.7441L83.8137 72.6581L85.3877 70.7965L83.4989 66.6079L82.5545 66.7631L81.4526 64.9015H80.9805L80.3509 65.5223L80.9805 68.1596L81.2952 69.866L80.823 70.4866V71.4174L79.8787 71.1072L78.7768 72.038L77.675 73.8995L77.2028 75.2957L77.9898 76.6917L78.1278 78.6535L77.9339 79.1551L77.3598 79.1739V79.6395L76.1006 81.1905L77.045 81.9666L76.7302 82.5872L76.8876 83.2076L77.832 85.2244L78.7765 86.4654L78.9339 85.8446L80.0357 85.9997L80.1931 86.9307L80.9805 87.7056Z" fill="#9D94FF" stroke="white" stroke-width="0.296754"/>
<path d="M81.1381 89.2568L80.8232 87.7056L81.6103 86.7745L82.2399 85.6885L82.3973 83.8269L84.7583 82.1205L84.6009 81.1897L84.2861 79.4833L85.7027 78.3972L85.3879 77.1562L84.9157 75.1396V74.0536L83.8139 72.5024L85.2305 70.6411L84.6009 69.0898L83.4991 66.2974L83.8139 65.8317L85.0731 64.5907H85.8602L86.3323 65.3664L86.6472 66.6074L86.9619 65.5214L87.2768 64.9009L88.0638 65.2112L87.5915 66.2972L87.9064 67.3832L88.2212 68.1592L88.536 70.9515L89.323 72.0375L89.7952 72.9686L89.4804 73.5893L89.9526 74.0547L90.11 74.6754L89.0082 75.4512L89.1656 76.6922L89.323 77.7783L89.4804 78.5541L90.11 79.33L89.6378 81.812L90.2674 83.053L91.5266 83.6736L91.2118 84.4496L91.684 86.3111L92.6284 87.2419L92.7858 88.4829L93.1006 90.0342L92.6284 90.3445L93.1006 91.8958L93.4154 93.7571L93.7303 95.3084V96.2394L94.045 97.4804L94.3599 98.7214V100.117L93.5728 99.807L94.045 101.513L94.6747 103.996L95.1469 105.547L94.5173 106.633L94.2024 105.857L93.7303 104.461L93.258 102.91L92.471 101.358L92.6284 100.893L92.3136 99.6519L91.684 97.4802L91.0544 96.8596L89.4804 95.7736L87.4341 95.308L86.0175 95.9286L85.0731 95.1528L84.4435 94.222L84.9157 92.981L84.7583 91.74L83.9713 90.1887L83.0269 88.7928L82.5547 88.948L81.9251 89.8788L82.3973 91.1198L82.0824 91.7404L81.4528 90.9646L81.1381 89.2568Z" fill="#9D94FF" stroke="white" stroke-width="0.296754"/>
</g>
<g opacity="0.4">
<path d="M66.1846 45.7419V45.1214L67.2863 44.1903L66.8141 43.4146L65.791 43.1042L65.2401 42.7939L65.3975 42.0956L65.8697 41.8629L66.1058 41.3198L65.791 40.7768L65.5548 40.6214L65.0039 41.3974L64.6891 40.8543L64.7678 40.2336L64.2956 39.5355L62.9578 39.3803L62.4069 38.6821L61.3051 38.5268V37.5183L60.9902 36.8201V35.9679L61.3837 35.58L60.5967 35.3473L60.7541 35.037L61.5411 34.9594L61.1476 34.4939L61.305 33.0202L61.4623 32.6324L62.7219 32.3997H63.5875L64.6893 32.6324L66.8142 32.2445L68.7816 33.253L69.0964 32.8652L70.0408 33.1754L71.0639 33.7962H71.7721L72.087 33.4857L72.6378 33.6411L73.8183 33.0202V33.6411L74.2118 33.7186L74.4479 34.1841L75.6284 33.8738L76.1006 33.9513L75.9433 34.4168L76.5728 34.9599L76.6515 35.658L76.258 36.1236V36.3563L77.1237 37.2097L77.045 37.52L76.8089 37.5976V37.8304L77.281 38.0633V38.6838L76.8089 39.6147V39.8476L77.281 40.4682L76.494 40.6234L76.1006 41.0888L76.5727 42.0974L76.1006 42.2525L76.5727 42.9508L75.8644 44.3467L74.6839 44.1916L74.6052 44.5795L74.8414 44.8123L74.5266 45.045L74.2118 44.6571H73.5822L72.5591 44.4244L72.2442 44.7347L72.5591 45.045L72.0082 45.5104L70.9063 44.6571L70.8276 44.1916L70.198 44.114L69.4897 44.7347L68.7814 45.1226L68.8601 45.7432L68.7028 46.1312L68.2305 45.8207L67.5222 46.4415L66.8926 46.5967L66.1846 45.7419Z" fill="#42D6A4" stroke="white" stroke-width="0.296754"/>
<path d="M75.7864 44.3459L76.652 42.8724L76.1012 42.174L76.5733 42.0965L76.1799 41.0104L76.7308 40.545H77.3603L76.7308 39.7691L77.2816 38.8382L77.3603 38.0622L76.7308 37.6743L77.1242 37.2865L76.3372 36.3555V36.0452L76.652 35.7347V34.9594L76.0224 34.4164L76.1011 34.0285L75.6289 33.6405L75.865 33.2526H76.1012L76.8095 33.4853L77.2817 32.9423L79.6427 33.0198L81.0593 32.7871L81.6102 33.2526L82.0824 32.632H83.3416L84.2073 32.9423L84.9156 33.7956L85.2304 33.718L85.5452 33.9509L85.86 33.7956L86.4109 34.106V34.4939L86.8044 34.5715L87.7488 35.037L88.3784 35.1921L88.6146 34.9594H88.9294V35.58L89.7951 35.8127L90.5821 36.2783L90.4247 36.7437L90.7395 37.442L91.4478 37.6747L91.133 38.0626L91.8413 38.1401L92.156 38.6057L92.0773 39.7693H91.7625L91.4477 39.6141L90.9755 40.0795L90.0311 40.0019L88.6933 39.7693L87.9063 40.0019L87.2767 40.3899L87.8275 41.0106L87.7488 41.5537L87.0405 42.8721H86.4896L85.3091 43.0274L84.9943 42.4066H84.6008L84.5221 42.9498L84.2074 43.9583L83.4203 44.5789L83.0269 44.734L82.0824 44.9669L81.689 44.6566L81.2168 44.9669L80.6659 44.8893L80.4298 44.5014L79.8789 44.8118L79.4854 44.4238L79.0132 44.9669L78.3836 45.8202L77.1243 45.8978L76.8882 45.3548L76.1012 45.2772L76.416 44.8117L75.7864 44.3459Z" fill="#42D6A4" stroke="white" stroke-width="0.296754"/>
<path d="M65.3976 53.2661L65.8698 53.1109L65.5551 52.6454L65.2402 52.4903L65.3976 52.0248L66.3421 52.1024L66.893 51.8697V51.3264L66.5781 50.9386L67.129 50.7835L67.0503 50.318L66.4994 49.6973L66.8141 49.3093L66.8928 48.7663L66.7354 48.4561L66.342 48.2233L65.8698 48.4561L65.3189 48.2233L66.4207 47.8354L66.8141 46.7494L67.6012 46.2064L68.152 45.6633L68.7029 46.284L68.9391 45.8184L68.7029 45.2752L69.2538 44.4995L70.2769 44.1892H70.6704L71.2213 44.6547L71.8508 45.5856L72.2443 44.9649V44.7322L72.6378 44.422L72.9526 44.577L74.2118 44.422L74.5266 45.12L74.9201 44.9649L74.6053 44.5771V44.1892L75.6284 44.3444L76.5727 44.5771L76.1005 45.2752L76.8876 45.3528L77.0449 45.7409L76.494 46.3615L75.9431 45.9736L75.4709 45.896L75.2348 46.0512L75.7071 46.8269L76.1792 47.1372H75.7071L75.1562 47.5252L74.9988 48.7662L74.8413 51.0156L75.3136 52.3341L74.8413 53.6527L74.5266 53.8854V54.1181L74.9201 54.4283V54.7388L74.6053 54.894V56.5226L73.5822 57.1433L72.4804 57.2986L71.772 56.7554H70.9063L70.1194 56.3675H69.4111L69.2537 56.8329L69.726 57.4537L69.5685 57.9967L69.1751 58.5398L68.9389 59.3155L67.7585 59.0052V58.4623L67.9946 58.3071L67.8372 57.6865L67.2076 56.368L67.9946 56.1352L67.365 55.825V54.8939L68.2306 55.1267V54.661L67.5223 54.3508L68.6241 53.5751V53.1096L67.9158 52.9545L67.2075 54.1955L66.5779 53.73L65.3976 53.2661Z" fill="#42D6A4" stroke="white" stroke-width="0.296754"/>
<path d="M74.7627 53.8091L75.3136 52.3356L74.7627 51.0946L75.1562 47.5266L75.6284 47.2163L76.494 47.2939L75.8644 46.9836L75.0773 46.0525L75.4709 45.8198L76.0218 45.8974L76.5727 46.4404L77.0448 45.8198L78.2253 45.8974L79.4845 44.3462L79.8781 44.7342L80.3503 44.5015L80.5864 44.8893L81.3734 44.9669L81.6882 44.6566L82.003 44.9669L83.1048 44.7342L84.2066 44.1134L84.6001 42.4847H84.9936L85.2297 43.1053L86.3316 42.8726H87.1186L86.9612 43.4157L86.725 43.9587L86.1741 44.9672L85.938 46.3632L84.7575 47.1391L84.6001 48.5351L84.9936 49.0782V49.5437L84.4427 50.6297H83.4196L81.8456 50.397L81.216 50.5521L81.8456 51.0953L82.0031 51.716L81.6096 51.8711L81.4522 51.4833L81.3735 51.173L80.9013 51.0953L80.3504 51.6384L80.6652 51.9487V53.6551L80.2717 54.1205L80.1143 55.6717H79.5634L79.17 54.8182L78.5403 54.2752L78.8551 53.965L78.2255 54.1201H77.5172L77.281 53.6546L76.8088 53.7321H76.8876V55.2057L77.2024 55.6712L76.8089 55.9816L76.4154 55.8265L76.1793 55.4385L75.471 54.9729L74.7627 53.8091Z" fill="#42D6A4" stroke="white" stroke-width="0.296754"/>
</g>
<g opacity="0.4">
<path d="M33.9955 34.4174L35.0973 33.2539L35.0186 32.5555L35.5695 31.935L36.1204 32.0126L36.5927 31.3919L36.514 30.616L36.1205 29.9178V28.5994L36.9075 28.0562L36.514 27.8235V27.2805L37.3797 27.901L37.1436 29.142L37.6157 29.6075L37.537 30.2281L38.0879 30.6159H38.6388L39.0323 30.073L39.7406 30.2281L40.2128 30.1505V31.3141L40.0554 31.4692L39.5832 31.1588L39.3471 32.2448L38.8748 32.7103L39.1109 33.2533L39.7405 33.1756L39.6618 33.5637L39.3471 33.9516L39.2684 34.5723L39.9767 35.1152L39.898 35.5808L39.3471 35.8912L39.4258 36.2014H39.0323V36.5893L39.4258 37.3651L39.5045 37.8307L39.9768 37.7532L40.3703 38.2186L40.2128 38.6842L40.7637 38.9169L42.5738 39.3822L42.7312 39.9255L43.7543 39.072L45.2495 39.7703L45.1708 40.7011L44.4625 41.4769L43.9116 41.3994H42.6524L41.9441 41.5546L40.7636 42.9506L40.3701 42.4076L40.2127 42.1748L39.6618 41.942V42.4076L39.0321 42.7955L38.7175 42.5627L38.4813 43.0282L38.7175 43.4937L39.1896 43.804L39.0321 44.1143L38.796 44.0367L38.4812 44.7347H38.0877V45.2777L37.6156 45.4328V46.2863L37.2221 46.4415L36.5925 46.3639V45.6656L36.1203 45.2777L36.7499 45.2001L36.986 43.5713L36.3564 42.8731L36.8285 42.7955L36.9072 42.2526L36.1989 41.787L35.8841 41.7095L35.7268 42.0198L35.2544 41.4766H35.4906L35.6479 41.0887L35.5692 40.7008L35.0183 40.7784L34.3887 40.0802L34.31 39.4595L34.7035 39.3819L34.6248 38.6837L34.3101 38.2958L34.3888 37.9079L34.074 37.5976L34.3888 37.2872V36.5891H33.8379L34.3101 36.046L33.9166 35.8132L34.1527 35.27L33.9955 34.4174Z" fill="#FFD66D" stroke="white" stroke-width="0.445131"/>
<path d="M42.6527 39.9247L42.574 39.3817L41.3148 39.0715L40.213 38.6835L40.3704 38.218L39.9769 37.7527L39.5834 37.8301L39.5047 37.3646L39.1112 36.8216L38.8751 36.2009L39.426 36.2785V35.8906L39.8982 35.5801L39.9769 35.1923L39.426 34.7269L39.2686 34.1838L39.6621 33.7183L39.7408 33.0975L39.1111 33.1751L38.875 32.7097L39.5045 32.2442L39.662 31.1582L39.9768 31.5461L40.2916 31.2357V30.0729L40.8424 30.5383L41.6295 31.0038L42.0229 31.2366L43.046 31.6245L43.9117 31.8572L45.0922 32.0124L45.9578 32.4003H46.5087L46.7448 32.7881V33.4865L46.8235 34.3398L46.6661 34.8829L47.6106 35.3485L47.2957 35.8915L46.5087 35.7364L45.9578 36.5121L46.4302 36.9001L46.1154 37.3656L46.3515 37.9862L46.9024 38.2965L46.5876 38.4517L46.1154 38.2965L46.1941 38.6844L46.5876 38.9948L46.1941 39.7707L45.171 39.6931L44.5415 39.3827L43.6758 38.9948L42.6527 39.9247Z" fill="#FFD66D" stroke="white" stroke-width="0.445131"/>
<path d="M47.3749 52.7232L46.6666 52.4129L46.037 51.0944L46.3518 50.7841V50.0083L45.5648 48.8448L45.7222 48.3018L46.2731 48.1467L45.0926 47.526L44.6204 47.0606L43.9908 45.9746L44.0696 45.5091L44.5418 44.9661V44.578L43.8335 43.5695L43.9122 42.2511L43.2039 42.1735L42.9678 41.5529L43.7548 41.3977L44.4631 41.5529L45.1714 40.6995V39.924L45.5649 39.6913L46.1158 39.8464L46.6667 39.1482L46.1158 38.7603V38.2947L46.588 38.4498L47.0602 38.3722L46.4306 38.0619L46.1158 37.3639L46.4306 36.8983L46.0371 36.5102L46.588 35.7345L47.375 36.0448L47.6898 35.4242L47.0602 35.1916L46.7454 34.8037V34.4156V32.8646L46.6667 32.5542L47.0602 32.4767L47.4537 32.787H48.162L48.3981 33.2524L50.0508 33.5627L50.8378 33.2524L51.7822 32.8646L52.8053 33.0197L53.1988 32.7869L53.8284 33.0973L54.3793 32.6318L54.7728 32.8646L54.6153 33.2524L54.2219 34.3384L54.1432 34.9593L53.7497 35.2696L54.3793 35.9677L54.3006 36.4331L53.7497 36.5107L53.4348 36.9763L53.2774 37.597L52.9627 37.6746L52.6478 36.8212L52.4117 37.1315L51.9395 36.9763L51.7034 37.1315L52.3331 37.597L52.4904 38.2175L52.3331 38.683H52.4904L52.8839 39.4589H53.4348L53.3561 40.3123L53.7496 40.6225L53.5134 40.9329H54.0643L54.6152 41.3984L55.4022 41.5536L55.7171 41.3209L56.4254 41.5536L56.268 42.0192L55.8745 41.9415L56.0319 42.4846L56.3467 42.6397L56.5041 42.7949L56.1107 43.2604L56.032 44.0362L56.6616 44.5792L57.2124 44.8896L57.3699 45.8981L57.842 45.5879L57.9208 45.8981L58.5504 46.286L58.7077 46.5964L58.2355 47.3722L57.6846 47.9153L57.1337 47.6826L56.8189 47.1394L56.3467 48.0705L56.0319 47.4498L55.5597 48.3032L54.9301 48.3808L54.3792 47.9144H53.6709L53.4348 48.535L54.1431 49.0781L54.9301 49.5437L54.8514 50.5521L54.4579 50.8625L54.3792 51.5609L54.7727 52.4141L55.0088 52.8796L54.4579 52.7244L53.7496 53.0347H52.9626L52.333 52.5693L52.4117 52.1039L51.3099 51.716L51.2312 51.4056L50.4441 51.328L50.1294 52.569L49.8145 52.4138L49.4211 52.569L48.9489 52.0259L48.7128 52.4914L47.3749 52.7232Z" fill="#FFD66D" stroke="white" stroke-width="0.445131"/>
<path d="M58.6295 46.3628L57.9998 46.1301L57.9211 45.587L57.3702 45.8197L57.2128 45.044L56.5044 44.6559L56.111 44.1129L56.0323 43.3371L56.5832 42.7939L55.8748 42.4061V41.9406L56.1897 42.0182L56.5045 41.5528L55.6388 41.2424L55.4815 41.5528H54.6945L54.1436 41.0097H53.4352L53.75 40.6217L53.4352 40.3113V39.5365L52.8843 39.459L52.5694 38.6056H52.3333L52.412 38.2954L52.3333 37.597L51.625 37.1316H52.4907L52.648 36.7436L52.9628 37.6745H53.3563L53.5137 36.9764L53.7499 36.5885H54.1433L54.4582 35.9678L53.7499 35.2696L54.222 35.0368L54.0646 34.5714L54.3795 34.0283L54.7729 33.0973L55.4025 33.1748L55.6387 33.4075L56.9766 32.5542L57.4488 33.2524L59.495 33.3299L59.7312 33.0973L60.3608 33.4075L61.3839 32.5542L61.4626 32.9421L61.2265 33.0196L61.1478 34.4931L61.4626 34.8036L61.3052 34.9588L60.8329 35.0363L60.6756 35.4242L61.3052 35.5794L60.9904 35.9672L60.9117 36.7431L61.3052 37.4414V38.5274L62.2495 38.7603L62.8793 39.3809L64.3745 39.4585L64.768 40.0791V40.7775L65.0828 41.398L65.3977 40.7775L65.7911 40.6999L66.106 41.2429L65.8699 41.8635L65.319 42.0187V42.7948L65.7124 43.0275L66.1846 43.1051L66.8143 43.3379L67.1291 43.7258L67.3652 44.036L66.8931 44.5792L66.2634 45.0447L65.3977 45.1222L64.0599 45.9756L63.8238 45.5877L62.8794 45.355L62.1711 45.8204L61.6202 45.7428L60.5185 45.8204H59.5741L58.6295 46.3628Z" fill="#FFD66D" stroke="white" stroke-width="0.445131"/>
</g>
<path d="M27.3849 62.8068V61.7985L26.9914 61.4882L27.4636 61.2555L28.5654 61.3331L29.195 61.4106L29.5885 61.876V62.419L29.7459 62.962L30.9264 63.6603L30.6116 62.8068L31.2412 62.7293L31.3986 63.1171L31.7921 63.3499L32.8939 62.6518L33.2874 62.8845L33.2087 63.2724L33.6022 63.7378V63.1172L35.3336 63.0396L36.1993 63.1948L36.7502 63.8929L36.8289 64.7462L36.1206 64.2032L35.5697 63.5051H33.6809L33.6022 63.8154H35.1762L35.9632 64.3584L36.9863 65.1341L37.3798 65.4445L37.6946 65.5996L37.3011 65.7547L37.2224 66.1426H36.4354L36.3567 66.5304L35.8058 66.3752V67.4612L36.4354 67.8491L36.278 68.237H35.7272L35.5697 67.8491L35.4123 68.237L34.6253 68.1597L34.4679 67.2287L33.5235 68.0821H33.13L32.9726 67.3839H32.6578L32.5004 67.6942L31.7134 67.3063L31.556 67.6166L32.0282 67.9267L31.556 68.1597L31.2412 68.0821V67.6942L30.6116 67.6168L30.2968 66.7635L29.5098 66.2205L29.4311 65.755L28.3293 65.6775L28.1719 65.9102L27.2275 65.0569L27.0701 64.5914L26.834 64.126L27.3849 63.583V62.8068Z" fill="#08CAD1" stroke="white" stroke-width="0.296754"/>
<path d="M30.6367 67.5851L31.1376 67.6949L31.1931 68.0786L31.5272 68.243L32.0281 67.9688L31.4716 67.6396L31.6945 67.3652L32.5292 67.6946L32.6405 67.3652L32.9187 67.4202L33.0856 68.0782L33.5308 68.1332L34.4212 67.2558L34.5881 68.1881L35.3672 68.2979L35.5341 67.8593L35.7567 68.243L36.2576 68.2979L36.4802 67.9144L35.8125 67.585V66.3234L36.3689 66.5427L36.4802 66.159H37.2593L37.3149 65.7753H37.4816L37.9267 65.885L38.0936 66.3238L39.7076 66.6529L40.264 67.3111H40.7091L40.9873 67.9692L42.7124 68.2434L43.7142 68.9565L44.215 69.8341L44.2706 70.8762H43.8254L43.7699 71.6988L43.3248 72.0826L43.937 72.4663L43.6589 73.1794L43.3248 74.2216L42.9353 74.0571L42.3231 73.6733L42.0449 74.4412L41.7666 74.3863L41.7112 74.0027H41.377L40.9875 73.3995L40.4866 73.3446L40.8762 73.8382L40.431 73.8931L39.8186 74.2769L39.7632 73.6737H39.2623L38.9282 73.9481L38.65 73.5094L38.1491 73.4544L37.2033 74.3867L35.9232 74.4419L35.8119 74.7711L36.3128 75.0453L36.2573 75.3196L36.0904 75.594L35.3669 76.1971H34.8104L34.5322 75.8679H33.6975L33.4193 75.3742L33.9758 74.7711L33.2521 74.6066L33.0854 74.0034V72.9613L32.6958 72.6871L33.0298 72.3578L33.9202 73.0158L33.5862 72.4127L32.9738 71.4802L33.0293 70.7122H32.8625L32.5843 70.2186L32.1392 69.8348L30.8037 69.7798L30.7482 69.5604L31.0822 69.2862H31.4717L31.5273 69.0668L30.915 68.5182L30.6367 67.5851Z" fill="#08CAD1" stroke="white" stroke-width="0.296754"/>
<path d="M36.9809 81.3519L37.0365 81.0225L36.2575 80.5838L35.8679 79.5965L34.7549 78.4996L35.534 78.5547L35.9791 77.4577L36.0904 76.8546L35.5343 76.6354L34.8665 77.1291L34.7552 77.0193L34.9217 76.5256V76.2514H35.2559L36.2576 75.5933L36.3689 75.0996L35.8127 74.7705L35.924 74.3866L36.9811 74.4415L38.0384 73.5641L38.5392 73.6191L38.9288 73.9482L39.263 73.674L39.6525 73.7288L39.7638 74.3321L40.2647 74.0028L40.8768 73.9478L40.5429 73.3447L40.8768 73.3996L41.322 74.0577H41.6002L41.7668 74.4964H41.9898L42.2124 75.319L41.9342 76.2514L41.2107 76.6353C41.2107 76.6353 41.4333 77.129 41.2107 77.129C40.9877 77.129 40.4869 77.129 40.4869 77.129L40.153 78.3357L40.8208 78.7195L41.0987 78.2258L41.4883 78.0066L42.2121 78.4451L42.4902 78.7195L43.1025 78.1709L43.8259 78.5546L43.5477 78.774L43.4922 79.3227L44.2157 79.5419L43.9377 79.6517V80.3646H43.3253L43.1027 80.8583L42.4349 81.1326V81.6261L42.2123 81.6811V81.9556L41.7671 82.2848L41.5445 83.1624L41.3219 83.4916L41.2663 83.7108L40.7102 83.8206H39.9311L39.8195 84.4236H39.6528L39.0406 84.0399L38.1501 84.0949L37.3711 83.6561L37.2595 83.2724L37.7606 82.8337L36.9259 82.285L36.9809 81.3519Z" fill="#08CAD1" stroke="white" stroke-width="0.296754"/>
<path d="M36.6712 58.2305L35.412 58.6183L34.625 58.6962L34.7037 59.4718L35.412 60.3252L36.3564 61.1787L36.4351 61.6442L36.7499 62.0321L36.6712 62.8079L37.5369 63.9714L38.4813 64.592L39.4257 64.8248L39.8192 65.2904H38.9536L39.5832 65.9111L39.9767 65.6783L40.3702 66.454L41.7868 66.8419L42.259 66.454V65.6008L43.282 65.4455L43.9904 65.1351L45.8004 65.4455L45.3282 64.127L46.1152 63.2737L44.5412 62.9634L43.9903 62.2651L43.5968 61.4117L43.0459 61.1015L42.6524 60.0929L41.8654 59.705L42.4951 59.162L40.9998 59.0844L40.8424 58.4638L40.4489 58.3085L39.6619 59.0842L39.4257 58.9291L38.8748 59.5496L38.6387 59.1618L38.324 59.86L37.8517 59.7048L37.4582 59.3945L37.2221 59.7048L36.9073 59.2394L36.6712 58.2305Z" fill="#08CAD1" stroke="white" stroke-width="0.296754"/>
<path d="M41.7868 66.8403L42.1802 66.3749V65.599L43.5181 65.4438L43.9903 65.1335L45.7217 65.5214L45.3282 64.1255L46.1153 63.4272L44.7774 63.0392L44.3839 62.9617L43.5969 61.4882L42.9673 61.1778L42.7311 60.1693L41.8655 59.6262L42.4951 59.1607L41.1572 59.0054L41.2359 58.6176V58.1521L41.8655 58.6176L42.5738 58.0746L43.5183 58.54L44.2266 58.2297L44.6988 59.0054L45.3284 58.6951L45.958 58.54L46.1941 58.9278L46.5876 57.7643L47.2959 58.8503L46.6663 59.3935L47.2172 59.5486L48.3977 59.7038L48.4764 61.1773L49.106 61.0221L49.4995 61.4102H50.0504L50.4439 61.0997H50.8373L50.9161 61.7205V62.2636L50.7587 62.7291L51.467 64.7456L51.7818 65.056L51.467 65.2112L50.1291 65.8319L50.68 66.7627L50.4439 67.6161L49.7356 66.9956L49.4994 67.3834L49.2633 68.392L48.7124 68.2369L49.0273 67.3058L48.3189 66.9181L47.9255 66.4526L46.745 66.2198L46.2727 66.9179L46.194 67.3058L46.1153 68.3919L45.7218 68.8574L45.1709 68.5471L45.0922 69.1676L44.8561 69.5555L44.0691 69.1676L43.9904 68.4695L43.7543 67.6937L43.1247 67.3057L41.7868 66.8403Z" fill="#08CAD1" stroke="white" stroke-width="0.296754"/>
<path d="M50.2253 80.2002L49.1122 80.5294L48.4444 80.9682L48.2217 81.5168L47.4618 80.9497L46.886 80.2007L47.2201 79.5426L47.6653 78.8845L46.9976 78.2264L46.4412 77.239L45.6621 76.6904L45.3281 75.2643L46.3298 74.4962L47.109 73.0701L47.7767 72.0828L48.8898 72.1925L49.8915 72.9606L50.3366 73.7285H51.2271H52.0061L52.3401 74.4966L52.4515 75.2646L52.7856 76.4713L52.3405 77.4587L51.6864 77.9561L52.1125 78.6198L50.6712 78.9944L50.2253 80.2002Z" fill="#08CAD1" stroke="white" stroke-width="0.296754"/>
<path d="M43.8331 70.7961L44.8562 70.8736L45.4858 71.4166L46.1941 71.727L47.7682 72.1924L47.4533 72.7356L46.3515 74.5195L45.3285 75.2178L45.5646 76.6138L46.509 77.3119L46.9812 78.398L47.7682 78.9411L46.9026 80.1046L47.5322 80.6476L47.7683 81.1131L47.3748 81.4234H46.5091L45.5647 81.1907L45.6434 80.1822L45.7221 79.2511L45.3286 79.096L45.0925 79.4838H44.0694L43.4398 79.096V78.7857L43.8333 78.6304L43.125 78.165L42.4954 78.708L41.7084 78.0875H41.2362L40.764 78.708L40.0557 78.2426L40.5278 77.0791L41.4723 77.1567L41.3149 76.6912L42.0232 76.3033L42.2593 75.2948L41.8658 74.5966L42.2593 73.8206L43.3611 74.2863L43.7546 72.6574L43.4398 72.0368L43.8333 71.7265L43.8331 70.7961Z" fill="#08CAD1" stroke="white" stroke-width="0.296754"/>
<path d="M43.6758 58.3855L44.935 57.2995L44.7776 56.6789H45.0924V56.2133L45.5646 56.6789L46.0368 56.6014L45.9581 55.2828L46.1942 54.4295L47.296 53.9641L47.1387 53.2657L47.847 52.9554L47.6109 52.7226L48.083 52.5675L48.6339 52.4899L48.8701 52.0245L49.3423 52.5675L49.8145 52.4899L50.1293 52.7226L50.3654 51.4041L51.1525 51.3265L51.3886 51.6371L52.333 52.0249V52.4128L52.9626 53.0335H53.6709L53.8283 52.8007H54.4579L55.3236 53.3437L55.7958 53.5765L55.3236 53.8869L55.4023 54.5851L55.7171 55.2057L55.481 55.7489L55.4023 56.2144L55.8745 56.6798L55.0088 56.8349L54.6941 56.5246L54.4579 56.7573L54.7728 56.9125L54.9302 58.3862L54.5367 59.3172L54.1432 59.3948L54.3793 59.7827L53.9072 60.5585L53.2775 61.0239L52.884 60.7137L52.097 59.7827L52.0183 60.1706L51.5461 60.093L50.9165 61.4115L50.523 61.1013L50.2082 61.334L49.5786 61.4892L49.1064 61.0237L48.4768 61.1788V59.6273H47.375L46.7454 59.3947L47.2963 58.7741L46.9028 58.1535L46.6667 58.0757L46.1945 58.9292L45.9584 58.4637L45.3288 58.7741L44.7779 59.0844L43.6758 58.3855Z" fill="#08CAD1" stroke="white" stroke-width="0.296754"/>
<path d="M53.2773 61.1004L54.0644 60.402L54.3792 59.9366L54.0644 59.3935H54.5366L54.8514 58.54V57.6866L54.694 56.9107L54.3005 56.6779L54.6153 56.4452L55.0087 56.9106L55.717 56.7555H55.9532L55.481 56.2126L55.7171 55.204L55.481 54.6608V53.8852L55.7957 53.5749L56.2679 53.6525L56.8188 53.1868L57.5271 54.3503L58.078 54.583L58.4715 55.2036L59.2585 55.5141L59.3372 55.7468L58.865 55.9796L59.2585 56.445L58.7076 56.6001L59.5732 56.5225L60.0454 57.0656L60.7537 56.8328L60.9111 57.6088L61.3833 57.8415L61.2259 58.0743L60.7537 58.85L60.9898 59.5482L60.5964 59.7035L60.1242 60.9445L59.8093 61.1772L59.6519 61.5651L59.5732 61.7203L58.5501 61.6428L57.9993 61.8755H57.5271V61.7204L56.9762 61.6428L56.74 61.7979L56.6613 62.8065L56.1892 63.5823L55.4809 62.9616L55.4021 62.5738L55.2447 63.1168L54.6151 62.9616L54.379 62.7289L54.8512 62.4962L54.6151 61.9531L54.0642 62.1859L53.9068 62.5738L53.6707 62.1083L54.2216 61.3323L53.2773 61.1004Z" fill="#08CAD1" stroke="white" stroke-width="0.296754"/>
<path d="M50.6019 66.7629L49.8936 65.6768L51.7036 65.0561L50.7592 62.8067L50.9953 62.2637V61.5654L51.5462 60.0918L52.0184 60.247L52.0971 59.8591L53.0415 61.0226L54.1433 61.4882L53.5924 62.0312L53.7499 62.4967L54.6155 61.9536L54.9304 62.3416L54.3795 62.8845L55.1665 63.1174L56.1109 63.4278L56.0322 63.7381L55.7961 64.4363L55.2452 64.9018L55.0878 65.6001L54.5369 65.4449H54.1434L53.986 65.9879V66.7636L52.9629 67.2292L52.5694 67.6173L52.176 68.0827L51.5464 68.005V67.5397L50.9955 67.9276L50.5233 67.5397L50.6019 66.7629Z" fill="#08CAD1" stroke="white" stroke-width="0.296754"/>
<path d="M44.7725 69.7788L45.1064 68.5721L45.7742 68.9014L46.2194 68.3528V67.3653L46.7756 66.1587L47.8889 66.488L49.0019 67.2559L48.668 68.3528L49.3355 68.4626L49.6697 67.2557L51.005 68.1333L52.1183 68.3526L52.3409 68.9012L52.786 69.2304V69.9986L52.6746 70.6568L52.1183 71.534L51.8956 72.4116L51.1166 71.534H49.6697L48.5564 71.2048H47.6661L46.6642 70.9854L44.7725 69.7788Z" fill="#08CAD1" stroke="white" stroke-width="0.296754"/>
<path d="M49.1133 71.6438L51.1168 72.0825L50.8939 73.1795L49.1133 71.6438Z" fill="#08CAD1" stroke="white" stroke-width="0.296754"/>
<path d="M52.5352 68.3257L52.7017 68.6821L52.9799 69.1483L53.1191 69.9986L54.2041 69.5324L55.2336 69.258L54.7605 68.3806L54.2596 67.5303L53.2578 67.5853L52.5352 68.3257Z" fill="#08CAD1" stroke="white" stroke-width="0.296754"/>
<path d="M51.5456 78.8633L50.9159 78.9543L50.5225 79.6828L50.8372 80.3202L51.7029 80.229L52.3326 80.9574L52.6473 80.5021L52.4899 79.6823L52.1751 79.1361L51.5456 78.8633Z" fill="#08CAD1" stroke="white" stroke-width="0.296754"/>
<path d="M55.717 53.6541L54.8512 52.8783L54.6151 52.025L54.4577 51.5594L54.379 50.9388L54.9299 50.6285L55.0086 49.62L53.4346 48.534L53.6707 48.2237V47.8358L54.3003 47.9133L54.93 48.4564L55.4808 48.3788L56.0317 47.6031L56.4252 47.991L56.74 47.215L57.3696 47.7582L58.0779 47.4479L58.6288 46.672L59.0223 46.0514L60.7537 45.7411L59.6519 45.8962L60.5175 45.7411H61.5406L62.0915 45.8962L62.8785 45.3531L63.6655 45.5083L63.9804 46.0514L64.846 45.5083L65.3182 45.1202H66.1839L66.0265 45.7411L66.7348 46.5169V47.0599L66.4987 47.4479L66.42 47.6806L65.3181 48.3013L65.9478 48.4564L66.1051 48.2237L66.656 48.3789L66.9709 48.9994L66.8922 49.3875L66.3413 49.6978L67.1283 50.2409L67.2856 50.7063L66.7348 50.7839L66.4986 51.0941L66.8921 51.4044V51.715V51.8701L66.3412 52.0252L65.3967 52.1028L65.1606 52.4907L65.6328 52.7234L65.7902 53.0338L65.3967 53.2665L64.4524 53.4993L63.5079 53.7321L63.2717 54.3527L62.2487 54.2751L61.4616 55.0509V55.2836L61.9338 55.8269L62.5635 55.982L62.7208 56.5249L62.5635 56.9128L62.17 57.2232C62.17 57.2232 62.6422 57.4559 62.0913 57.6112C61.5404 57.7664 61.383 57.844 61.383 57.844L60.9895 57.4559L60.7534 56.9128L60.0451 56.9905L59.5729 56.4474H58.9433L58.8646 55.8268L59.3368 55.4387L58.3924 55.206L58.1563 54.5854L57.6054 54.5078L57.2119 53.7321L56.7397 53.2665L56.5036 53.344L56.3463 53.4993L55.717 53.6541Z" fill="#08CAD1" stroke="white" stroke-width="0.445131"/>
<path d="M36.7505 58.1529L37.3801 57.1444L37.3014 56.2134L36.9866 55.5152L36.5144 55.3599V55.0496L36.7505 54.817L36.5144 54.5065L36.6717 53.5756L36.7505 52.1795L35.6486 51.016L36.1995 50.3177L35.0977 49.3092L35.806 48.5334L35.9634 47.6023L35.4125 47.1369L35.9634 46.7491L36.1995 46.9042L36.593 46.2835L37.3013 46.5163L37.38 46.1284L37.6948 45.5852L37.9309 45.1974L38.0882 44.8095L38.4031 44.5768L38.7965 44.0335L39.19 44.1112V43.8008L38.6391 43.3353L38.5604 42.9475L38.6391 42.5597L38.8753 42.8699L39.6623 42.4045L39.741 41.9388L40.2132 42.1716L40.8428 43.025L41.7873 41.629L42.5743 41.3186L43.0465 41.5514L43.1252 42.2498H43.8335V43.5693L44.4631 44.5005V44.8884L44.0696 45.4317L43.9909 45.8971L44.5418 47.1381L46.1945 48.1467L45.801 48.3018L45.5649 48.8449L46.2732 50.0858L46.3519 50.6288L46.1157 51.0167L46.6666 52.4128L47.2175 52.6456L47.611 52.8007L47.7684 53.0335L47.1388 53.3436V54.0419L46.6666 54.1972L46.2731 54.5076L45.9583 55.3608L46.037 56.5243L45.4861 56.6019L45.1713 56.2916L45.0925 56.6795H44.8564L44.9351 57.2225L44.0695 58.0759L43.4398 58.464H43.2037L42.4954 57.9983L42.0232 58.464H41.7871L41.3148 58.1535V58.6967L40.9213 59.0845L40.7639 58.464L40.4492 58.3087L39.7409 59.0845L39.2687 59.2397L38.8752 59.6275L38.6391 59.1621L38.3242 59.7051H37.8521L37.3799 59.3172L37.2225 59.5499L36.9076 59.0845L36.7505 58.1529Z" fill="#08CAD1" stroke="white" stroke-width="0.445131"/>
<path d="M33.9168 35.7694L33.6568 35.5612L32.3047 35.7434L32.1487 36.2638H31.7583L31.4987 35.8995L30.5107 35.7432L29.9126 35.0928L29.6526 35.5353L29.0286 35.1709L28.795 35.5092L28.119 35.4311L27.937 34.6501L27.339 34.4422L26.5329 34.2859L26.1689 34.5461L26.0909 34.5982L25.6486 34.2859L25.7789 34.1038L25.1028 33.2451L24.7295 33.0228L24.4268 32.4381L24.6869 31.7094L23.9065 31.4752L22.7106 31.6054L22.2945 31.0071L21.5144 31.2151L20.7344 30.6427" stroke="white" stroke-width="1.18702"/>
<path d="M52.5176 82.0965L52.6061 80.5911L52.2522 79.5284L51.4561 78.82L52.0753 78.643L51.633 77.9346L52.2522 77.4917L52.8715 76.6062L52.5176 75.5435L52.0751 73.7726L51.8983 72.4442L52.1635 71.4702L53.1368 69.9649L54.9946 69.2565L54.5521 67.3969L54.4637 65.7144L55.083 65.8031L55.6137 65.1832L55.7022 64.2978L56.6753 62.9694L56.5869 62.1726L57.2946 61.5528L58.1793 61.9955L59.5945 61.7299L60.1252 60.9332L60.6561 59.5164H61.1866L60.7441 58.8078L61.452 57.8338L62.3365 57.6569V57.214L62.6905 56.8598V56.1511L62.1599 55.9742L61.5407 55.1774L62.5138 54.2034L63.3985 54.3803L63.8408 53.6717L65.5219 53.4062H65.6103" stroke="white" stroke-width="1.18702"/>
<path d="M39.6787 84.4024L39.8661 83.6511L41.1171 83.7763L41.6175 83.1501L41.5549 82.4615L42.3055 81.71L42.4307 81.0216L43.1814 80.8338L43.2442 80.3954H43.932L43.8694 79.5815L44.9328 79.5188L45.3707 79.0806L45.6835 79.2684L45.4959 81.0842L46.6222 81.5224L47.6856 81.2092L48.1235 81.7099L48.4363 80.896L49.5623 80.4578L50.4383 80.7083L51.314 81.2092L52.3149 82.0232L53.441 82.4613L54.5047 82.9622L55.0051 83.4631L55.4427 84.4649L56.1307 85.8425L56.4435 87.2826L57.0065 89.1611L57.6946 90.1002L58.6329 91.1646L59.5087 92.3543L59.3836 93.3561L60.7597 94.7336L61.5104 95.6104V96.4872L60.8847 97.489L60.8221 98.4907V100.808L61.0097 102.123" stroke="white" stroke-width="1.18702"/>
<path d="M27.3553 61.1101L27.4803 63.1138L27.6055 63.4896L26.7295 64.1158L26.9797 64.7421L28.2776 65.9806L29.2509 65.6263L29.605 66.0692L30.401 66.866L30.7549 68.3712L31.5511 69.168L31.1973 69.2568L30.8433 69.4337V69.8766H31.9931L32.8777 70.585L32.9663 71.4706L33.6743 72.6215L33.055 72.2672L32.701 72.6215L33.1435 73.0644L32.9667 74.0385L33.232 74.8352H34.0281L33.4089 75.2781L33.5856 75.9867L34.3816 75.8098L34.9124 76.2527L34.8236 77.1382L35.5317 76.6952L36.2394 76.961L35.5317 78.5548H34.8236L35.7969 79.6176L36.2394 80.5917L37.3012 81.1228L36.9471 82.1855L37.7433 82.6284L37.3895 83.1597L37.5662 83.8681L38.097 84.311L39.0701 83.8681L39.6894 84.3994L39.7779 86.2589L38.5394 86.5245V87.4984H39.3355L40.0432 87.8526L39.9547 88.8266L40.3972 90.0663L40.0432 90.6861L40.3972 92.2801L39.3355 91.306L38.7162 90.9519L38.9816 91.7486L39.7776 92.5454L40.1315 92.8996H39.689L39.0698 93.6082V94.6709L38.2738 96.1762L37.9199 97.6815L38.5392 98.5669L38.8044 100.072L38.0967 101.312L38.5392 102.286L38.1851 103.703L38.7159 104.588L38.6274 105.208L38.8041 107.067V107.156" stroke="white" stroke-width="1.18702"/>
<path d="M37.3897 27.9925L36.505 27.2842L36.3281 27.8154L36.7706 28.1697L35.9745 28.5239V29.9405L36.5052 30.6491L36.5937 31.2689L36.1513 31.9774L35.6205 31.8888L35.0897 32.3315L35.0012 33.1284L34.0281 34.5452L34.2935 35.2536L33.9396 35.7849L34.3819 36.2278L33.9396 36.582L34.3819 36.6708V37.1137L34.0281 37.5564L34.3819 37.9107L34.4704 38.3535L34.8247 39.239L34.4704 39.3277V40.213L34.9129 40.8329L35.7089 40.7444V41.2756L35.5322 41.541L35.7975 41.9839L35.9743 41.6297L37.0361 42.2496L36.9472 42.6924L36.5049 42.781L36.9472 43.4895L36.8587 44.5521L36.7702 45.2608L36.3277 45.172L36.6817 45.8807L36.505 46.4117L36.3281 46.7661H35.9742L35.5318 47.0315L35.8857 47.7401V48.5369L35.1779 49.3338L36.0624 50.0422L36.2391 50.4851L35.7966 50.8394L36.7701 52.1678V53.2304L36.5932 54.2932L36.8586 54.913L36.5047 55.1786L37.2125 55.7095L37.3893 56.595V57.4805L36.8586 58.2773L35.2662 58.6317L34.5583 58.543L34.293 59.2516L34.0277 60.137L34.7355 60.5799L35.0893 60.4029L35.5318 61.1998L35.178 61.2883L34.5587 60.7573V61.3772L35.7084 61.7314L36.4165 62.1742L35.2663 62.617L34.3817 62.5282L33.2316 62.0854L31.6393 62.7052L29.693 61.6426L29.3391 60.7571L28.2773 59.5174L28.4544 60.5802L28.0119 60.9343V61.0232L27.0386 60.9343L26.7733 60.4915L25.7116 59.0748L24.3846 59.1636L23.9422 58.7207L22.7037 58.8093L21.996 59.1637V59.0749L21.7306 58.632H21.2883L20.9344 58.0121L21.1113 57.038L20.5804 56.4182H19.6077L18.9885 55.887L18.6346 56.4182L17.7499 56.2412L16.7768 56.3299L15.096 55.0015L14.2998 54.9129" stroke="white" stroke-width="1.18702"/>
<path d="M61.187 32.9514V34.6341L61.7174 34.9884H60.9217L60.6562 35.3425L61.4522 35.6082L61.0982 35.9624L60.9215 36.8479L61.3638 37.4677L61.2753 38.4418L62.5138 38.7074L62.8677 39.4159L64.1063 39.5928L64.7255 40.2127L64.637 40.744L64.9024 41.3638L65.5216 40.6551L66.0522 41.1863V41.7175L65.4329 41.8945L65.1676 42.7799L66.2294 43.2227L67.0254 43.4883L67.2907 44.1969L66.3174 44.9937V46.0565L66.9367 46.6763L66.4943 47.7391L65.4325 48.2703L65.6979 48.5359L66.4058 48.2703L66.8483 48.6246L66.9368 49.1557L66.5829 49.51L67.2022 50.5727V50.8384L66.5829 50.927L66.9368 51.3699V51.9011L66.4064 52.1667L65.5218 51.9898L65.2563 52.4327L65.7871 52.6983L65.8756 53.0526L65.3448 53.4955L66.2295 53.5842L67.1141 54.0271L67.8219 53.2303L68.795 53.0534L68.7065 53.6733L67.8219 54.2044L68.4411 54.8242L68.3526 55.1785L67.5565 54.913L67.3798 55.7097L68.0875 56.1527L67.3798 56.3296L67.5565 57.0381L67.7334 57.5693L68.2641 57.9235L67.9099 58.5434L67.9988 58.9863V59.0749" stroke="white" stroke-width="1.18702"/>
</g>
<defs>
<clipPath id="clip0_1666_15498">
<rect width="96" height="133.243" fill="white"/>
</clipPath>
</defs>
</svg>
